STARTFONT 2.1
FONT -FontForge-Bungee Shade-Book-R-Normal--32-320-72-72-P-274-ISO10646-1
SIZE 32 72 72
FONTBOUNDINGBOX 81 83 -19 -30
COMMENT "Generated by fontforge, http://fontforge.sourceforge.net"
COMMENT "Copyright 2008 The Bungee Project Authors (david@djr.com)"
STARTPROPERTIES 39
FOUNDRY "FontForge"
FAMILY_NAME "Bungee Shade"
WEIGHT_NAME "Book"
SLANT "R"
SETWIDTH_NAME "Normal"
ADD_STYLE_NAME ""
PIXEL_SIZE 32
POINT_SIZE 320
RESOLUTION_X 72
RESOLUTION_Y 72
SPACING "P"
AVERAGE_WIDTH 274
CHARSET_REGISTRY "ISO10646"
CHARSET_ENCODING "1"
FONTNAME_REGISTRY ""
CHARSET_COLLECTIONS "ISO8859-2 ISO8859-9 ISO8859-4 ISO10646-1"
FONT_NAME "BungeeShade-Regular"
FACE_NAME "Bungee Shade"
COPYRIGHT "Copyright 2008 The Bungee Project Authors (david@djr.com)"
FONT_VERSION "1.000;PS 1.0;hotconv 1.0.72;makeotf.lib2.5.5900"
FONT_ASCENT 28
FONT_DESCENT 4
UNDERLINE_POSITION 0
UNDERLINE_THICKNESS 0
X_HEIGHT 23
CAP_HEIGHT 23
RAW_ASCENT 860
RAW_DESCENT 140
NORM_SPACE 10
RELATIVE_WEIGHT 40
RELATIVE_SETWIDTH 50
SUPERSCRIPT_X 0
SUPERSCRIPT_Y 11
SUPERSCRIPT_SIZE 19
SUBSCRIPT_X 0
SUBSCRIPT_Y 2
SUBSCRIPT_SIZE 19
AVG_LOWERCASE_WIDTH 261
AVG_UPPERCASE_WIDTH 267
ENDPROPERTIES
CHARS 1065
STARTCHAR space
ENCODING 32
SWIDTH 325 0
DWIDTH 10 0
BBX 1 1 0 0
BITMAP
00
ENDCHAR
STARTCHAR exclam
ENCODING 33
SWIDTH 524 0
DWIDTH 17 0
BBX 13 28 2 -4
BITMAP
0FF8
1008
3008
7008
F088
F088
F888
F888
F888
F888
F888
F888
F888
F808
F808
F818
FFE0
FFF0
F808
3008
7088
F008
F008
F008
FFF0
FFE0
FFC0
FF80
ENDCHAR
STARTCHAR quotedbl
ENCODING 34
SWIDTH 746 0
DWIDTH 24 0
BBX 22 16 1 8
BITMAP
0FF3FC
100C04
300C04
F08C24
F08C24
F08C24
F08C24
F08C24
F08C24
F00C04
F00C04
F80C04
FFFFF8
FFFFF0
FFBFE0
FF3FC0
ENDCHAR
STARTCHAR numbersign
ENCODING 35
SWIDTH 850 0
DWIDTH 27 0
BBX 27 28 0 -4
BITMAP
003F1F80
00C12080
01C16080
03C1E080
0789E480
0789E4C0
0C100420
1C100420
3C7FFF20
7C100820
7E100820
7F13C9C0
7F138900
3F238980
08201040
18201040
38FFFE40
78201040
F8201040
F8201040
FE471380
FE070200
FE0F0400
7E0F0400
1FFFF800
3FEFF000
3FCFE000
3F0FC000
ENDCHAR
STARTCHAR dollar
ENCODING 36
SWIDTH 750 0
DWIDTH 24 0
BBX 23 34 1 -7
BITMAP
003F00
004080
00C080
030478
040404
040404
080404
107FC4
308004
708004
F10FF8
F10FE0
F101E0
F10018
F08004
F87C04
FC03C2
FE0022
FFF022
FFFE22
7FFE22
300022
100022
300042
F1FF84
F00408
F00410
FFC060
FFC040
FFC080
FFFF00
07FE00
07FC00
03F800
ENDCHAR
STARTCHAR percent
ENCODING 37
SWIDTH 1131 0
DWIDTH 36 0
BBX 35 28 1 -4
BITMAP
07FC1F8000
0802208000
11F1608000
3209E08000
7205C48000
F265C90000
F265C90000
F265C90000
F265890000
F2658A0000
F205927F00
F2099280C0
F9F1131E20
FC03126120
FFFF2240A0
FFFF264CA0
7FEE264CA0
3F8E264CA0
001E464CA0
001E4E4CA0
001E4E40A0
001C0E4120
003C0F3E20
003C1F8040
003FFFFF80
003FDFFE00
007F8FFC00
003E07F000
ENDCHAR
STARTCHAR ampersand
ENCODING 38
SWIDTH 866 0
DWIDTH 28 0
BBX 28 28 0 -4
BITMAP
007FF800
00800400
01000400
02000400
060FC400
0E100400
1E200400
1E23F800
1E23E000
1E21C000
1F208000
1F905FE0
1C3C6010
18406010
18806310
388FE210
788FE210
788FE220
F8800240
F8800240
F8800440
F85FF080
FC000080
7F000100
7FFFFE00
3FFFF800
3FFFF000
0FFFC000
ENDCHAR
STARTCHAR quotesingle
ENCODING 39
SWIDTH 456 0
DWIDTH 15 0
BBX 13 16 1 8
BITMAP
0FF8
1808
3808
7888
F888
F888
F888
F888
F888
F808
F808
F808
FFF0
FFE0
FF80
7F00
ENDCHAR
STARTCHAR parenleft
ENCODING 40
SWIDTH 529 0
DWIDTH 17 0
BBX 15 33 1 -6
BITMAP
00DC
0302
0402
0872
1882
3082
7102
F10C
F108
F110
F110
F110
F110
F110
F110
F110
F110
F110
F110
F110
F110
F110
F10C
F102
F082
F882
F852
FC02
FF02
FFFC
7FF8
3FF0
0FE0
ENDCHAR
STARTCHAR parenright
ENCODING 41
SWIDTH 529 0
DWIDTH 17 0
BBX 15 33 1 -6
BITMAP
0FE0
1018
3004
71C2
F022
F022
F012
FE12
FF12
FF12
FF12
1F12
1F12
1F12
1F12
1F12
1F12
1F12
1F12
1F12
1F12
1F12
1E12
1012
1022
7022
F142
F004
F018
FFE0
FFC0
FF80
FE00
ENDCHAR
STARTCHAR asterisk
ENCODING 42
SWIDTH 818 0
DWIDTH 26 0
BBX 24 23 1 1
BITMAP
001FC0
002040
006040
01F240
06F25E
0C32E2
180201
388201
787271
780D81
7F2607
7FC53C
FF8898
FF1048
0E2244
060602
0E0704
1F8F08
3FCFB0
3FFFC0
1FCF80
078F00
030400
ENDCHAR
STARTCHAR plus
ENCODING 43
SWIDTH 834 0
DWIDTH 27 0
BBX 24 24 1 -2
BITMAP
001F80
002040
006040
00E040
01E240
01E240
01E240
07E23E
080201
180201
38FFF9
780201
F80201
F80201
FFE23E
FFE23C
FFE238
7FE030
01E040
01E040
01FF80
01FF00
01FE00
01FC00
ENDCHAR
STARTCHAR comma
ENCODING 44
SWIDTH 484 0
DWIDTH 15 0
BBX 14 17 1 -8
BITMAP
07F8
1004
3004
7004
F1E4
F024
F024
F824
FFA4
F824
F9C8
3808
7830
FFC0
FF80
FF00
7800
ENDCHAR
STARTCHAR hyphen
ENCODING 45
SWIDTH 520 0
DWIDTH 17 0
BBX 15 11 1 4
BITMAP
0FFE
1002
3002
71F2
F002
F002
F002
FFFC
FFF8
FFF0
FFE0
ENDCHAR
STARTCHAR period
ENCODING 46
SWIDTH 484 0
DWIDTH 15 0
BBX 14 13 1 -4
BITMAP
07F8
1004
3004
7084
F084
F084
F004
F004
F004
FFF8
FFF0
FFC0
FF80
ENDCHAR
STARTCHAR slash
ENCODING 47
SWIDTH 487 0
DWIDTH 16 0
BBX 16 34 0 -6
BITMAP
007E
0181
0301
0701
0F11
0F12
0F12
0F12
1E22
1E22
1E22
1E22
1E24
1E24
1E24
3C44
3C44
3C44
3C44
3C48
3C48
3C48
7888
7888
7888
7888
7890
7810
7810
F810
FFE0
FFC0
FF00
7E00
ENDCHAR
STARTCHAR zero
ENCODING 48
SWIDTH 827 0
DWIDTH 26 0
BBX 24 28 1 -4
BITMAP
00FFF0
03000C
040002
081741
186021
388011
788209
788F89
F88F89
F88F89
F88F89
F88F89
F88F89
F88F89
F88F89
F88F89
F88F89
F88F09
F88009
F88011
F86021
FC1741
FE0002
7F800C
7FFFF0
3FFFE0
1FFFC0
03FE00
ENDCHAR
STARTCHAR one
ENCODING 49
SWIDTH 701 0
DWIDTH 22 0
BBX 21 28 1 -4
BITMAP
07FF80
080080
380080
780080
F8F880
F80880
F80880
FF8880
FF8880
FF8880
7F8880
0F8880
0F8880
0F8880
0F8880
0F8880
0F8880
0F88F0
100808
300808
700808
F1FFC8
F00008
F00008
FFFFF0
FFFFE0
FFFFC0
FFFF80
ENDCHAR
STARTCHAR two
ENCODING 50
SWIDTH 739 0
DWIDTH 24 0
BBX 22 28 1 -4
BITMAP
07FFE0
080010
180008
380004
78FF84
780044
780044
7FFC44
7FFC44
7FF044
7F8044
0200C8
040708
083810
30C060
710380
F11F00
F11FF8
F10004
F10004
F10004
F1FFE4
F00004
F00004
FFFFF8
FFFFF0
FFFFE0
FFFF80
ENDCHAR
STARTCHAR three
ENCODING 51
SWIDTH 737 0
DWIDTH 24 0
BBX 22 28 1 -4
BITMAP
0FFFC0
100020
300010
700010
F1FA10
F00110
F00110
FFF090
FFF890
FF0090
FE0120
060118
1E3E84
3E0044
3E0044
3FFC24
3FFE24
3FFE24
100024
100024
300044
F1FF84
F00008
F00010
FFFFE0
FFFF80
FFFF00
FFFC00
ENDCHAR
STARTCHAR four
ENCODING 52
SWIDTH 809 0
DWIDTH 26 0
BBX 23 28 1 -4
BITMAP
0FF0FE
180902
380B02
780F02
F88F12
F88F12
F88F12
F88F12
F88F12
F88F12
F88F12
F88F12
F88012
F88012
F84012
F81FF2
F80012
FC0012
7E0012
7FFF12
7FFF12
3FFF02
0FFF02
001F02
001FFE
001FF8
001FF0
000FE0
ENDCHAR
STARTCHAR five
ENCODING 53
SWIDTH 747 0
DWIDTH 24 0
BBX 22 28 1 -4
BITMAP
0FFFF8
080004
380004
780004
F8FFC4
F88004
F88008
F88FF0
F88FE0
F88010
F88008
F88004
F8FF84
F80044
F80024
FFFE24
FFFE24
FFFE24
F80024
100024
300044
71FF84
F00008
F00010
FFFFE0
FFFFC0
FFFF00
FFFE00
ENDCHAR
STARTCHAR six
ENCODING 54
SWIDTH 793 0
DWIDTH 25 0
BBX 24 28 1 -4
BITMAP
00FFF8
030004
040004
083FC4
184004
388004
788008
788FF0
F88FE0
F88018
F88006
F8AFC2
F8C021
F88011
F88F11
F88F11
F88F11
F88F11
F88011
F88011
F84021
FC3FC2
FE0004
7F8018
7FFFF0
3FFFC0
1FFF80
03FE00
ENDCHAR
STARTCHAR seven
ENCODING 55
SWIDTH 727 0
DWIDTH 23 0
BBX 22 28 0 -4
BITMAP
07FFFC
080004
180004
780004
78FFE4
F80024
F80024
FFFE24
FFFE24
FFFE24
7FF824
006024
008044
010184
030E04
061018
0E2020
1E21C0
1E2180
1E2100
1E2200
1E0200
1E0200
1E0200
1FFC00
1FF800
1FF000
1FE000
ENDCHAR
STARTCHAR eight
ENCODING 56
SWIDTH 811 0
DWIDTH 26 0
BBX 24 28 1 -4
BITMAP
00FFF0
010008
021F84
046062
0C4012
3C8012
3C8F12
7C8F12
7C8F12
7C4712
7F4024
7C3FC2
784031
308011
310009
710F89
F11F89
F11F89
F10F89
F08009
F04031
F82F41
FC0002
FF000C
FFFFF0
7FFFE0
3FFFC0
07FE00
ENDCHAR
STARTCHAR nine
ENCODING 57
SWIDTH 793 0
DWIDTH 25 0
BBX 23 28 1 -4
BITMAP
00FFE0
030018
040004
083F82
10C062
308022
710E12
F11F12
F11F12
F10F12
F10012
F10022
F88022
F85ED2
FC0012
FF0012
FFFF12
7FFF12
7E0012
1E0022
0E0022
1E7FC2
3E0004
3E0018
3FFFE0
3FFFC0
3FFF80
3FFE00
ENDCHAR
STARTCHAR colon
ENCODING 58
SWIDTH 484 0
DWIDTH 15 0
BBX 14 25 1 -4
BITMAP
07F8
0804
3004
7004
F084
F084
F084
F004
F004
F804
FFF8
FFE0
FFF8
7004
3004
7084
F084
F084
F004
F004
F004
FFF8
FFF0
FFC0
FF80
ENDCHAR
STARTCHAR semicolon
ENCODING 59
SWIDTH 484 0
DWIDTH 15 0
BBX 14 29 1 -8
BITMAP
07F8
0804
3004
7004
F084
F084
F084
F004
F004
F804
FFF8
FFE0
FFF8
F004
3004
7004
F1E4
F024
F024
F824
FFA4
F824
F9C8
3808
7830
FFC0
FF80
FF00
7800
ENDCHAR
STARTCHAR less
ENCODING 60
SWIDTH 814 0
DWIDTH 26 0
BBX 22 24 2 -2
BITMAP
000018
0000E4
000F04
007004
038064
040384
083C04
10C008
3100F0
7107E0
F11FC0
F10600
F101E0
F0C018
F83C04
FC0384
FF0064
FFE004
7FFE04
3FFFC4
0FFFF8
00FFF0
001FE0
0001C0
ENDCHAR
STARTCHAR equal
ENCODING 61
SWIDTH 834 0
DWIDTH 27 0
BBX 24 20 1 0
BITMAP
07FFFE
080001
180001
38FFF9
780001
F80001
F80001
FFFFFE
FFFFFC
FFFFF8
3C0007
080001
180001
78FFF9
780001
F80001
FFFFFF
FFFFFC
FFFFF8
7FFFF0
ENDCHAR
STARTCHAR greater
ENCODING 62
SWIDTH 814 0
DWIDTH 26 0
BBX 22 23 2 -1
BITMAP
0F0000
18E000
381E00
7801C0
F9E030
F81C08
F803C4
FC0024
FFC024
FFF824
7FFE24
0FFC24
03C024
0C03C4
181C04
38E008
790030
F801C0
F81F80
F8FE00
FFF000
FF0000
F80000
ENDCHAR
STARTCHAR question
ENCODING 63
SWIDTH 756 0
DWIDTH 24 0
BBX 23 28 1 -4
BITMAP
0FFFE0
100018
300004
700004
F1FF82
F00062
F00022
FFFE22
FFFE22
FFE022
FE0022
060062
0E3F84
1E0004
3E0018
3E00E0
1FFFC0
1F0380
1E0200
1E0200
1E2200
3E0200
3E0200
3E0200
3FFC00
3FF800
3FF000
3FE000
ENDCHAR
STARTCHAR at
ENCODING 64
SWIDTH 967 0
DWIDTH 31 0
BBX 29 34 1 -6
BITMAP
001FFC00
00E00380
011FFC60
02600390
058FF850
1A7FFF28
3AFFFFA8
7AFFFFA8
7B1801A8
FB2001A8
FB45F9A8
FAC809A8
FAC9C9A8
FAC9C9A8
FAC9C9A8
FAC9C9A8
FAC9C9A8
FAC9C9A8
FAC9C9A8
FAC809A8
FAC80868
FAC7FF10
FAE00020
FAFE03C0
FA7FFF80
FA3FFE00
FD83FE00
7E600100
7F1FFD00
7FE00100
3FFFFE00
1FFFFC00
07FFF800
00FFF000
ENDCHAR
STARTCHAR A
ENCODING 65
SWIDTH 830 0
DWIDTH 27 0
BBX 25 28 1 -4
BITMAP
007FF000
00800800
01000800
03000400
061F8400
0E204400
0E202200
1C262200
1C472100
18471100
388F1100
388F0880
78808880
79000880
71000880
F0FFF880
F1000880
F1000880
F11F8880
F11F8880
F11F8880
F01F8080
F0178080
F0178080
FFE7FF00
FFC7FE00
FF07F800
FE07F000
ENDCHAR
STARTCHAR B
ENCODING 66
SWIDTH 825 0
DWIDTH 26 0
BBX 25 28 1 -4
BITMAP
07FFF000
08000800
38000400
78000200
78FF4200
F8802200
F8802200
F88F2200
F88F2200
F88F2200
F8802C00
F8802200
F8FFD100
F8800880
F8800880
F88F8480
F88F8480
F88F8480
F88F8480
F8800880
F8800880
F8FFD080
F8000100
F8000200
FFFFFC00
FFFFF000
FFFFE000
7FFF8000
ENDCHAR
STARTCHAR C
ENCODING 67
SWIDTH 728 0
DWIDTH 23 0
BBX 22 28 1 -4
BITMAP
00FFFC
030004
040004
080004
183FC4
384004
788004
7887F8
F88FF0
F88FC0
F88F80
F89000
F89000
F89000
F89000
F89000
F88800
F887F8
F88004
F88004
F84004
FC3FC4
FC0004
7F0004
7FFFF8
3FFFF0
1FFFC0
07FF80
ENDCHAR
STARTCHAR D
ENCODING 68
SWIDTH 846 0
DWIDTH 27 0
BBX 25 28 1 -4
BITMAP
07FFF800
08000600
38000100
78000080
78FFA080
F8801080
F8800880
F88F0880
F88F8480
F88F8480
F88F8480
F88F8480
F88F8480
F88F8480
F88F8480
F88F8480
F88F8480
F88F0480
F8800880
F8800880
F8801080
F8FFA100
F8000200
F8000400
FFFFF800
FFFFF000
FFFFE000
7FFF0000
ENDCHAR
STARTCHAR E
ENCODING 69
SWIDTH 754 0
DWIDTH 24 0
BBX 22 28 1 -4
BITMAP
07FFFC
080004
380004
780004
78FFE4
F88004
F88004
F88FF8
F88FF0
F88020
F88010
F88010
F8FF90
F88010
F88010
F88FE0
F88FC0
F88FF8
F88004
F88004
F88004
F8FFE4
F80004
F80004
FFFFF8
FFFFF0
FFFFE0
7FFFC0
ENDCHAR
STARTCHAR F
ENCODING 70
SWIDTH 718 0
DWIDTH 23 0
BBX 22 28 1 -4
BITMAP
07FFFC
080004
380004
780004
78FFE4
F88004
F88004
F88FF8
F88FF0
F88FC0
F88020
F88010
F88010
F8FF10
F88010
F88010
F88020
F88FC0
F88F80
F88F00
F88E00
F88800
F80800
F80800
FFF000
FFE000
FF8000
7F0000
ENDCHAR
STARTCHAR G
ENCODING 71
SWIDTH 808 0
DWIDTH 26 0
BBX 24 28 1 -4
BITMAP
00FFFC
030004
040004
080004
182FE4
384004
788004
7887F8
F88FF0
F88FE0
F88F80
F8907E
F89181
F89301
F89701
F88F11
F88F11
F88F11
F88011
F88011
F84011
FC2FF1
FC0001
7F0001
7FFFFE
3FFFFC
1FFFF8
07FFF0
ENDCHAR
STARTCHAR H
ENCODING 72
SWIDTH 859 0
DWIDTH 27 0
BBX 25 28 1 -4
BITMAP
07F07F80
0808C080
3809C080
780BC080
788FC480
F88FC480
F88FC480
F88FC480
F88FC480
F8800480
F8800480
F8800480
F8FFF880
F8800480
F8800480
F8800480
F88FC480
F88FC480
F88FC480
F88FC480
F88FC480
F80FC080
F80FC080
F80FC080
FFF7FF00
FFE7FE00
FF87FC00
7F07F800
ENDCHAR
STARTCHAR I
ENCODING 73
SWIDTH 705 0
DWIDTH 23 0
BBX 21 28 1 -4
BITMAP
0FFFF8
100008
300008
700008
F1FF88
F00808
F80808
FF88F0
FF88C0
FF8880
7F8880
0F8880
0F8880
0F8880
0F8880
0F8880
0F8880
0F88F0
100808
300808
700808
F1FF88
F00008
F00008
FFFFF0
FFFFE0
FFFF80
FFFF00
ENDCHAR
STARTCHAR J
ENCODING 74
SWIDTH 788 0
DWIDTH 25 0
BBX 23 28 1 -4
BITMAP
0001FE
000202
000602
000E22
001E22
001E22
001E22
001E22
001E22
001E22
001E22
0FFE22
101E22
301E22
701E22
F11E22
F11E22
F11E22
F10022
F10022
F0C042
F82F84
FC0008
FF0010
FFFFE0
7FFFC0
3FFF00
07FC00
ENDCHAR
STARTCHAR K
ENCODING 75
SWIDTH 846 0
DWIDTH 27 0
BBX 25 28 1 -4
BITMAP
07F07F80
08088080
38090100
780B0100
788F1200
F88E2200
F88E2200
F88C4400
F88C4400
F8884600
F8808100
F8808080
F8FFF080
F8800880
F8800880
F8800480
F88F8480
F88F8480
F88F8480
F88F8480
F88F8480
F80F8080
F80F8080
F80F8080
FFF7FF00
FFE7FE00
FF87FC00
7F07F800
ENDCHAR
STARTCHAR L
ENCODING 76
SWIDTH 795 0
DWIDTH 25 0
BBX 24 28 1 -4
BITMAP
07F000
080800
380800
788800
788800
F88800
F88800
F88800
F88800
F88800
F88800
F8887E
F88881
F88981
F88F81
F88F91
F88F91
F88F91
F88011
F88011
F88011
F8FFF1
F80001
F80001
FFFFFE
FFFFFC
FFFFF8
7FFFE0
ENDCHAR
STARTCHAR M
ENCODING 77
SWIDTH 949 0
DWIDTH 30 0
BBX 28 28 1 -4
BITMAP
07F80FF0
08081010
38042010
78046010
7842C310
F8A1C510
F8918910
F8889110
F8841110
F8842110
F8824110
F8888910
F8880910
F8881110
F88C1110
F88C3110
F88FF110
F88FF110
F88EF110
F88CF110
F888F110
F808F010
F808F010
F808F010
FFF0FFE0
FFC0FFC0
FF80FF80
7F00FF00
ENDCHAR
STARTCHAR N
ENCODING 78
SWIDTH 853 0
DWIDTH 27 0
BBX 25 28 1 -4
BITMAP
07E07F80
08108080
38098080
78058080
78838480
F8C18480
F8A18480
F8908480
F8884480
F8840480
F8820480
F8810480
F8908480
F8884480
F88C4480
F88C2480
F88E1480
F88F0880
F88F8480
F88F8480
F88F8480
F80F8080
F80F8080
F80FC080
FFF7FF00
FFC7FE00
FF87FC00
7F07F000
ENDCHAR
STARTCHAR O
ENCODING 79
SWIDTH 837 0
DWIDTH 27 0
BBX 25 28 1 -4
BITMAP
00FFF800
03000600
04000100
08174100
18603080
38800880
78820880
788F8880
F88F8880
F88F8880
F88F8880
F8978880
F8978880
F8978880
F8978880
F8978880
F8978880
F88F8880
F8800880
F8800880
F8603080
FC174100
FE000200
7F800C00
7FFFF000
3FFFE000
1FFFC000
03FE0000
ENDCHAR
STARTCHAR P
ENCODING 80
SWIDTH 782 0
DWIDTH 25 0
BBX 24 28 1 -4
BITMAP
07FFF0
08000C
380002
780002
78FFC1
F88021
F88011
F88F11
F88F09
F88F09
F88F09
F88F11
F88011
F88031
F8FFC2
F88002
F88004
F88008
F88FF0
F88FC0
F88F80
F88C00
F80800
F80800
FFF000
FFE000
FF8000
7F0000
ENDCHAR
STARTCHAR Q
ENCODING 81
SWIDTH 837 0
DWIDTH 27 0
BBX 25 31 1 -7
BITMAP
00FFF800
03000400
04000300
08174100
18603080
38800880
78800880
788F8880
F88F8880
F88F8880
F88F8880
F8978880
F8978880
F8978880
F8978880
F8978880
F8978880
F8978880
F88F0880
F8800880
F8603080
FC174100
FC020200
7F020400
7FE03800
3FE02000
1FE02000
07FFC000
03FF0000
03FE0000
01FC0000
ENDCHAR
STARTCHAR R
ENCODING 82
SWIDTH 843 0
DWIDTH 27 0
BBX 25 28 1 -4
BITMAP
07FFF800
08000400
38000200
78000200
78FFC200
F8802100
F8802100
F88F1100
F88F1100
F88F1200
F88F1200
F8802600
F8802100
F8FFF080
F8800880
F8800480
F8800480
F88FC480
F88FC480
F88FC480
F88FC480
F88FC480
F80FC080
F80FC080
FFF7FF80
FFE7FE00
FF87FC00
7F03F800
ENDCHAR
STARTCHAR S
ENCODING 83
SWIDTH 750 0
DWIDTH 24 0
BBX 23 28 1 -4
BITMAP
01FFF8
020004
040004
080004
107FC4
708004
708004
F10FF8
F10FE0
F100E0
F10018
F08004
F87C04
FC03C2
FE0022
FFE022
FFFE22
7FFE22
100022
100022
300042
F1FF84
F00008
F00010
FFFFE0
FFFFC0
FFFF00
FFFE00
ENDCHAR
STARTCHAR T
ENCODING 84
SWIDTH 756 0
DWIDTH 24 0
BBX 24 28 0 -4
BITMAP
0FFFFF
180001
380001
780001
F9FFF9
F80201
F80201
FFC23E
FFC23C
FFC238
FFC230
03C220
03C220
03C220
03C220
03C220
03C220
03C220
03C220
03C220
03C220
03C020
03C020
03C020
03FFC0
03FF00
03FE00
03FC00
ENDCHAR
STARTCHAR U
ENCODING 85
SWIDTH 846 0
DWIDTH 27 0
BBX 25 28 1 -4
BITMAP
0FF07F80
18088080
38098080
788B8880
F88F8880
F88F8880
F88F8880
F88F8880
F88F8880
F88F8880
F88F8880
F88F8880
F88F8880
F88F8880
F88F8880
F88F8880
F88F8880
F88F8880
F8800880
F8400880
F8603080
FC174100
7E000200
7F800C00
7FFFF000
3FFFE000
1FFFC000
03FE0000
ENDCHAR
STARTCHAR V
ENCODING 86
SWIDTH 830 0
DWIDTH 27 0
BBX 25 28 1 -4
BITMAP
0FF07F80
10088080
30098080
708B8880
F08F8880
F08F8880
F08F8880
F08F8880
F08F8880
F08F8880
F08F8880
F08F8880
F88F8880
F8870900
F8871100
FC471100
FC461200
7C222200
7E202200
7E204400
3F104400
3F0F8800
1F000800
1F800800
1FFFF000
0FFFC000
0FFF8000
07FF0000
ENDCHAR
STARTCHAR W
ENCODING 87
SWIDTH 931 0
DWIDTH 30 0
BBX 28 28 1 -4
BITMAP
0FF00FF0
18101010
38103010
78907110
F890F110
F890F110
F890F110
F890F110
F893F110
F8943110
F8881110
F8881110
F8881110
F8918910
F8824110
F8842110
F8842110
F8881110
F8899120
FC918920
FC518A20
7C23C440
7E03C040
7E03C040
3FFFFF80
3FF7FE00
3FE3FC00
1FC3F800
ENDCHAR
STARTCHAR X
ENCODING 88
SWIDTH 837 0
DWIDTH 27 0
BBX 25 28 1 -4
BITMAP
0FF07F80
18108080
38118080
78138080
F8978880
F88F8880
F8870880
F8471100
FC421100
FC202200
FE104200
7F104400
3F0F8800
3F104400
1E104200
0C202100
18421100
18870880
388F8880
788F8880
788F8880
F80F8080
F8178080
F8178080
FFE7FF00
FFC7FE00
FF87FC00
FF07F000
ENDCHAR
STARTCHAR Y
ENCODING 89
SWIDTH 805 0
DWIDTH 26 0
BBX 24 28 1 -4
BITMAP
0FF0FF
101181
301381
711789
F11F89
F11F89
F11F89
F11F89
F10F09
F08F11
F08611
F84021
FC2042
FC2044
FE1084
7F0F08
7F8410
3F8420
1FC420
0FC440
0FC440
07C040
03C040
03C040
03FF80
03FF00
03FE00
03FC00
ENDCHAR
STARTCHAR Z
ENCODING 90
SWIDTH 760 0
DWIDTH 24 0
BBX 23 28 1 -4
BITMAP
0FFFFC
080004
380004
780004
F8FFC4
F80024
F80024
FFF844
FFF084
FFE108
7FC210
018220
010440
030840
061080
0C1100
182200
1043FC
308002
708002
F10002
F0FFE2
F00002
F00002
FFFFFC
FFFFF8
FFFFE0
FFFFC0
ENDCHAR
STARTCHAR bracketleft
ENCODING 91
SWIDTH 529 0
DWIDTH 17 0
BBX 15 33 1 -6
BITMAP
0FFC
1002
3002
70F2
F102
F102
F102
F10C
F108
F110
F110
F110
F110
F110
F110
F110
F110
F110
F110
F110
F110
F110
F10C
F102
F102
F102
F0F2
F002
F002
FFFC
FFF8
FFF0
FFE0
ENDCHAR
STARTCHAR backslash
ENCODING 92
SWIDTH 487 0
DWIDTH 16 0
BBX 16 34 0 -6
BITMAP
07E0
0810
3810
7810
F890
F888
F888
F888
F888
7C48
7C48
7C48
7C44
7C44
7C44
7C44
3E24
3E24
3E24
3E22
3E22
3E22
3E22
1F12
1F12
1F12
1F11
1F01
1F01
1F81
0FFE
0FF8
0FF0
0FE0
ENDCHAR
STARTCHAR bracketright
ENCODING 93
SWIDTH 529 0
DWIDTH 17 0
BBX 15 33 1 -6
BITMAP
0FFC
1002
3002
71E2
F012
F012
F012
FF12
FF12
FF12
FF12
1F12
1F12
1F12
1F12
1F12
1F12
1F12
1F12
1F12
1F12
1F12
1F12
1012
1012
7012
F1E2
F002
F002
FFFC
FFF8
FFF0
FFE0
ENDCHAR
STARTCHAR asciicircum
ENCODING 94
SWIDTH 814 0
DWIDTH 26 0
BBX 24 22 1 2
BITMAP
007FC0
008020
010010
031F10
072090
0E2088
0E2048
1E4448
1C4444
1C4644
3C4E24
3C8E24
388F22
789F12
791F12
701F01
701F81
F03F81
FFCFFE
FF8FFC
FE0FF0
FC07E0
ENDCHAR
STARTCHAR underscore
ENCODING 95
SWIDTH 834 0
DWIDTH 27 0
BBX 24 11 1 -7
BITMAP
07FFFE
080001
180001
38FFF9
780001
F80001
F80001
FFFFFF
FFFFFC
FFFFF8
7FFFF0
ENDCHAR
STARTCHAR grave
ENCODING 96
SWIDTH 600 0
DWIDTH 19 0
BBX 18 11 1 20
BITMAP
1FFC00
300380
700040
F1FC40
F00040
FC0040
FFFC40
FFFF80
FFFE00
1FFC00
001800
ENDCHAR
STARTCHAR a
ENCODING 97
SWIDTH 830 0
DWIDTH 27 0
BBX 25 28 1 -4
BITMAP
007FF000
00800800
01000800
03000400
061F8400
0E204400
0E202200
1C262200
1C472100
18471100
388F1100
388F0880
78808880
79000880
71000880
F0FFF880
F1000880
F1000880
F11F8880
F11F8880
F11F8880
F01F8080
F0178080
F0178080
FFE7FF00
FFC7FE00
FF07F800
FE07F000
ENDCHAR
STARTCHAR b
ENCODING 98
SWIDTH 825 0
DWIDTH 26 0
BBX 25 28 1 -4
BITMAP
07FFF000
08000800
38000400
78000200
78FF4200
F8802200
F8802200
F88F2200
F88F2200
F88F2200
F8802C00
F8802200
F8FFD100
F8800880
F8800880
F88F8480
F88F8480
F88F8480
F88F8480
F8800880
F8800880
F8FFD080
F8000100
F8000200
FFFFFC00
FFFFF000
FFFFE000
7FFF8000
ENDCHAR
STARTCHAR c
ENCODING 99
SWIDTH 728 0
DWIDTH 23 0
BBX 22 28 1 -4
BITMAP
00FFFC
030004
040004
080004
183FC4
384004
788004
7887F8
F88FF0
F88FC0
F88F80
F89000
F89000
F89000
F89000
F89000
F88800
F887F8
F88004
F88004
F84004
FC3FC4
FC0004
7F0004
7FFFF8
3FFFF0
1FFFC0
07FF80
ENDCHAR
STARTCHAR d
ENCODING 100
SWIDTH 846 0
DWIDTH 27 0
BBX 25 28 1 -4
BITMAP
07FFF800
08000600
38000100
78000080
78FFA080
F8801080
F8800880
F88F0880
F88F8480
F88F8480
F88F8480
F88F8480
F88F8480
F88F8480
F88F8480
F88F8480
F88F8480
F88F0480
F8800880
F8800880
F8801080
F8FFA100
F8000200
F8000400
FFFFF800
FFFFF000
FFFFE000
7FFF0000
ENDCHAR
STARTCHAR e
ENCODING 101
SWIDTH 754 0
DWIDTH 24 0
BBX 22 28 1 -4
BITMAP
07FFFC
080004
380004
780004
78FFE4
F88004
F88004
F88FF8
F88FF0
F88020
F88010
F88010
F8FF90
F88010
F88010
F88FE0
F88FC0
F88FF8
F88004
F88004
F88004
F8FFE4
F80004
F80004
FFFFF8
FFFFF0
FFFFE0
7FFFC0
ENDCHAR
STARTCHAR f
ENCODING 102
SWIDTH 718 0
DWIDTH 23 0
BBX 22 28 1 -4
BITMAP
07FFFC
080004
380004
780004
78FFE4
F88004
F88004
F88FF8
F88FF0
F88FC0
F88020
F88010
F88010
F8FF10
F88010
F88010
F88020
F88FC0
F88F80
F88F00
F88E00
F88800
F80800
F80800
FFF000
FFE000
FF8000
7F0000
ENDCHAR
STARTCHAR g
ENCODING 103
SWIDTH 808 0
DWIDTH 26 0
BBX 24 28 1 -4
BITMAP
00FFFC
030004
040004
080004
182FE4
384004
788004
7887F8
F88FF0
F88FE0
F88F80
F8907E
F89181
F89301
F89701
F88F11
F88F11
F88F11
F88011
F88011
F84011
FC2FF1
FC0001
7F0001
7FFFFE
3FFFFC
1FFFF8
07FFF0
ENDCHAR
STARTCHAR h
ENCODING 104
SWIDTH 859 0
DWIDTH 27 0
BBX 25 28 1 -4
BITMAP
07F07F80
0808C080
3809C080
780BC080
788FC480
F88FC480
F88FC480
F88FC480
F88FC480
F8800480
F8800480
F8800480
F8FFF880
F8800480
F8800480
F8800480
F88FC480
F88FC480
F88FC480
F88FC480
F88FC480
F80FC080
F80FC080
F80FC080
FFF7FF00
FFE7FE00
FF87FC00
7F07F800
ENDCHAR
STARTCHAR i
ENCODING 105
SWIDTH 705 0
DWIDTH 23 0
BBX 21 28 1 -4
BITMAP
0FFFF8
100008
300008
700008
F1FF88
F00808
F80808
FF88F0
FF88C0
FF8880
7F8880
0F8880
0F8880
0F8880
0F8880
0F8880
0F8880
0F88F0
100808
300808
700808
F1FF88
F00008
F00008
FFFFF0
FFFFE0
FFFF80
FFFF00
ENDCHAR
STARTCHAR j
ENCODING 106
SWIDTH 788 0
DWIDTH 25 0
BBX 23 28 1 -4
BITMAP
0001FE
000202
000602
000E22
001E22
001E22
001E22
001E22
001E22
001E22
001E22
0FFE22
101E22
301E22
701E22
F11E22
F11E22
F11E22
F10022
F10022
F0C042
F82F84
FC0008
FF0010
FFFFE0
7FFFC0
3FFF00
07FC00
ENDCHAR
STARTCHAR k
ENCODING 107
SWIDTH 846 0
DWIDTH 27 0
BBX 25 28 1 -4
BITMAP
07F07F80
08088080
38090100
780B0100
788F1200
F88E2200
F88E2200
F88C4400
F88C4400
F8884600
F8808100
F8808080
F8FFF080
F8800880
F8800880
F8800480
F88F8480
F88F8480
F88F8480
F88F8480
F88F8480
F80F8080
F80F8080
F80F8080
FFF7FF00
FFE7FE00
FF87FC00
7F07F800
ENDCHAR
STARTCHAR l
ENCODING 108
SWIDTH 795 0
DWIDTH 25 0
BBX 24 28 1 -4
BITMAP
07F000
080800
380800
788800
788800
F88800
F88800
F88800
F88800
F88800
F88800
F8887E
F88881
F88981
F88F81
F88F91
F88F91
F88F91
F88011
F88011
F88011
F8FFF1
F80001
F80001
FFFFFE
FFFFFC
FFFFF8
7FFFE0
ENDCHAR
STARTCHAR m
ENCODING 109
SWIDTH 949 0
DWIDTH 30 0
BBX 28 28 1 -4
BITMAP
07F80FF0
08081010
38042010
78046010
7842C310
F8A1C510
F8918910
F8889110
F8841110
F8842110
F8824110
F8888910
F8880910
F8881110
F88C1110
F88C3110
F88FF110
F88FF110
F88EF110
F88CF110
F888F110
F808F010
F808F010
F808F010
FFF0FFE0
FFC0FFC0
FF80FF80
7F00FF00
ENDCHAR
STARTCHAR n
ENCODING 110
SWIDTH 853 0
DWIDTH 27 0
BBX 25 28 1 -4
BITMAP
07E07F80
08108080
38098080
78058080
78838480
F8C18480
F8A18480
F8908480
F8884480
F8840480
F8820480
F8810480
F8908480
F8884480
F88C4480
F88C2480
F88E1480
F88F0880
F88F8480
F88F8480
F88F8480
F80F8080
F80F8080
F80FC080
FFF7FF00
FFC7FE00
FF87FC00
7F07F000
ENDCHAR
STARTCHAR o
ENCODING 111
SWIDTH 837 0
DWIDTH 27 0
BBX 25 28 1 -4
BITMAP
00FFF800
03000600
04000100
08174100
18603080
38800880
78820880
788F8880
F88F8880
F88F8880
F88F8880
F8978880
F8978880
F8978880
F8978880
F8978880
F8978880
F88F8880
F8800880
F8800880
F8603080
FC174100
FE000200
7F800C00
7FFFF000
3FFFE000
1FFFC000
03FE0000
ENDCHAR
STARTCHAR p
ENCODING 112
SWIDTH 782 0
DWIDTH 25 0
BBX 24 28 1 -4
BITMAP
07FFF0
08000C
380002
780002
78FFC1
F88021
F88011
F88F11
F88F09
F88F09
F88F09
F88F11
F88011
F88031
F8FFC2
F88002
F88004
F88008
F88FF0
F88FC0
F88F80
F88C00
F80800
F80800
FFF000
FFE000
FF8000
7F0000
ENDCHAR
STARTCHAR q
ENCODING 113
SWIDTH 837 0
DWIDTH 27 0
BBX 25 31 1 -7
BITMAP
00FFF800
03000400
04000300
08174100
18603080
38800880
78800880
788F8880
F88F8880
F88F8880
F88F8880
F8978880
F8978880
F8978880
F8978880
F8978880
F8978880
F8978880
F88F0880
F8800880
F8603080
FC174100
FC020200
7F020400
7FE03800
3FE02000
1FE02000
07FFC000
03FF0000
03FE0000
01FC0000
ENDCHAR
STARTCHAR r
ENCODING 114
SWIDTH 843 0
DWIDTH 27 0
BBX 25 28 1 -4
BITMAP
07FFF800
08000400
38000200
78000200
78FFC200
F8802100
F8802100
F88F1100
F88F1100
F88F1200
F88F1200
F8802600
F8802100
F8FFF080
F8800880
F8800480
F8800480
F88FC480
F88FC480
F88FC480
F88FC480
F88FC480
F80FC080
F80FC080
FFF7FF80
FFE7FE00
FF87FC00
7F03F800
ENDCHAR
STARTCHAR s
ENCODING 115
SWIDTH 750 0
DWIDTH 24 0
BBX 23 28 1 -4
BITMAP
01FFF8
020004
040004
080004
107FC4
708004
708004
F10FF8
F10FE0
F100E0
F10018
F08004
F87C04
FC03C2
FE0022
FFE022
FFFE22
7FFE22
100022
100022
300042
F1FF84
F00008
F00010
FFFFE0
FFFFC0
FFFF00
FFFE00
ENDCHAR
STARTCHAR t
ENCODING 116
SWIDTH 756 0
DWIDTH 24 0
BBX 24 28 0 -4
BITMAP
0FFFFF
180001
380001
780001
F9FFF9
F80201
F80201
FFC23E
FFC23C
FFC238
FFC230
03C220
03C220
03C220
03C220
03C220
03C220
03C220
03C220
03C220
03C220
03C020
03C020
03C020
03FFC0
03FF00
03FE00
03FC00
ENDCHAR
STARTCHAR u
ENCODING 117
SWIDTH 846 0
DWIDTH 27 0
BBX 25 28 1 -4
BITMAP
0FF07F80
18088080
38098080
788B8880
F88F8880
F88F8880
F88F8880
F88F8880
F88F8880
F88F8880
F88F8880
F88F8880
F88F8880
F88F8880
F88F8880
F88F8880
F88F8880
F88F8880
F8800880
F8400880
F8603080
FC174100
7E000200
7F800C00
7FFFF000
3FFFE000
1FFFC000
03FE0000
ENDCHAR
STARTCHAR v
ENCODING 118
SWIDTH 830 0
DWIDTH 27 0
BBX 25 28 1 -4
BITMAP
0FF07F80
10088080
30098080
708B8880
F08F8880
F08F8880
F08F8880
F08F8880
F08F8880
F08F8880
F08F8880
F08F8880
F88F8880
F8870900
F8871100
FC471100
FC461200
7C222200
7E202200
7E204400
3F104400
3F0F8800
1F000800
1F800800
1FFFF000
0FFFC000
0FFF8000
07FF0000
ENDCHAR
STARTCHAR w
ENCODING 119
SWIDTH 931 0
DWIDTH 30 0
BBX 28 28 1 -4
BITMAP
0FF00FF0
18101010
38103010
78907110
F890F110
F890F110
F890F110
F890F110
F893F110
F8943110
F8881110
F8881110
F8881110
F8918910
F8824110
F8842110
F8842110
F8881110
F8899120
FC918920
FC518A20
7C23C440
7E03C040
7E03C040
3FFFFF80
3FF7FE00
3FE3FC00
1FC3F800
ENDCHAR
STARTCHAR x
ENCODING 120
SWIDTH 837 0
DWIDTH 27 0
BBX 25 28 1 -4
BITMAP
0FF07F80
18108080
38118080
78138080
F8978880
F88F8880
F8870880
F8471100
FC421100
FC202200
FE104200
7F104400
3F0F8800
3F104400
1E104200
0C202100
18421100
18870880
388F8880
788F8880
788F8880
F80F8080
F8178080
F8178080
FFE7FF00
FFC7FE00
FF87FC00
FF07F000
ENDCHAR
STARTCHAR y
ENCODING 121
SWIDTH 805 0
DWIDTH 26 0
BBX 24 28 1 -4
BITMAP
0FF0FF
101181
301381
711789
F11F89
F11F89
F11F89
F11F89
F10F09
F08F11
F08611
F84021
FC2042
FC2044
FE1084
7F0F08
7F8410
3F8420
1FC420
0FC440
0FC440
07C040
03C040
03C040
03FF80
03FF00
03FE00
03FC00
ENDCHAR
STARTCHAR z
ENCODING 122
SWIDTH 760 0
DWIDTH 24 0
BBX 23 28 1 -4
BITMAP
0FFFFC
080004
380004
780004
F8FFC4
F80024
F80024
FFF844
FFF084
FFE108
7FC210
018220
010440
030840
061080
0C1100
182200
1043FC
308002
708002
F10002
F0FFE2
F00002
F00002
FFFFFC
FFFFF8
FFFFE0
FFFFC0
ENDCHAR
STARTCHAR braceleft
ENCODING 123
SWIDTH 555 0
DWIDTH 18 0
BBX 17 33 0 -6
BITMAP
003700
00C080
010080
021480
062080
0E2080
1C2080
3C2300
3C2200
3C2400
3C2400
3C2400
38C400
308400
311800
710400
F88400
F86400
FC2400
FC2400
FC2400
7C2400
3C2100
3C2080
3E2080
3E3080
3E0480
3F0080
3FC080
1FFF00
1FFE00
0FFC00
03F800
ENDCHAR
STARTCHAR bar
ENCODING 124
SWIDTH 447 0
DWIDTH 14 0
BBX 12 34 1 -6
BITMAP
07E0
0810
1810
3810
7890
F890
F890
F890
F890
F890
F890
F890
F890
F890
F890
F890
F890
F890
F890
F890
F890
F890
F890
F890
F890
F890
F890
F810
F810
F810
FFE0
FFC0
FF80
7E00
ENDCHAR
STARTCHAR braceright
ENCODING 125
SWIDTH 555 0
DWIDTH 18 0
BBX 17 33 1 -6
BITMAP
0FE000
101800
300400
710400
F06200
F02200
F02200
FE2200
FE2200
FE2200
FE2200
1E2300
1E1080
1E0880
1F8880
1FC880
1E0880
1E1080
0E2300
1E2200
1E2200
1E2200
1E2200
102200
102200
706200
F18400
F00800
F01000
FFE000
FFC000
FF8000
FC0000
ENDCHAR
STARTCHAR asciitilde
ENCODING 126
SWIDTH 834 0
DWIDTH 27 0
BBX 24 11 1 5
BITMAP
01FC02
0603FD
080001
18FE01
3801F9
780001
F86001
FFFFFE
FFFFF8
FFFFF0
707FC0
ENDCHAR
STARTCHAR uni00A0
ENCODING 160
SWIDTH 325 0
DWIDTH 10 0
BBX 1 1 0 0
BITMAP
00
ENDCHAR
STARTCHAR exclamdown
ENCODING 161
SWIDTH 523 0
DWIDTH 17 0
BBX 13 28 2 -4
BITMAP
0FF8
1008
3008
7008
F088
F008
F008
FFF0
FFF0
F808
F808
3808
7888
F888
F888
F888
F888
F888
F888
F088
F088
F008
F008
F008
FFF0
FFE0
FFC0
FF80
ENDCHAR
STARTCHAR cent
ENCODING 162
SWIDTH 728 0
DWIDTH 23 0
BBX 22 31 1 -5
BITMAP
001F80
002040
006040
00E038
030204
040204
082FC4
184004
388004
788004
788FF8
F88FE0
F88FC0
F88F80
F89000
F89000
F88800
F887F8
F88004
F88004
F84004
F83FC4
FC0204
7E0204
7FE038
3FE030
1FE020
0FFFC0
03FF00
03FE00
01FC00
ENDCHAR
STARTCHAR sterling
ENCODING 163
SWIDTH 795 0
DWIDTH 25 0
BBX 25 28 0 -4
BITMAP
007FF800
00800400
01000400
02000400
0C1FC400
1C200400
3C400400
3C43F800
3C47E000
7C47C000
78408000
70410000
71F90000
F0413F00
F0414080
F841C080
FC47C880
FC47C880
FC400880
7C400880
7C400880
7C7FF880
7C000080
7C000080
7FFFFF00
7FFFFE00
7FFFFC00
3FFFF000
ENDCHAR
STARTCHAR currency
ENCODING 164
SWIDTH 921 0
DWIDTH 29 0
BBX 28 28 1 -4
BITMAP
03800380
04400440
082FF820
10100010
38800110
7845A220
FC381C40
FE200880
FF200480
7F27C480
3F27C480
1F27C480
1F27C480
1F27C480
1F27C480
1F23C480
1E200880
1C381C40
1845A220
18800110
30000010
781FF820
FC3FFC40
FE7FFE80
FFFFFF00
7E007E00
3C003C00
10001000
ENDCHAR
STARTCHAR yen
ENCODING 165
SWIDTH 803 0
DWIDTH 26 0
BBX 24 28 1 -4
BITMAP
0FF07F
101081
301181
711789
F11F89
F11F89
F11F89
F11F89
F08F11
F88711
FC4622
FC2044
FE2044
7F1088
7F8F1C
3C0402
1C0402
1C7FE2
7C0402
7C0402
7FC43C
7FC030
7FC020
3FC040
03FF80
03FF00
03FE00
03F800
ENDCHAR
STARTCHAR brokenbar
ENCODING 166
SWIDTH 447 0
DWIDTH 14 0
BBX 12 34 1 -6
BITMAP
07E0
0810
1810
3810
7890
F890
F890
F890
F890
F890
F890
F810
F810
F810
FFE0
FFC0
FFE0
7810
1810
3810
7890
F890
F890
F890
F890
F890
F890
F810
F810
F810
FFE0
FFC0
FF80
7E00
ENDCHAR
STARTCHAR section
ENCODING 167
SWIDTH 750 0
DWIDTH 24 0
BBX 23 28 1 -4
BITMAP
01FFF8
020004
040004
083FC4
18C004
308004
710FF8
F11FE0
F10010
F0FF88
F10044
F10024
F91E12
F88E12
F84012
FC3FE2
FE0012
FFFE12
7FFE12
380022
180064
38FF84
780008
F80010
FFFFE0
FFFF80
FFFF00
FFFC00
ENDCHAR
STARTCHAR dieresis
ENCODING 168
SWIDTH 600 0
DWIDTH 19 0
BBX 19 11 0 20
BITMAP
0FC7C0
102820
301020
711120
F11120
F01020
F01820
FFFFC0
FFFF80
FFFF00
FEFE00
ENDCHAR
STARTCHAR copyright
ENCODING 169
SWIDTH 967 0
DWIDTH 31 0
BBX 29 34 1 -6
BITMAP
001FFC00
00E00380
011FFC60
02E00390
050FF850
1A7FFF28
3AFFFFA8
7AF003A8
7B1003A8
FB23F3A8
FAC403A8
FAC8FFA8
FAC8FFA8
FAC8F7A8
FAC8C7A8
FAC907A8
FAC907A8
FAC907A8
FAC8FFA8
FAC803A8
FAE403A8
FAE3F3A8
FAF003A8
FAFE03A8
FAFFFFA8
FA7FF728
FD1FF8D0
FEE00320
7F19FC40
7FE00380
3FFFFE00
1FFFFC00
07FFF800
00FF8000
ENDCHAR
STARTCHAR ordfeminine
ENCODING 170
SWIDTH 620 0
DWIDTH 20 0
BBX 19 28 0 -4
BITMAP
01FF80
020080
060040
0E3840
1C4240
1C4220
3C9920
389920
3918A0
7924A0
7900A0
79FFA0
F900A0
F900A0
F93CA0
F83C20
F83C20
F83C20
FFFFC0
FFFFE0
780020
39FFA0
780020
F80020
FFFFE0
FFFFC0
FFFF00
7FFE00
ENDCHAR
STARTCHAR guillemotleft
ENCODING 171
SWIDTH 912 0
DWIDTH 29 0
BBX 27 20 1 0
BITMAP
00060040
003903A0
01C11C20
06016020
08198120
18E10E20
31011020
71071040
F13F1380
F11F1180
F1011060
F1811820
F8718720
FC018020
FE01E020
FFC1FC20
FFFDFFE0
7FFFFFC0
1FF9FF00
01F03E00
ENDCHAR
STARTCHAR logicalnot
ENCODING 172
SWIDTH 834 0
DWIDTH 27 0
BBX 24 18 1 -2
BITMAP
07FFFE
080001
180001
78FFF9
780009
F80009
FFFFC9
FFFFC9
FFFFC9
7FFFC9
0007C9
0007C1
0007C1
0007C1
0007FF
0007FC
0007F8
0007F0
ENDCHAR
STARTCHAR uni00AD
ENCODING 173
SWIDTH 520 0
DWIDTH 17 0
BBX 15 11 1 4
BITMAP
0FFE
1002
3002
71F2
F002
F002
F002
FFFC
FFF8
FFF0
FFE0
ENDCHAR
STARTCHAR registered
ENCODING 174
SWIDTH 660 0
DWIDTH 21 0
BBX 19 20 1 4
BITMAP
01FF00
06FEC0
0DFF60
1F03E0
3779E0
7755E0
F755E0
F747E0
F77CE0
F742E0
F75AE0
F75AE0
F718E0
FDFFE0
FBFEA0
FC3D40
FFFF80
7FFE00
7FFC00
1FF800
ENDCHAR
STARTCHAR macron
ENCODING 175
SWIDTH 600 0
DWIDTH 19 0
BBX 18 10 1 20
BITMAP
0FFF80
100040
300040
71FC40
F00040
F00040
FFFF80
FFFE00
FFFC00
FFF800
ENDCHAR
STARTCHAR degree
ENCODING 176
SWIDTH 583 0
DWIDTH 19 0
BBX 17 17 1 7
BITMAP
03FE00
0C0100
11F880
320480
720280
F27280
F27280
F27280
F27280
F22280
F20480
F1F880
F80100
FF8E00
FFFC00
7FF000
3FE000
ENDCHAR
STARTCHAR plusminus
ENCODING 177
SWIDTH 834 0
DWIDTH 27 0
BBX 24 28 1 -4
BITMAP
001FC0
002040
006040
00E040
01E240
01E240
01E240
07E23E
080201
180201
38FFF9
780201
F80201
FC0201
FFE23E
FFE23C
FFE238
7FE030
07E03E
080001
180001
78FFF9
780001
F80001
FFFFFF
FFFFFC
FFFFF8
7FFFF0
ENDCHAR
STARTCHAR twosuperior
ENCODING 178
SWIDTH 585 0
DWIDTH 19 0
BBX 17 21 1 3
BITMAP
0FFE00
180100
39F080
780480
F80480
FFE480
FFC480
FE0C80
787080
118100
320600
723800
F27F00
F20080
F3FC80
F00080
F00080
FFFF00
FFFE00
FFFC00
FFF000
ENDCHAR
STARTCHAR threesuperior
ENCODING 179
SWIDTH 584 0
DWIDTH 19 0
BBX 17 21 1 3
BITMAP
0FFC00
100200
33F100
F00900
F00900
FFC900
FFC900
FC0B00
0CF080
3C0480
3C0280
3FF280
3FF280
300280
33FC80
700080
F00100
FFFE00
FFF800
FFF000
FFC000
ENDCHAR
STARTCHAR acute
ENCODING 180
SWIDTH 600 0
DWIDTH 19 0
BBX 18 11 1 20
BITMAP
01FFC0
0E0040
100040
31FC40
F00040
F00180
F1FF00
FFFE00
FFFC00
FFC000
C00000
ENDCHAR
STARTCHAR mu
ENCODING 181
SWIDTH 813 0
DWIDTH 26 0
BBX 24 25 1 -6
BITMAP
07E07E
080981
180B81
788F89
F88F89
F88F89
F88F89
F88F89
F88F89
F88F89
F88F89
F88F89
F88F09
F88211
F88011
F8E021
F89FC2
F88004
F80018
F80FF0
F80FE0
F81F80
FFFE00
FFC000
FF0000
ENDCHAR
STARTCHAR paragraph
ENCODING 182
SWIDTH 782 0
DWIDTH 25 0
BBX 24 28 0 -4
BITMAP
00FFFF
030001
040001
080001
183FF1
38C009
788009
790009
F90009
F90009
F90009
F90009
F88009
F88009
F85FF1
FC0809
7E0809
7FC809
7FC889
3FC889
1FC889
07C081
07C081
07C081
07FFFE
07FFFC
07FFF0
03F7E0
ENDCHAR
STARTCHAR periodcentered
ENCODING 183
SWIDTH 464 0
DWIDTH 15 0
BBX 13 13 1 3
BITMAP
0FF0
1008
3008
7088
F088
F088
F008
F008
F008
FFF8
FFE0
FFC0
FF80
ENDCHAR
STARTCHAR cedilla
ENCODING 184
SWIDTH 600 0
DWIDTH 19 0
BBX 13 14 3 -8
BITMAP
0180
0270
0608
0C48
1C48
3C88
3890
3890
7010
7020
FFC0
FF80
FF00
FE00
ENDCHAR
STARTCHAR onesuperior
ENCODING 185
SWIDTH 557 0
DWIDTH 18 0
BBX 16 21 1 3
BITMAP
0FF8
1804
39C4
7824
F824
FF24
FF24
FF24
7F24
1F24
1F24
1F24
1F27
1021
33FD
7001
F001
FFFF
FFFC
FFF8
FFF0
ENDCHAR
STARTCHAR ordmasculine
ENCODING 186
SWIDTH 625 0
DWIDTH 20 0
BBX 20 28 0 -4
BITMAP
01FF80
020040
040020
087E10
388110
791C90
793C90
793C90
F93C90
F93C90
F93C90
F93C90
F93C90
F90090
F88110
F87E20
FC0020
7F00C0
7FFF00
7FFFE0
180010
19FF90
780010
780010
FFFFE0
FFFFC0
FFFF00
7FFE00
ENDCHAR
STARTCHAR guillemotright
ENCODING 187
SWIDTH 912 0
DWIDTH 29 0
BBX 27 20 1 0
BITMAP
0400C000
0BC13C00
183B0380
78070040
F9831820
F8610620
F8110120
FC09C120
FF89F920
FF89F120
78098120
18310320
39C11C20
78030020
F80F00C0
F87F0700
FBEF3E00
FFCFFC00
FF0FF000
F00F0000
ENDCHAR
STARTCHAR onequarter
ENCODING 188
SWIDTH 1303 0
DWIDTH 42 0
BBX 40 28 1 -4
BITMAP
0FF80FC000
1804102000
3804302000
79C4704000
F824F24000
F824E24000
FF24E24000
FF25E27E3E
FF25E24141
1F25E448C9
1F25E4C8C9
1F25C4C8C9
1F25C4C8C9
1F27C4C8C9
1020C8C8C9
33FCC8C809
700089C409
F00089C3F9
FFFF89E009
FFFF91F009
FFFF91FFC9
FFF791FFC9
000703FFC1
000F02FFC1
000FFC03FE
000FF003FC
000FE003F8
000FC003F0
ENDCHAR
STARTCHAR onehalf
ENCODING 189
SWIDTH 1260 0
DWIDTH 40 0
BBX 38 28 1 -4
BITMAP
0FF80FC000
1804102000
3804302000
79C4704000
F824F24000
F824E24000
FF24E24000
FF25E27FE0
FF25E4400C
1F25E44FE4
1F25E4C014
1F25C4C014
1F25C4FF94
1F27C4FF14
1020C8F824
33FCC8E3C4
F000894408
F00089C810
FFFF89C9E0
FFFF91C9FC
FFFF91C804
000781CFF4
000703C004
000F03C004
000FFFFFFC
000FFFFFF8
000FE7FFE0
000FC7FFC0
ENDCHAR
STARTCHAR threequarters
ENCODING 190
SWIDTH 1313 0
DWIDTH 42 0
BBX 40 28 1 -4
BITMAP
0FFC0FE000
1002102000
3001302000
73F1702000
F009F12000
FFC9F24000
FFC9F24000
FC09E25F1F
FC0BE26161
1CFCE264E5
3C026464E5
3FF26464E5
3FF244E4E5
300244E4E5
300244E4E5
33FC44E465
F000C8E405
F001C8E3F9
FFFF89E005
FFFF89F005
FFF789FFE5
FFC791FFE5
000781FFE1
000782FFE1
000FFC03FF
000FF803FC
000FF003F8
000FC003F0
ENDCHAR
STARTCHAR questiondown
ENCODING 191
SWIDTH 756 0
DWIDTH 24 0
BBX 23 28 1 -4
BITMAP
001FF0
003010
007010
00F010
01F110
01F010
01F010
01F010
01FFE0
018010
060010
080010
081F90
30E010
710010
F103E0
F11FC0
F10FFC
F10002
F08002
F08002
F87FE2
FC0002
FE0002
FFFFFC
7FFFF0
3FFFE0
1FFFC0
ENDCHAR
STARTCHAR Agrave
ENCODING 192
SWIDTH 830 0
DWIDTH 27 0
BBX 25 35 1 -4
BITMAP
01FF0000
0300F000
07000400
0F1FC400
1F000400
1F800400
1FFF8400
1FFFF800
1F800800
0F000800
03000800
071F8400
0E204400
0E202200
1C262200
1C472200
1C471100
388F1100
388F0900
78808880
71000880
71000880
F0FFF880
F1000880
F1000880
F11F8880
F11F8880
F11F8880
F01F8080
F0178080
F0178080
FFE7FF00
FFC7FE00
FF07F800
FE07F000
ENDCHAR
STARTCHAR Aacute
ENCODING 193
SWIDTH 830 0
DWIDTH 27 0
BBX 25 36 1 -4
BITMAP
00003800
003FC400
01C00400
0303C400
073C0400
0F000400
1F001800
1F1FE000
1FE01000
1F000800
1F000800
1F000400
061F8400
0E204400
0E202200
1C262200
1C472100
18471100
388F1100
388F0880
78808880
79000880
71000880
F0FFF880
F1000880
F1000880
F11F8880
F11F8880
F11F8880
F01F8080
F0178080
F0178080
FFE7FF00
FFC7FE00
FF07F800
FE07F000
ENDCHAR
STARTCHAR Acircumflex
ENCODING 194
SWIDTH 830 0
DWIDTH 27 0
BBX 25 36 1 -4
BITMAP
000F0000
0030E000
00C01800
010F0400
0330C400
07000400
0F020400
1F3FE400
1FFFF800
1F800800
1F000800
1F000800
071F8400
0E204400
0E202200
1C262200
1C472200
1C471100
388F1100
388F0900
78808880
71000880
71000880
F0FFF880
F1000880
F1000880
F11F8880
F11F8880
F11F8880
F01F8080
F0178080
F0178080
FFE7FF00
FFC7FE00
FF07F800
FE07F000
ENDCHAR
STARTCHAR Atilde
ENCODING 195
SWIDTH 830 0
DWIDTH 27 0
BBX 25 35 1 -4
BITMAP
007E1800
0181E400
03000400
071E0400
0F01C400
1F000400
1F380800
1FFFF000
1F800800
1F000800
1F000800
071F8400
0E204400
0E202200
1C262200
1C472200
1C471100
388F1100
388F0900
78808880
71000880
71000880
F0FFF880
F1000880
F1000880
F11F8880
F11F8880
F11F8880
F01F8080
F0178080
F0178080
FFE7FF00
FFC7FE00
FF07F800
FE07F000
ENDCHAR
STARTCHAR Adieresis
ENCODING 196
SWIDTH 830 0
DWIDTH 27 0
BBX 25 35 1 -4
BITMAP
01F9F800
02060400
06060400
0E262400
1E262400
3E060400
3E060400
3FFFF800
3F801000
3F000800
1F000800
071F8400
0E204400
0E202200
1C262200
1C472200
1C471100
388F1100
388F0900
78808880
71000880
71000880
F0FFF880
F1000880
F1000880
F11F8880
F11F8880
F11F8880
F01F8080
F0178080
F0178080
FFE7FF00
FFC7FE00
FF07F800
FE07F000
ENDCHAR
STARTCHAR Aring
ENCODING 197
SWIDTH 830 0
DWIDTH 27 0
BBX 25 36 1 -4
BITMAP
00374000
00403000
01800800
011F8400
06206400
0E272400
1E272400
1E272400
1F272400
1F202800
1F17C800
1F000400
1E1F8400
0E204400
0E202200
1C262200
1C472200
3C471100
388F1100
388F0900
78808880
71000880
71000880
F0FFF880
F1000880
F1000880
F11F8880
F11F8880
F11F8880
F01F8080
F0178080
F0178080
FFE7FF00
FFC7FE00
FF07F800
FE07F000
ENDCHAR
STARTCHAR AE
ENCODING 198
SWIDTH 1105 0
DWIDTH 35 0
BBX 34 28 1 -4
BITMAP
00FFFFFF80
0100000040
0300000040
0600000040
0E0FFFFC40
0E20080040
1C20080040
1C4788FF80
1C4788FE00
3847880200
388F880200
788F880200
788F8FF200
7100080200
F100080200
F0FFF8FC00
F10008F800
F10008FF80
F11F880040
F11F880040
F11F880040
F11F8FFC40
F01F800040
F01F800040
FFEFFFFF80
FFCFFFFE00
FF0FFFFC00
FE07FFF800
ENDCHAR
STARTCHAR Ccedilla
ENCODING 199
SWIDTH 728 0
DWIDTH 23 0
BBX 22 31 1 -7
BITMAP
00FFFC
030004
040004
083FC4
184004
388004
788FF8
F88FF0
F88FE0
F88F80
F89000
F89000
F89000
F89000
F89000
F89000
F88800
F887F8
F88004
F84004
F83FC4
FC0104
7F0204
7FE238
3FE070
1FC060
07C080
03FF00
03FE00
03FC00
03F000
ENDCHAR
STARTCHAR Egrave
ENCODING 200
SWIDTH 754 0
DWIDTH 24 0
BBX 22 36 1 -4
BITMAP
018000
063FC0
0C0070
1C7C10
3C0390
3C0010
3E0010
3FFF90
38006C
380004
180004
380004
78FFE4
F88004
F88004
F88FF8
F88FF0
F88020
F88010
F88010
F8FF90
F88010
F88010
F88FE0
F88FC0
F88FF8
F88004
F88004
F88004
F8FFE4
F80004
F80004
FFFFF8
FFFFF0
FFFFE0
7FFFC0
ENDCHAR
STARTCHAR Eacute
ENCODING 201
SWIDTH 754 0
DWIDTH 24 0
BBX 22 36 1 -4
BITMAP
000038
003FC8
01C008
0207C8
063808
1E0008
1E0010
1F3FE0
18C01C
180004
380004
780004
78FFE4
F88004
F88004
F88FF8
F88FF0
F88020
F88010
F88010
F8FF90
F88010
F88010
F88FE0
F88FC0
F88FF8
F88004
F88004
F88004
F8FFE4
F80004
F80004
FFFFF8
FFFFF0
FFFFE0
7FFFC0
ENDCHAR
STARTCHAR Ecircumflex
ENCODING 202
SWIDTH 754 0
DWIDTH 24 0
BBX 22 36 1 -4
BITMAP
000E00
0071C0
018030
021F08
0660C8
0E0008
1E1F08
3FFFF0
38000C
380004
380004
380004
78FFE4
F88004
F88004
F88FF8
F88FF0
F88020
F88010
F88010
F8FF90
F88010
F88010
F88FE0
F88FC0
F88FF8
F88004
F88004
F88004
F8FFE4
F80004
F80004
FFFFF8
FFFFF0
FFFFE0
7FFFC0
ENDCHAR
STARTCHAR Edieresis
ENCODING 203
SWIDTH 754 0
DWIDTH 24 0
BBX 22 35 1 -4
BITMAP
03F1F8
040A04
0C0604
1C4644
3C4644
3C0604
3C0608
3FFFFC
380004
380004
380004
78FFE4
F88004
F88004
F88FF8
F88FF0
F88020
F88010
F88010
F8FF90
F88010
F88010
F88FE0
F88FC0
F88FF8
F88004
F88004
F88004
F8FFE4
F80004
F80004
FFFFF8
FFFFF0
FFFFE0
7FFFC0
ENDCHAR
STARTCHAR Igrave
ENCODING 204
SWIDTH 705 0
DWIDTH 23 0
BBX 21 36 1 -4
BITMAP
038000
047F80
1C0060
3CF810
7C0710
7C0010
7E0010
7FFF20
7800D8
700008
100008
700008
F1FF88
F00808
F80808
FF88F0
FF88C0
FF8880
7F8880
0F8880
0F8880
0F8880
0F8880
0F8880
0F8880
0F88F0
100808
300808
700808
F1FF88
F00008
F00008
FFFFF0
FFFFE0
FFFF80
FFFF00
ENDCHAR
STARTCHAR Iacute
ENCODING 205
SWIDTH 705 0
DWIDTH 23 0
BBX 21 36 1 -4
BITMAP
0000E0
00FF10
070010
0C0F10
1CF010
3C0010
7C0060
7C7F80
7B8078
700008
700008
700008
71FF88
F00808
F80808
FF88F0
FF88C0
FF8880
7F8880
0F8880
0F8880
0F8880
0F8880
0F8880
0F8880
0F88F0
100808
300808
700808
F1FF88
F00008
F00008
FFFFF0
FFFFE0
FFFF80
FFFF00
ENDCHAR
STARTCHAR Icircumflex
ENCODING 206
SWIDTH 705 0
DWIDTH 23 0
BBX 21 36 1 -4
BITMAP
003C00
00C380
030060
043E10
0CC110
1C0010
3C3E10
7FFFE0
780018
700008
700008
700008
71FF88
F00808
F80808
FF88F0
FF88C0
FF8880
7F8880
0F8880
0F8880
0F8880
0F8880
0F8880
0F8880
0F88F0
100808
300808
700808
F1FF88
F00008
F00008
FFFFF0
FFFFE0
FFFF80
FFFF00
ENDCHAR
STARTCHAR Idieresis
ENCODING 207
SWIDTH 705 0
DWIDTH 23 0
BBX 21 35 1 -4
BITMAP
07E7E0
081810
181810
389890
789890
F81810
F81810
FFFFF0
F80008
F00008
700008
71FF88
F00808
F80808
FF88F0
FF88C0
FF8880
7F8880
0F8880
0F8880
0F8880
0F8880
0F8880
0F8880
0F88F0
100808
300808
700808
F1FF88
F00008
F00008
FFFFF0
FFFFE0
FFFF80
FFFF00
ENDCHAR
STARTCHAR Eth
ENCODING 208
SWIDTH 856 0
DWIDTH 27 0
BBX 26 28 0 -4
BITMAP
03FFFE00
04000100
0C000080
1C000040
3C3FF040
3C400C40
3C400440
3C47C240
3C47E240
3C47E240
3840E240
3040E240
71F8E240
F040E240
F040E240
F841E240
FC47E240
FC47E240
FC400240
7C400240
3C400C40
3C3FF040
3C000080
3C000300
3FFFFC00
3FFFF800
3FFFF000
3FFFC000
ENDCHAR
STARTCHAR Ntilde
ENCODING 209
SWIDTH 853 0
DWIDTH 27 0
BBX 25 35 1 -4
BITMAP
007F1800
0080E400
01000400
071E0400
0F01C400
0F000400
0F3C0800
08FFF780
081F8080
180F8080
38078080
78838480
F8C18480
F8A18480
F8908480
F8884480
F8840480
F8820480
F8810480
F8908480
F8884480
F88C4480
F88C2480
F88E1480
F88F0880
F88F8480
F88F8480
F88F8480
F80F8080
F80F8080
F80FC080
FFF7FF00
FFC7FE00
FF87FC00
7F07F000
ENDCHAR
STARTCHAR Ograve
ENCODING 210
SWIDTH 837 0
DWIDTH 27 0
BBX 25 36 1 -4
BITMAP
00C00000
013FC000
03003800
073C0400
0F03C400
1F000400
1F800400
1FFFCC00
1FC03000
0E000600
04000100
08174100
18603080
38800880
78820880
F88F8880
F88F8880
F88F8880
F88F8880
F8978880
F8978880
F8978880
F8978880
F8978880
F8978880
F88F8880
F8800880
F8800880
F8603080
FC174100
FE000200
7F800C00
7FFFF000
3FFFE000
1FFFC000
03FE0000
ENDCHAR
STARTCHAR Oacute
ENCODING 211
SWIDTH 837 0
DWIDTH 27 0
BBX 25 36 1 -4
BITMAP
00001800
001FE400
01E00400
0301C400
071E0400
0F000400
1F001800
1F1FE000
1FE01800
1E000600
1C000100
08174100
18603080
38800880
78820880
788F8880
F88F8880
F88F8880
F88F8880
F8978880
F8978880
F8978880
F8978880
F8978880
F8978880
F88F8880
F8800880
F8800880
F8603080
FC174100
FE000200
7F800C00
7FFFF000
3FFFE000
1FFFC000
03FE0000
ENDCHAR
STARTCHAR Ocircumflex
ENCODING 212
SWIDTH 837 0
DWIDTH 27 0
BBX 25 36 1 -4
BITMAP
000F0000
0030E000
00C01800
010F8400
03306400
0F000400
1F0F8400
1F7FF400
1FE03800
1E000600
1C000100
08174100
18603080
38800880
78820880
788F8880
F88F8880
F88F8880
F88F8880
F8978880
F8978880
F8978880
F8978880
F8978880
F8978880
F88F8880
F8800880
F8800880
F8603080
FC174100
FE000200
7F800C00
7FFFF000
3FFFE000
1FFFC000
03FE0000
ENDCHAR
STARTCHAR Otilde
ENCODING 213
SWIDTH 837 0
DWIDTH 27 0
BBX 25 35 1 -4
BITMAP
007E1800
0181E400
03000400
071E0400
0F01C400
1F000400
1F3C0800
1FFFF000
1F000C00
1C000200
08174100
18603080
38800880
78820880
788F8880
F88F8880
F88F8880
F88F8880
F8978880
F8978880
F8978880
F8978880
F8978880
F8978880
F88F8880
F8800880
F8800880
F8603080
FC174100
FE000200
7F800C00
7FFFF800
3FFFE000
1FFFC000
03FE0000
ENDCHAR
STARTCHAR Odieresis
ENCODING 214
SWIDTH 837 0
DWIDTH 27 0
BBX 25 35 1 -4
BITMAP
01F9F800
02060400
06222400
0E222400
1E020400
1E020400
1E060400
1FFFF800
1F800C00
1E000200
0C174100
18603080
38800880
78820880
788F8880
F88F8880
F88F8880
F88F8880
F8978880
F8978880
F8978880
F8978880
F8978880
F8978880
F88F8880
F8800880
F8800880
F8603080
FC174100
FE000200
7F800C00
7FFFF800
3FFFE000
1FFFC000
03FE0000
ENDCHAR
STARTCHAR multiply
ENCODING 215
SWIDTH 834 0
DWIDTH 27 0
BBX 23 22 2 -1
BITMAP
01C070
062088
081104
100A02
388442
7C4084
FE2108
FF1210
7F8C20
3F8C20
1F1210
0E2108
044084
088442
100E02
381F04
7C3F88
FE7FD0
FF9FE0
7E0FC0
3C0780
180300
ENDCHAR
STARTCHAR Oslash
ENCODING 216
SWIDTH 837 0
DWIDTH 27 0
BBX 25 32 1 -6
BITMAP
00007C00
00008100
00FF0200
03001200
04002100
0837A100
18405080
38804880
790E4880
791C8480
F91C8480
F9194480
F9194480
F91A4480
F912C480
F912C480
F914C480
F905C480
F909C480
F90B8480
F9100880
F8900880
F8503080
F82F4100
FC200200
7E000400
7C0FF800
3C0FE000
3FFFC000
3FFE0000
3F800000
7F000000
ENDCHAR
STARTCHAR Ugrave
ENCODING 217
SWIDTH 846 0
DWIDTH 27 0
BBX 25 36 1 -4
BITMAP
00C00000
011FE000
07001800
0F3E0400
1F01C400
1F000400
1F800400
1FFF8800
181FF780
180F8080
380F8080
788B8880
F88F8880
F88F8880
F88F8880
F88F8880
F88F8880
F88F8880
F88F8880
F88F8880
F88F8880
F88F8880
F88F8880
F88F8880
F88F8880
F88F8880
F8800880
F8400880
F8603080
FC174100
7E000200
7F800C00
7FFFF000
3FFFE000
1FFFC000
03FE0000
ENDCHAR
STARTCHAR Uacute
ENCODING 218
SWIDTH 846 0
DWIDTH 27 0
BBX 25 36 1 -4
BITMAP
00001800
001FE400
00E00400
0103E400
071C0400
0F000400
0F000800
0F07F000
08FFCF80
180F8080
38098080
788B8880
F88F8880
F88F8880
F88F8880
F88F8880
F88F8880
F88F8880
F88F8880
F88F8880
F88F8880
F88F8880
F88F8880
F88F8880
F88F8880
F88F8880
F8800880
F8400880
F8603080
FC174100
7E000200
7F800C00
7FFFF000
3FFFE000
1FFFC000
03FE0000
ENDCHAR
STARTCHAR Ucircumflex
ENCODING 219
SWIDTH 846 0
DWIDTH 27 0
BBX 25 36 1 -4
BITMAP
00078000
00387000
00C00800
010F8400
03306400
0F000400
0F0F8400
1FFFFC00
181FC380
180F8080
380B8080
788B8880
F88F8880
F88F8880
F88F8880
F88F8880
F88F8880
F88F8880
F88F8880
F88F8880
F88F8880
F88F8880
F88F8880
F88F8880
F88F8880
F8878880
F8800880
F8400880
F8603080
FC174100
7E000200
7F800C00
7FFFF000
3FFFE000
1FFFC000
03FE0000
ENDCHAR
STARTCHAR Udieresis
ENCODING 220
SWIDTH 846 0
DWIDTH 27 0
BBX 25 35 1 -4
BITMAP
01FCF800
02020200
06222200
0E222200
1E020200
1E020200
1E030400
1FFFFF80
180FC080
180F8080
380F8080
788B8880
F88F8880
F88F8880
F88F8880
F88F8880
F88F8880
F88F8880
F88F8880
F88F8880
F88F8880
F88F8880
F88F8880
F88F8880
F88F8880
F8800880
F8800880
F8601080
FC176100
7E000200
7F800C00
7FFFF000
3FFFE000
1FFFC000
03FE0000
ENDCHAR
STARTCHAR Yacute
ENCODING 221
SWIDTH 805 0
DWIDTH 26 0
BBX 24 36 1 -4
BITMAP
000038
003FC8
01C004
0303C4
073C04
0F0004
1F0018
1F0FE0
18FF9F
101F81
301381
711789
F11F89
F11F89
F11F89
F11F89
F10F09
F08F11
F08611
F84021
FC2042
FC2044
FE1084
7F0F08
7F8410
3F8420
1FC420
0FC440
0FC440
07C040
03C040
03C040
03FF80
03FF00
03FE00
03FC00
ENDCHAR
STARTCHAR Thorn
ENCODING 222
SWIDTH 792 0
DWIDTH 25 0
BBX 24 28 1 -4
BITMAP
07F000
080800
380800
780800
7887F8
F88004
F88002
F8FF42
F88021
F88011
F88F11
F88F11
F88F11
F88F11
F88F11
F88011
F88011
F88021
F8FF42
F88004
F88008
F80FF0
F80FC0
F80F80
FFFC00
FFE000
FF8000
7F0000
ENDCHAR
STARTCHAR germandbls
ENCODING 223
SWIDTH 859 0
DWIDTH 27 0
BBX 26 28 1 -4
BITMAP
07FFF800
08000400
38000200
78000200
787F8200
F8802200
F8802200
F88E2200
F88E2200
F88E2200
F88E4100
F88E4080
F88C7840
F88C0440
F88C0240
F88FE240
F88FE240
F88FE240
F88C0240
F88C0240
F88C0440
F88C7840
F80C0080
F80C0100
FFFFFE00
FFFFF800
FFBFF000
7F3FC000
ENDCHAR
STARTCHAR agrave
ENCODING 224
SWIDTH 830 0
DWIDTH 27 0
BBX 25 35 1 -4
BITMAP
01FF0000
0300F000
07000400
0F1FC400
1F000400
1F800400
1FFF8400
1FFFF800
1F800800
0F000800
03000800
071F8400
0E204400
0E202200
1C262200
1C472200
1C471100
388F1100
388F0900
78808880
71000880
71000880
F0FFF880
F1000880
F1000880
F11F8880
F11F8880
F11F8880
F01F8080
F0178080
F0178080
FFE7FF00
FFC7FE00
FF07F800
FE07F000
ENDCHAR
STARTCHAR aacute
ENCODING 225
SWIDTH 830 0
DWIDTH 27 0
BBX 25 36 1 -4
BITMAP
00003800
003FC400
01C00400
0303C400
073C0400
0F000400
1F001800
1F1FE000
1FE01000
1F000800
1F000800
1F000400
061F8400
0E204400
0E202200
1C262200
1C472100
18471100
388F1100
388F0880
78808880
79000880
71000880
F0FFF880
F1000880
F1000880
F11F8880
F11F8880
F11F8880
F01F8080
F0178080
F0178080
FFE7FF00
FFC7FE00
FF07F800
FE07F000
ENDCHAR
STARTCHAR acircumflex
ENCODING 226
SWIDTH 830 0
DWIDTH 27 0
BBX 25 36 1 -4
BITMAP
000F0000
0030E000
00C01800
010F0400
0330C400
07000400
0F020400
1F3FE400
1FFFF800
1F800800
1F000800
1F000800
071F8400
0E204400
0E202200
1C262200
1C472200
1C471100
388F1100
388F0900
78808880
71000880
71000880
F0FFF880
F1000880
F1000880
F11F8880
F11F8880
F11F8880
F01F8080
F0178080
F0178080
FFE7FF00
FFC7FE00
FF07F800
FE07F000
ENDCHAR
STARTCHAR atilde
ENCODING 227
SWIDTH 830 0
DWIDTH 27 0
BBX 25 35 1 -4
BITMAP
007E1800
0181E400
03000400
071E0400
0F01C400
1F000400
1F380800
1FFFF000
1F800800
1F000800
1F000800
071F8400
0E204400
0E202200
1C262200
1C472200
1C471100
388F1100
388F0900
78808880
71000880
71000880
F0FFF880
F1000880
F1000880
F11F8880
F11F8880
F11F8880
F01F8080
F0178080
F0178080
FFE7FF00
FFC7FE00
FF07F800
FE07F000
ENDCHAR
STARTCHAR adieresis
ENCODING 228
SWIDTH 830 0
DWIDTH 27 0
BBX 25 35 1 -4
BITMAP
01F9F800
02060400
06060400
0E262400
1E262400
3E060400
3E060400
3FFFF800
3F801000
3F000800
1F000800
071F8400
0E204400
0E202200
1C262200
1C472200
1C471100
388F1100
388F0900
78808880
71000880
71000880
F0FFF880
F1000880
F1000880
F11F8880
F11F8880
F11F8880
F01F8080
F0178080
F0178080
FFE7FF00
FFC7FE00
FF07F800
FE07F000
ENDCHAR
STARTCHAR aring
ENCODING 229
SWIDTH 830 0
DWIDTH 27 0
BBX 25 36 1 -4
BITMAP
00374000
00403000
01800800
011F8400
06206400
0E272400
1E272400
1E272400
1F272400
1F202800
1F17C800
1F000400
1E1F8400
0E204400
0E202200
1C262200
1C472200
3C471100
388F1100
388F0900
78808880
71000880
71000880
F0FFF880
F1000880
F1000880
F11F8880
F11F8880
F11F8880
F01F8080
F0178080
F0178080
FFE7FF00
FFC7FE00
FF07F800
FE07F000
ENDCHAR
STARTCHAR ae
ENCODING 230
SWIDTH 1105 0
DWIDTH 35 0
BBX 34 28 1 -4
BITMAP
00FFFFFF80
0100000040
0300000040
0600000040
0E0FFFFC40
0E20080040
1C20080040
1C4788FF80
1C4788FE00
3847880200
388F880200
788F880200
788F8FF200
7100080200
F100080200
F0FFF8FC00
F10008F800
F10008FF80
F11F880040
F11F880040
F11F880040
F11F8FFC40
F01F800040
F01F800040
FFEFFFFF80
FFCFFFFE00
FF0FFFFC00
FE07FFF800
ENDCHAR
STARTCHAR ccedilla
ENCODING 231
SWIDTH 728 0
DWIDTH 23 0
BBX 22 31 1 -7
BITMAP
00FFFC
030004
040004
083FC4
184004
388004
788FF8
F88FF0
F88FE0
F88F80
F89000
F89000
F89000
F89000
F89000
F89000
F88800
F887F8
F88004
F84004
F83FC4
FC0104
7F0204
7FE238
3FE070
1FC060
07C080
03FF00
03FE00
03FC00
03F000
ENDCHAR
STARTCHAR egrave
ENCODING 232
SWIDTH 754 0
DWIDTH 24 0
BBX 22 36 1 -4
BITMAP
018000
063FC0
0C0070
1C7C10
3C0390
3C0010
3E0010
3FFF90
38006C
380004
180004
380004
78FFE4
F88004
F88004
F88FF8
F88FF0
F88020
F88010
F88010
F8FF90
F88010
F88010
F88FE0
F88FC0
F88FF8
F88004
F88004
F88004
F8FFE4
F80004
F80004
FFFFF8
FFFFF0
FFFFE0
7FFFC0
ENDCHAR
STARTCHAR eacute
ENCODING 233
SWIDTH 754 0
DWIDTH 24 0
BBX 22 36 1 -4
BITMAP
000038
003FC8
01C008
0207C8
063808
1E0008
1E0010
1F3FE0
18C01C
180004
380004
780004
78FFE4
F88004
F88004
F88FF8
F88FF0
F88020
F88010
F88010
F8FF90
F88010
F88010
F88FE0
F88FC0
F88FF8
F88004
F88004
F88004
F8FFE4
F80004
F80004
FFFFF8
FFFFF0
FFFFE0
7FFFC0
ENDCHAR
STARTCHAR ecircumflex
ENCODING 234
SWIDTH 754 0
DWIDTH 24 0
BBX 22 36 1 -4
BITMAP
000E00
0071C0
018030
021F08
0660C8
0E0008
1E1F08
3FFFF0
38000C
380004
380004
380004
78FFE4
F88004
F88004
F88FF8
F88FF0
F88020
F88010
F88010
F8FF90
F88010
F88010
F88FE0
F88FC0
F88FF8
F88004
F88004
F88004
F8FFE4
F80004
F80004
FFFFF8
FFFFF0
FFFFE0
7FFFC0
ENDCHAR
STARTCHAR edieresis
ENCODING 235
SWIDTH 754 0
DWIDTH 24 0
BBX 22 35 1 -4
BITMAP
03F1F8
040A04
0C0604
1C4644
3C4644
3C0604
3C0608
3FFFFC
380004
380004
380004
78FFE4
F88004
F88004
F88FF8
F88FF0
F88020
F88010
F88010
F8FF90
F88010
F88010
F88FE0
F88FC0
F88FF8
F88004
F88004
F88004
F8FFE4
F80004
F80004
FFFFF8
FFFFF0
FFFFE0
7FFFC0
ENDCHAR
STARTCHAR igrave
ENCODING 236
SWIDTH 705 0
DWIDTH 23 0
BBX 21 36 1 -4
BITMAP
038000
047F80
1C0060
3CF810
7C0710
7C0010
7E0010
7FFF20
7800D8
700008
100008
700008
F1FF88
F00808
F80808
FF88F0
FF88C0
FF8880
7F8880
0F8880
0F8880
0F8880
0F8880
0F8880
0F8880
0F88F0
100808
300808
700808
F1FF88
F00008
F00008
FFFFF0
FFFFE0
FFFF80
FFFF00
ENDCHAR
STARTCHAR iacute
ENCODING 237
SWIDTH 705 0
DWIDTH 23 0
BBX 21 36 1 -4
BITMAP
0000E0
00FF10
070010
0C0F10
1CF010
3C0010
7C0060
7C7F80
7B8078
700008
700008
700008
71FF88
F00808
F80808
FF88F0
FF88C0
FF8880
7F8880
0F8880
0F8880
0F8880
0F8880
0F8880
0F8880
0F88F0
100808
300808
700808
F1FF88
F00008
F00008
FFFFF0
FFFFE0
FFFF80
FFFF00
ENDCHAR
STARTCHAR icircumflex
ENCODING 238
SWIDTH 705 0
DWIDTH 23 0
BBX 21 36 1 -4
BITMAP
003C00
00C380
030060
043E10
0CC110
1C0010
3C3E10
7FFFE0
780018
700008
700008
700008
71FF88
F00808
F80808
FF88F0
FF88C0
FF8880
7F8880
0F8880
0F8880
0F8880
0F8880
0F8880
0F8880
0F88F0
100808
300808
700808
F1FF88
F00008
F00008
FFFFF0
FFFFE0
FFFF80
FFFF00
ENDCHAR
STARTCHAR idieresis
ENCODING 239
SWIDTH 705 0
DWIDTH 23 0
BBX 21 35 1 -4
BITMAP
07E7E0
081810
181810
389890
789890
F81810
F81810
FFFFF0
F80008
F00008
700008
71FF88
F00808
F80808
FF88F0
FF88C0
FF8880
7F8880
0F8880
0F8880
0F8880
0F8880
0F8880
0F8880
0F88F0
100808
300808
700808
F1FF88
F00008
F00008
FFFFF0
FFFFE0
FFFF80
FFFF00
ENDCHAR
STARTCHAR eth
ENCODING 240
SWIDTH 856 0
DWIDTH 27 0
BBX 26 28 0 -4
BITMAP
03FFFE00
04000100
0C000080
1C000040
3C3FF040
3C400C40
3C400440
3C47C240
3C47E240
3C47E240
3840E240
3040E240
71F8E240
F040E240
F040E240
F841E240
FC47E240
FC47E240
FC400240
7C400240
3C400C40
3C3FF040
3C000080
3C000300
3FFFFC00
3FFFF800
3FFFF000
3FFFC000
ENDCHAR
STARTCHAR ntilde
ENCODING 241
SWIDTH 853 0
DWIDTH 27 0
BBX 25 35 1 -4
BITMAP
007F1800
0080E400
01000400
071E0400
0F01C400
0F000400
0F3C0800
08FFF780
081F8080
180F8080
38078080
78838480
F8C18480
F8A18480
F8908480
F8884480
F8840480
F8820480
F8810480
F8908480
F8884480
F88C4480
F88C2480
F88E1480
F88F0880
F88F8480
F88F8480
F88F8480
F80F8080
F80F8080
F80FC080
FFF7FF00
FFC7FE00
FF87FC00
7F07F000
ENDCHAR
STARTCHAR ograve
ENCODING 242
SWIDTH 837 0
DWIDTH 27 0
BBX 25 36 1 -4
BITMAP
00C00000
013FC000
03003800
073C0400
0F03C400
1F000400
1F800400
1FFFCC00
1FC03000
0E000600
04000100
08174100
18603080
38800880
78820880
F88F8880
F88F8880
F88F8880
F88F8880
F8978880
F8978880
F8978880
F8978880
F8978880
F8978880
F88F8880
F8800880
F8800880
F8603080
FC174100
FE000200
7F800C00
7FFFF000
3FFFE000
1FFFC000
03FE0000
ENDCHAR
STARTCHAR oacute
ENCODING 243
SWIDTH 837 0
DWIDTH 27 0
BBX 25 36 1 -4
BITMAP
00001800
001FE400
01E00400
0301C400
071E0400
0F000400
1F001800
1F1FE000
1FE01800
1E000600
1C000100
08174100
18603080
38800880
78820880
788F8880
F88F8880
F88F8880
F88F8880
F8978880
F8978880
F8978880
F8978880
F8978880
F8978880
F88F8880
F8800880
F8800880
F8603080
FC174100
FE000200
7F800C00
7FFFF000
3FFFE000
1FFFC000
03FE0000
ENDCHAR
STARTCHAR ocircumflex
ENCODING 244
SWIDTH 837 0
DWIDTH 27 0
BBX 25 36 1 -4
BITMAP
000F0000
0030E000
00C01800
010F8400
03306400
0F000400
1F0F8400
1F7FF400
1FE03800
1E000600
1C000100
08174100
18603080
38800880
78820880
788F8880
F88F8880
F88F8880
F88F8880
F8978880
F8978880
F8978880
F8978880
F8978880
F8978880
F88F8880
F8800880
F8800880
F8603080
FC174100
FE000200
7F800C00
7FFFF000
3FFFE000
1FFFC000
03FE0000
ENDCHAR
STARTCHAR otilde
ENCODING 245
SWIDTH 837 0
DWIDTH 27 0
BBX 25 35 1 -4
BITMAP
007E1800
0181E400
03000400
071E0400
0F01C400
1F000400
1F3C0800
1FFFF000
1F000C00
1C000200
08174100
18603080
38800880
78820880
788F8880
F88F8880
F88F8880
F88F8880
F8978880
F8978880
F8978880
F8978880
F8978880
F8978880
F88F8880
F8800880
F8800880
F8603080
FC174100
FE000200
7F800C00
7FFFF800
3FFFE000
1FFFC000
03FE0000
ENDCHAR
STARTCHAR odieresis
ENCODING 246
SWIDTH 837 0
DWIDTH 27 0
BBX 25 35 1 -4
BITMAP
01F9F800
02060400
06222400
0E222400
1E020400
1E020400
1E060400
1FFFF800
1F800C00
1E000200
0C174100
18603080
38800880
78820880
788F8880
F88F8880
F88F8880
F88F8880
F8978880
F8978880
F8978880
F8978880
F8978880
F8978880
F88F8880
F8800880
F8800880
F8603080
FC174100
FE000200
7F800C00
7FFFF800
3FFFE000
1FFFC000
03FE0000
ENDCHAR
STARTCHAR divide
ENCODING 247
SWIDTH 834 0
DWIDTH 27 0
BBX 24 25 1 -2
BITMAP
001F80
002020
006020
00E220
01E020
03E020
03E020
03FFC0
07FFFE
080001
18FFF9
780001
F80001
F80001
FFFFFE
FFE038
7FE030
01E220
03E020
03E020
03E020
03FFC0
03FF00
03FE00
01FC00
ENDCHAR
STARTCHAR oslash
ENCODING 248
SWIDTH 837 0
DWIDTH 27 0
BBX 25 32 1 -6
BITMAP
00007C00
00008100
00FF0200
03001200
04002100
0837A100
18405080
38804880
790E4880
791C8480
F91C8480
F9194480
F9194480
F91A4480
F912C480
F912C480
F914C480
F905C480
F909C480
F90B8480
F9100880
F8900880
F8503080
F82F4100
FC200200
7E000400
7C0FF800
3C0FE000
3FFFC000
3FFE0000
3F800000
7F000000
ENDCHAR
STARTCHAR ugrave
ENCODING 249
SWIDTH 846 0
DWIDTH 27 0
BBX 25 36 1 -4
BITMAP
00C00000
011FE000
07001800
0F3E0400
1F01C400
1F000400
1F800400
1FFF8800
181FF780
180F8080
380F8080
788B8880
F88F8880
F88F8880
F88F8880
F88F8880
F88F8880
F88F8880
F88F8880
F88F8880
F88F8880
F88F8880
F88F8880
F88F8880
F88F8880
F88F8880
F8800880
F8400880
F8603080
FC174100
7E000200
7F800C00
7FFFF000
3FFFE000
1FFFC000
03FE0000
ENDCHAR
STARTCHAR uacute
ENCODING 250
SWIDTH 846 0
DWIDTH 27 0
BBX 25 36 1 -4
BITMAP
00001800
001FE400
00E00400
0103E400
071C0400
0F000400
0F000800
0F07F000
08FFCF80
180F8080
38098080
788B8880
F88F8880
F88F8880
F88F8880
F88F8880
F88F8880
F88F8880
F88F8880
F88F8880
F88F8880
F88F8880
F88F8880
F88F8880
F88F8880
F88F8880
F8800880
F8400880
F8603080
FC174100
7E000200
7F800C00
7FFFF000
3FFFE000
1FFFC000
03FE0000
ENDCHAR
STARTCHAR ucircumflex
ENCODING 251
SWIDTH 846 0
DWIDTH 27 0
BBX 25 36 1 -4
BITMAP
00078000
00387000
00C00800
010F8400
03306400
0F000400
0F0F8400
1FFFFC00
181FC380
180F8080
380B8080
788B8880
F88F8880
F88F8880
F88F8880
F88F8880
F88F8880
F88F8880
F88F8880
F88F8880
F88F8880
F88F8880
F88F8880
F88F8880
F88F8880
F8878880
F8800880
F8400880
F8603080
FC174100
7E000200
7F800C00
7FFFF000
3FFFE000
1FFFC000
03FE0000
ENDCHAR
STARTCHAR udieresis
ENCODING 252
SWIDTH 846 0
DWIDTH 27 0
BBX 25 35 1 -4
BITMAP
01FCF800
02020200
06222200
0E222200
1E020200
1E020200
1E030400
1FFFFF80
180FC080
180F8080
380F8080
788B8880
F88F8880
F88F8880
F88F8880
F88F8880
F88F8880
F88F8880
F88F8880
F88F8880
F88F8880
F88F8880
F88F8880
F88F8880
F88F8880
F8800880
F8800880
F8601080
FC176100
7E000200
7F800C00
7FFFF000
3FFFE000
1FFFC000
03FE0000
ENDCHAR
STARTCHAR yacute
ENCODING 253
SWIDTH 805 0
DWIDTH 26 0
BBX 24 36 1 -4
BITMAP
000038
003FC8
01C004
0303C4
073C04
0F0004
1F0018
1F0FE0
18FF9F
101F81
301381
711789
F11F89
F11F89
F11F89
F11F89
F10F09
F08F11
F08611
F84021
FC2042
FC2044
FE1084
7F0F08
7F8410
3F8420
1FC420
0FC440
0FC440
07C040
03C040
03C040
03FF80
03FF00
03FE00
03FC00
ENDCHAR
STARTCHAR thorn
ENCODING 254
SWIDTH 792 0
DWIDTH 25 0
BBX 24 28 1 -4
BITMAP
07F000
080800
380800
780800
7887F8
F88004
F88002
F8FF42
F88021
F88011
F88F11
F88F11
F88F11
F88F11
F88F11
F88011
F88011
F88021
F8FF42
F88004
F88008
F80FF0
F80FC0
F80F80
FFFC00
FFE000
FF8000
7F0000
ENDCHAR
STARTCHAR ydieresis
ENCODING 255
SWIDTH 805 0
DWIDTH 26 0
BBX 24 35 1 -4
BITMAP
01F1F8
040604
0C0604
1C4624
3C4624
3C0604
3E0608
3FFFFF
381F81
301F81
701F81
F11789
F11F89
F11F89
F11F89
F11F89
F10F09
F08611
F84621
F84042
FC2044
FE1084
7F0F08
7F0410
3F8420
1FC420
0FC440
0FC440
07C040
03C040
03C040
03FF80
03FF00
03FE00
03FC00
ENDCHAR
STARTCHAR Amacron
ENCODING 256
SWIDTH 830 0
DWIDTH 27 0
BBX 25 34 1 -4
BITMAP
00FFF000
01000400
03000400
0F1FC400
1F000400
1F000400
1FFFF800
1F801000
1F000800
1F000800
071F8400
0E204400
0E202200
1C262200
1C472200
1C471100
388F1100
388F0900
78808880
71000880
71000880
F0FFF880
F1000880
F1000880
F11F8880
F11F8880
F11F8880
F01F8080
F0178080
F0178080
FFE7FF00
FFC7FE00
FF07F800
FE07F000
ENDCHAR
STARTCHAR amacron
ENCODING 257
SWIDTH 830 0
DWIDTH 27 0
BBX 25 34 1 -4
BITMAP
00FFF000
01000400
03000400
0F1FC400
1F000400
1F000400
1FFFF800
1F801000
1F000800
1F000800
071F8400
0E204400
0E202200
1C262200
1C472200
1C471100
388F1100
388F0900
78808880
71000880
71000880
F0FFF880
F1000880
F1000880
F11F8880
F11F8880
F11F8880
F01F8080
F0178080
F0178080
FFE7FF00
FFC7FE00
FF07F800
FE07F000
ENDCHAR
STARTCHAR Abreve
ENCODING 258
SWIDTH 830 0
DWIDTH 27 0
BBX 25 36 1 -4
BITMAP
00F0F800
01090400
060B0400
0E242400
1F202400
1F1FC800
1F801800
1FC02000
1FFFF000
1F800800
0F000800
03000400
071F8400
0E204400
0E202200
1C262200
1C472200
1C471100
388F1100
388F0900
78808880
71000880
71000880
F0FFF880
F1000880
F1000880
F11F8880
F11F8880
F11F8880
F01F8080
F0178080
F0178080
FFE7FF00
FFC7FE00
FF07F800
FE07F000
ENDCHAR
STARTCHAR abreve
ENCODING 259
SWIDTH 830 0
DWIDTH 27 0
BBX 25 36 1 -4
BITMAP
00F0F800
01090400
060B0400
0E242400
1F202400
1F1FC800
1F801800
1FC02000
1FFFF000
1F800800
0F000800
03000400
071F8400
0E204400
0E202200
1C262200
1C472200
1C471100
388F1100
388F0900
78808880
71000880
71000880
F0FFF880
F1000880
F1000880
F11F8880
F11F8880
F11F8880
F01F8080
F0178080
F0178080
FFE7FF00
FFC7FE00
FF07F800
FE07F000
ENDCHAR
STARTCHAR Aogonek
ENCODING 260
SWIDTH 830 0
DWIDTH 27 0
BBX 25 34 1 -10
BITMAP
007FF000
00800800
01000800
03000400
061F8400
0E204400
0E202200
1C262200
1C472100
18471100
388F1100
388F0880
78808880
79000880
71000880
F0FFF880
F1000880
F1000880
F11F8880
F11F8880
F11F8880
F01F9080
F0179080
F0179080
FFE79300
FFC79300
FF071080
FE0F1880
000F8080
000F8080
000FFF00
000FFE00
000FFC00
0003F000
ENDCHAR
STARTCHAR aogonek
ENCODING 261
SWIDTH 830 0
DWIDTH 27 0
BBX 25 34 1 -10
BITMAP
007FF000
00800800
01000800
03000400
061F8400
0E204400
0E202200
1C262200
1C472100
18471100
388F1100
388F0880
78808880
79000880
71000880
F0FFF880
F1000880
F1000880
F11F8880
F11F8880
F11F8880
F01F9080
F0179080
F0179080
FFE79300
FFC79300
FF071080
FE0F1880
000F8080
000F8080
000FFF00
000FFE00
000FFC00
0003F000
ENDCHAR
STARTCHAR Cacute
ENCODING 262
SWIDTH 728 0
DWIDTH 23 0
BBX 22 36 1 -4
BITMAP
000038
003FC4
01C004
0303C4
071C04
0F0004
0F0018
0F1FE0
0FE01C
0E0004
0C0004
080004
083FC4
184004
388004
7887F8
788FF0
F88FC0
F88F80
F89000
F89000
F89000
F89000
F89000
F88800
F887F8
F88004
F88004
F84004
FC3FC4
FC0004
7F0004
7FFFF8
3FFFF0
1FFFC0
07FF80
ENDCHAR
STARTCHAR cacute
ENCODING 263
SWIDTH 728 0
DWIDTH 23 0
BBX 22 36 1 -4
BITMAP
000038
003FC4
01C004
0303C4
071C04
0F0004
0F0018
0F1FE0
0FE01C
0E0004
0C0004
080004
083FC4
184004
388004
7887F8
788FF0
F88FC0
F88F80
F89000
F89000
F89000
F89000
F89000
F88800
F887F8
F88004
F88004
F84004
FC3FC4
FC0004
7F0004
7FFFF8
3FFFF0
1FFFC0
07FF80
ENDCHAR
STARTCHAR Ccircumflex
ENCODING 264
SWIDTH 728 0
DWIDTH 23 0
BBX 22 36 1 -4
BITMAP
000F00
0070E0
018010
021F08
0620C8
0E0008
1E1F08
1FFFF0
1FE00C
1E0004
1C0004
180004
083FC4
184004
388004
7887F8
F88FF0
F88FC0
F88F80
F89000
F89000
F89000
F89000
F89000
F88800
F887F8
F88004
F88004
F84004
FC3FC4
FC0004
7F0004
7FFFF8
3FFFF0
1FFFC0
07FF80
ENDCHAR
STARTCHAR ccircumflex
ENCODING 265
SWIDTH 728 0
DWIDTH 23 0
BBX 22 36 1 -4
BITMAP
000F00
0070E0
018010
021F08
0620C8
0E0008
1E1F08
1FFFF0
1FE00C
1E0004
1C0004
180004
083FC4
184004
388004
7887F8
F88FF0
F88FC0
F88F80
F89000
F89000
F89000
F89000
F89000
F88800
F887F8
F88004
F88004
F84004
FC3FC4
FC0004
7F0004
7FFFF8
3FFFF0
1FFFC0
07FF80
ENDCHAR
STARTCHAR Cdotaccent
ENCODING 266
SWIDTH 728 0
DWIDTH 23 0
BBX 22 35 1 -4
BITMAP
001F80
006040
00C040
01C240
03C240
03C040
03E040
03FFBC
020004
040004
040004
083FC4
184004
388004
7887F8
F88FF0
F88FC0
F88F80
F89000
F89000
F89000
F89000
F89000
F88800
F887F8
F88004
F88004
F84004
FC3FC4
FC0004
7F0004
7FFFF8
3FFFF0
1FFFC0
07FF80
ENDCHAR
STARTCHAR cdotaccent
ENCODING 267
SWIDTH 728 0
DWIDTH 23 0
BBX 22 35 1 -4
BITMAP
001F80
006040
00C040
01C240
03C240
03C040
03E040
03FFBC
020004
040004
040004
083FC4
184004
388004
7887F8
F88FF0
F88FC0
F88F80
F89000
F89000
F89000
F89000
F89000
F88800
F887F8
F88004
F88004
F84004
FC3FC4
FC0004
7F0004
7FFFF8
3FFFF0
1FFFC0
07FF80
ENDCHAR
STARTCHAR Ccaron
ENCODING 268
SWIDTH 728 0
DWIDTH 23 0
BBX 22 36 1 -4
BITMAP
010010
02F0E8
060F08
0E0008
1E30C8
1E0F08
1F8030
1FF1C0
1FEE3C
1E0004
040004
040004
083FC4
184004
788004
7887F8
F88FF0
F88FC0
F88F80
F89000
F89000
F89000
F89000
F89000
F88800
F887F8
F88004
F88004
F84004
FC3FC4
FC0004
7F0004
7FFFF8
3FFFF0
1FFFC0
07FF80
ENDCHAR
STARTCHAR ccaron
ENCODING 269
SWIDTH 728 0
DWIDTH 23 0
BBX 22 36 1 -4
BITMAP
010010
02F0E8
060F08
0E0008
1E30C8
1E0F08
1F8030
1FF1C0
1FEE3C
1E0004
040004
040004
083FC4
184004
788004
7887F8
F88FF0
F88FC0
F88F80
F89000
F89000
F89000
F89000
F89000
F88800
F887F8
F88004
F88004
F84004
FC3FC4
FC0004
7F0004
7FFFF8
3FFFF0
1FFFC0
07FF80
ENDCHAR
STARTCHAR Dcaron
ENCODING 270
SWIDTH 846 0
DWIDTH 27 0
BBX 25 36 1 -4
BITMAP
00800800
01787400
03078400
0F000400
1F184400
1F078400
1FC01800
1FFCE000
08031C00
08000200
18000100
78000080
78FFA080
F8801080
F8800880
F88F0880
F88F8480
F88F8480
F88F8480
F88F8480
F88F8480
F88F8480
F88F8480
F88F8480
F88F8480
F88F0480
F8800880
F8800880
F8801080
F8FFA100
F8000200
F8000400
FFFFF800
FFFFF000
FFFFE000
7FFF0000
ENDCHAR
STARTCHAR dcaron
ENCODING 271
SWIDTH 846 0
DWIDTH 27 0
BBX 25 36 1 -4
BITMAP
00800800
01787400
03078400
0F000400
1F184400
1F078400
1FC01800
1FFCE000
08031C00
08000200
18000100
78000080
78FFA080
F8801080
F8800880
F88F0880
F88F8480
F88F8480
F88F8480
F88F8480
F88F8480
F88F8480
F88F8480
F88F8480
F88F8480
F88F0480
F8800880
F8800880
F8801080
F8FFA100
F8000200
F8000400
FFFFF800
FFFFF000
FFFFE000
7FFF0000
ENDCHAR
STARTCHAR Dcroat
ENCODING 272
SWIDTH 856 0
DWIDTH 27 0
BBX 26 28 0 -4
BITMAP
03FFFE00
04000100
0C000080
1C000040
3C3FF040
3C400C40
3C400440
3C47C240
3C47E240
3C47E240
3840E240
3040E240
71F8E240
F040E240
F040E240
F841E240
FC47E240
FC47E240
FC400240
7C400240
3C400C40
3C3FF040
3C000080
3C000300
3FFFFC00
3FFFF800
3FFFF000
3FFFC000
ENDCHAR
STARTCHAR dcroat
ENCODING 273
SWIDTH 856 0
DWIDTH 27 0
BBX 26 28 0 -4
BITMAP
03FFFE00
04000100
0C000080
1C000040
3C3FF040
3C400C40
3C400440
3C47C240
3C47E240
3C47E240
3840E240
3040E240
71F8E240
F040E240
F040E240
F841E240
FC47E240
FC47E240
FC400240
7C400240
3C400C40
3C3FF040
3C000080
3C000300
3FFFFC00
3FFFF800
3FFFF000
3FFFC000
ENDCHAR
STARTCHAR Emacron
ENCODING 274
SWIDTH 754 0
DWIDTH 24 0
BBX 22 34 1 -4
BITMAP
01FFF0
020008
060008
1E3F88
3E0008
3E0010
39FFEC
380004
380004
380004
78FFE4
F88004
F88004
F88FF8
F88FF0
F88020
F88010
F88010
F8FF90
F88010
F88010
F88FE0
F88FC0
F88FF8
F88004
F88004
F88004
F8FFE4
F80004
F80004
FFFFF8
FFFFF0
FFFFE0
7FFFC0
ENDCHAR
STARTCHAR emacron
ENCODING 275
SWIDTH 754 0
DWIDTH 24 0
BBX 22 34 1 -4
BITMAP
01FFF0
020008
060008
1E3F88
3E0008
3E0010
39FFEC
380004
380004
380004
78FFE4
F88004
F88004
F88FF8
F88FF0
F88020
F88010
F88010
F8FF90
F88010
F88010
F88FE0
F88FC0
F88FF8
F88004
F88004
F88004
F8FFE4
F80004
F80004
FFFFF8
FFFFF0
FFFFE0
7FFFC0
ENDCHAR
STARTCHAR Ebreve
ENCODING 276
SWIDTH 754 0
DWIDTH 24 0
BBX 22 36 1 -4
BITMAP
01F0F0
020908
060F08
0E4028
1E6048
3E1F88
3F0010
3FC060
183FBC
180004
180004
380004
78FFE4
F88004
F88004
F88FF8
F88FF0
F88020
F88010
F88010
F8FF90
F88010
F88010
F88FE0
F88FC0
F88FF8
F88004
F88004
F88004
F8FFE4
F80004
F80004
FFFFF8
FFFFF0
FFFFE0
7FFFC0
ENDCHAR
STARTCHAR ebreve
ENCODING 277
SWIDTH 754 0
DWIDTH 24 0
BBX 22 36 1 -4
BITMAP
01F0F0
020908
060F08
0E4028
1E6048
3E1F88
3F0010
3FC060
183FBC
180004
180004
380004
78FFE4
F88004
F88004
F88FF8
F88FF0
F88020
F88010
F88010
F8FF90
F88010
F88010
F88FE0
F88FC0
F88FF8
F88004
F88004
F88004
F8FFE4
F80004
F80004
FFFFF8
FFFFF0
FFFFE0
7FFFC0
ENDCHAR
STARTCHAR Edotaccent
ENCODING 278
SWIDTH 754 0
DWIDTH 24 0
BBX 22 35 1 -4
BITMAP
003F80
008080
018080
038480
078480
078080
07C080
043F7C
080004
380004
780004
F8FFE4
F88004
F88004
F88FF8
F88FF0
F88020
F88010
F88010
F8FF90
F88010
F88010
F88FE0
F88FC0
F88FF8
F88004
F88004
F88004
F8FFE4
F80004
F80004
FFFFF8
FFFFF0
FFFFE0
7FFFC0
ENDCHAR
STARTCHAR edotaccent
ENCODING 279
SWIDTH 754 0
DWIDTH 24 0
BBX 22 35 1 -4
BITMAP
003F80
008080
018080
038480
078480
078080
07C080
043F7C
080004
380004
780004
F8FFE4
F88004
F88004
F88FF8
F88FF0
F88020
F88010
F88010
F8FF90
F88010
F88010
F88FE0
F88FC0
F88FF8
F88004
F88004
F88004
F8FFE4
F80004
F80004
FFFFF8
FFFFF0
FFFFE0
7FFFC0
ENDCHAR
STARTCHAR Eogonek
ENCODING 280
SWIDTH 754 0
DWIDTH 24 0
BBX 22 34 1 -10
BITMAP
07FFFC
080004
380004
780004
78FFE4
F88004
F88004
F88FF8
F88FF0
F88020
F88010
F88010
F8FF90
F88010
F88010
F88FE0
F88FC0
F88FF8
F88004
F88004
F88004
F8FFE4
F80044
F80044
FFFC4C
FFFC88
FFFC84
7FFC64
003C04
003E04
003FFC
003FF0
003FE0
001FC0
ENDCHAR
STARTCHAR eogonek
ENCODING 281
SWIDTH 754 0
DWIDTH 24 0
BBX 22 34 1 -10
BITMAP
07FFFC
080004
380004
780004
78FFE4
F88004
F88004
F88FF8
F88FF0
F88020
F88010
F88010
F8FF90
F88010
F88010
F88FE0
F88FC0
F88FF8
F88004
F88004
F88004
F8FFE4
F80044
F80044
FFFC4C
FFFC88
FFFC84
7FFC64
003C04
003E04
003FFC
003FF0
003FE0
001FC0
ENDCHAR
STARTCHAR Ecaron
ENCODING 282
SWIDTH 754 0
DWIDTH 24 0
BBX 22 36 1 -4
BITMAP
010010
02F0E8
060F08
1E0008
1E30C8
1E0F08
1F8030
1FF1C0
180E3C
180004
180004
380004
78FFE4
F88004
F88004
F88FF8
F88FF0
F88020
F88010
F88010
F8FF90
F88010
F88010
F88FE0
F88FC0
F88FF8
F88004
F88004
F88004
F8FFE4
F80004
F80004
FFFFF8
FFFFF0
FFFFE0
7FFFC0
ENDCHAR
STARTCHAR ecaron
ENCODING 283
SWIDTH 754 0
DWIDTH 24 0
BBX 22 36 1 -4
BITMAP
010010
02F0E8
060F08
1E0008
1E30C8
1E0F08
1F8030
1FF1C0
180E3C
180004
180004
380004
78FFE4
F88004
F88004
F88FF8
F88FF0
F88020
F88010
F88010
F8FF90
F88010
F88010
F88FE0
F88FC0
F88FF8
F88004
F88004
F88004
F8FFE4
F80004
F80004
FFFFF8
FFFFF0
FFFFE0
7FFFC0
ENDCHAR
STARTCHAR Gcircumflex
ENCODING 284
SWIDTH 808 0
DWIDTH 26 0
BBX 24 36 1 -4
BITMAP
000780
003860
00C018
010784
031864
070004
0F0304
0F1FE4
0FFFF8
0F8004
0E0004
0C0004
082FE4
184004
388004
7887F8
788FF0
F88FE0
F88FC0
F8907E
F89181
F89301
F89701
F88F11
F88F11
F88F11
F88011
F88011
F84011
FC2FF1
FC0001
7F0001
7FFFFE
3FFFFC
1FFFF8
07FFF0
ENDCHAR
STARTCHAR gcircumflex
ENCODING 285
SWIDTH 808 0
DWIDTH 26 0
BBX 24 36 1 -4
BITMAP
000780
003860
00C018
010784
031864
070004
0F0304
0F1FE4
0FFFF8
0F8004
0E0004
0C0004
082FE4
184004
388004
7887F8
788FF0
F88FE0
F88FC0
F8907E
F89181
F89301
F89701
F88F11
F88F11
F88F11
F88011
F88011
F84011
FC2FF1
FC0001
7F0001
7FFFFE
3FFFFC
1FFFF8
07FFF0
ENDCHAR
STARTCHAR Gbreve
ENCODING 286
SWIDTH 808 0
DWIDTH 26 0
BBX 24 36 1 -4
BITMAP
00F078
010984
030784
0F2014
1F2024
1F17C4
1F8008
1FE030
1FFFDC
0E0004
040004
040004
082FE4
184004
388004
7887F8
F88FF0
F88FE0
F88F80
F8907E
F89181
F89301
F89701
F88F11
F88F11
F88F11
F88011
F88011
F84011
FC2FF1
FC0001
7F0001
7FFFFE
3FFFFC
1FFFF8
07FFF0
ENDCHAR
STARTCHAR gbreve
ENCODING 287
SWIDTH 808 0
DWIDTH 26 0
BBX 24 36 1 -4
BITMAP
00F078
010984
030784
0F2014
1F2024
1F17C4
1F8008
1FE030
1FFFDC
0E0004
040004
040004
082FE4
184004
388004
7887F8
F88FF0
F88FE0
F88F80
F8907E
F89181
F89301
F89701
F88F11
F88F11
F88F11
F88011
F88011
F84011
FC2FF1
FC0001
7F0001
7FFFFE
3FFFFC
1FFFF8
07FFF0
ENDCHAR
STARTCHAR Gdotaccent
ENCODING 288
SWIDTH 808 0
DWIDTH 26 0
BBX 24 35 1 -4
BITMAP
001FC0
002020
006020
01E220
01E220
01E020
01E040
01FFBC
020004
040004
080004
182FE4
384004
788004
7887F8
F88FF0
F88FE0
F88F80
F8907E
F89181
F89301
F89701
F88F11
F88F11
F88F11
F88011
F88011
F84011
FC2FF1
FC0001
7F0001
7FFFFE
3FFFFC
1FFFF8
07FFF0
ENDCHAR
STARTCHAR gdotaccent
ENCODING 289
SWIDTH 808 0
DWIDTH 26 0
BBX 24 35 1 -4
BITMAP
001FC0
002020
006020
01E220
01E220
01E020
01E040
01FFBC
020004
040004
080004
182FE4
384004
788004
7887F8
F88FF0
F88FE0
F88F80
F8907E
F89181
F89301
F89701
F88F11
F88F11
F88F11
F88011
F88011
F84011
FC2FF1
FC0001
7F0001
7FFFFE
3FFFFC
1FFFF8
07FFF0
ENDCHAR
STARTCHAR Gcommaaccent
ENCODING 290
SWIDTH 808 0
DWIDTH 26 0
BBX 24 39 1 -15
BITMAP
00FFFC
030004
040004
080004
182FE4
384004
788004
7887F8
F88FF0
F88FE0
F88F80
F8907E
F89181
F89301
F89701
F88F11
F88F11
F88F11
F88011
F88011
F84011
FC2FF1
FE0001
7F8001
7FFFFE
3FE03C
1FE038
07E030
00E7A0
01E0A0
03E0A0
03E0A0
03FEA0
03E120
01E640
00E080
01FF00
01FC00
01F800
ENDCHAR
STARTCHAR gcommaaccent
ENCODING 291
SWIDTH 808 0
DWIDTH 26 0
BBX 24 39 1 -15
BITMAP
00FFFC
030004
040004
080004
182FE4
384004
788004
7887F8
F88FF0
F88FE0
F88F80
F8907E
F89181
F89301
F89701
F88F11
F88F11
F88F11
F88011
F88011
F84011
FC2FF1
FE0001
7F8001
7FFFFE
3FE03C
1FE038
07E030
00E7A0
01E0A0
03E0A0
03E0A0
03FEA0
03E120
01E640
00E080
01FF00
01FC00
01F800
ENDCHAR
STARTCHAR Hcircumflex
ENCODING 292
SWIDTH 859 0
DWIDTH 27 0
BBX 25 36 1 -4
BITMAP
00078000
00387000
00C00800
01078400
03186400
07000400
0F0F8400
0F7FF800
080FC780
080FC080
180FC080
3809C080
788FC480
F88FC480
F88FC480
F88FC480
F88FC480
F8800480
F8800480
F8800480
F8FFF880
F8800480
F8800480
F8800480
F88FC480
F88FC480
F88FC480
F88FC480
F88FC480
F80FC080
F80FC080
F80FC080
FFF7FF00
FFE7FE00
FF87FC00
7F07F800
ENDCHAR
STARTCHAR hcircumflex
ENCODING 293
SWIDTH 859 0
DWIDTH 27 0
BBX 25 36 1 -4
BITMAP
00078000
00387000
00C00800
01078400
03186400
07000400
0F0F8400
0F7FF800
080FC780
080FC080
180FC080
3809C080
788FC480
F88FC480
F88FC480
F88FC480
F88FC480
F8800480
F8800480
F8800480
F8FFF880
F8800480
F8800480
F8800480
F88FC480
F88FC480
F88FC480
F88FC480
F88FC480
F80FC080
F80FC080
F80FC080
FFF7FF00
FFE7FE00
FF87FC00
7F07F800
ENDCHAR
STARTCHAR Hbar
ENCODING 294
SWIDTH 879 0
DWIDTH 28 0
BBX 28 28 0 -4
BITMAP
03FC1FC0
04042020
0C046020
1C04E020
3C47E220
38400210
38400210
38FFFF90
F8400210
F8400210
FC47E220
FC47E220
FC47E220
FC400220
3C400220
3C400220
3C3FFE20
3C400220
3C400220
3C47E220
3C47E220
3C07E020
3C07E020
3C07E020
3FFBFFC0
3FF3FF00
3FC3FE00
3F81FC00
ENDCHAR
STARTCHAR hbar
ENCODING 295
SWIDTH 879 0
DWIDTH 28 0
BBX 28 28 0 -4
BITMAP
03FC1FC0
04042020
0C046020
1C04E020
3C47E220
38400210
38400210
38FFFF90
F8400210
F8400210
FC47E220
FC47E220
FC47E220
FC400220
3C400220
3C400220
3C3FFE20
3C400220
3C400220
3C47E220
3C47E220
3C07E020
3C07E020
3C07E020
3FFBFFC0
3FF3FF00
3FC3FE00
3F81FC00
ENDCHAR
STARTCHAR Itilde
ENCODING 296
SWIDTH 705 0
DWIDTH 23 0
BBX 21 35 1 -4
BITMAP
01F860
060790
0C0010
1CF810
3C0710
7C0020
7DF840
7A07B8
700008
700008
700008
71FF88
F00808
F80808
FF88F0
FF88C0
FF8880
7F8880
0F8880
0F8880
0F8880
0F8880
0F8880
0F8880
0F88F0
100808
300808
700808
F1FF88
F00008
F00008
FFFFF0
FFFFE0
FFFF80
FFFF00
ENDCHAR
STARTCHAR itilde
ENCODING 297
SWIDTH 705 0
DWIDTH 23 0
BBX 21 35 1 -4
BITMAP
01F860
060790
0C0010
1CF810
3C0710
7C0020
7DF840
7A07B8
700008
700008
700008
71FF88
F00808
F80808
FF88F0
FF88C0
FF8880
7F8880
0F8880
0F8880
0F8880
0F8880
0F8880
0F8880
0F88F0
100808
300808
700808
F1FF88
F00008
F00008
FFFFF0
FFFFE0
FFFF80
FFFF00
ENDCHAR
STARTCHAR Imacron
ENCODING 298
SWIDTH 705 0
DWIDTH 23 0
BBX 21 34 1 -4
BITMAP
03FFC0
040010
0C0010
3CFF10
7C0010
7C0020
7FFFF0
780008
700008
700008
71FF88
F00808
F80808
FF88F0
FF88C0
FF8880
7F8880
0F8880
0F8880
0F8880
0F8880
0F8880
0F8880
0F88F0
100808
300808
700808
F1FF88
F00008
F00008
FFFFF0
FFFFE0
FFFF80
FFFF00
ENDCHAR
STARTCHAR imacron
ENCODING 299
SWIDTH 705 0
DWIDTH 23 0
BBX 21 34 1 -4
BITMAP
03FFC0
040010
0C0010
3CFF10
7C0010
7C0020
7FFFF0
780008
700008
700008
71FF88
F00808
F80808
FF88F0
FF88C0
FF8880
7F8880
0F8880
0F8880
0F8880
0F8880
0F8880
0F8880
0F88F0
100808
300808
700808
F1FF88
F00008
F00008
FFFFF0
FFFFE0
FFFF80
FFFF00
ENDCHAR
STARTCHAR Ibreve
ENCODING 300
SWIDTH 705 0
DWIDTH 23 0
BBX 21 36 1 -4
BITMAP
03C3E0
082410
182C10
389090
7C8090
7C7F20
7E0060
7F8080
787F78
300008
100008
700008
F1FF88
F00808
F80808
FF88F0
FF88C0
FF8880
7F8880
0F8880
0F8880
0F8880
0F8880
0F8880
0F8880
0F88F0
100808
300808
700808
F1FF88
F00008
F00008
FFFFF0
FFFFE0
FFFF80
FFFF00
ENDCHAR
STARTCHAR ibreve
ENCODING 301
SWIDTH 705 0
DWIDTH 23 0
BBX 21 36 1 -4
BITMAP
03C3E0
082410
182C10
389090
7C8090
7C7F20
7E0060
7F8080
787F78
300008
100008
700008
F1FF88
F00808
F80808
FF88F0
FF88C0
FF8880
7F8880
0F8880
0F8880
0F8880
0F8880
0F8880
0F8880
0F88F0
100808
300808
700808
F1FF88
F00008
F00008
FFFFF0
FFFFE0
FFFF80
FFFF00
ENDCHAR
STARTCHAR Iogonek
ENCODING 302
SWIDTH 705 0
DWIDTH 23 0
BBX 21 34 1 -10
BITMAP
0FFFF8
100008
300008
700008
F1FF88
F00808
F80808
FF88F0
FF88C0
FF8880
7F8880
0F8880
0F8880
0F8880
0F8880
0F8880
0F8880
0F88F0
100808
300808
700808
F1FF88
F00108
F00108
FFF930
FFF930
FFF108
FFF188
00F808
00F808
00FFF0
00FFE0
00FFC0
007F00
ENDCHAR
STARTCHAR iogonek
ENCODING 303
SWIDTH 705 0
DWIDTH 23 0
BBX 21 34 1 -10
BITMAP
0FFFF8
100008
300008
700008
F1FF88
F00808
F80808
FF88F0
FF88C0
FF8880
7F8880
0F8880
0F8880
0F8880
0F8880
0F8880
0F8880
0F88F0
100808
300808
700808
F1FF88
F00108
F00108
FFF930
FFF930
FFF108
FFF188
00F808
00F808
00FFF0
00FFE0
00FFC0
007F00
ENDCHAR
STARTCHAR Idotaccent
ENCODING 304
SWIDTH 705 0
DWIDTH 23 0
BBX 21 35 1 -4
BITMAP
007F00
008080
038080
078880
0F8880
0F8080
0F8100
087EF8
100008
300008
700008
F1FF88
F00808
F80808
FF88F0
FF88C0
FF8880
7F8880
0F8880
0F8880
0F8880
0F8880
0F8880
0F8880
0F88F0
100808
300808
700808
F1FF88
F00008
F00008
FFFFF0
FFFFE0
FFFF80
FFFF00
ENDCHAR
STARTCHAR dotlessi
ENCODING 305
SWIDTH 705 0
DWIDTH 23 0
BBX 21 28 1 -4
BITMAP
0FFFF8
100008
300008
700008
F1FF88
F00808
F80808
FF88F0
FF88C0
FF8880
7F8880
0F8880
0F8880
0F8880
0F8880
0F8880
0F8880
0F88F0
100808
300808
700808
F1FF88
F00008
F00008
FFFFF0
FFFFE0
FFFF80
FFFF00
ENDCHAR
STARTCHAR IJ
ENCODING 306
SWIDTH 844 0
DWIDTH 27 0
BBX 25 28 1 -4
BITMAP
07F07F80
08088080
38098080
780B8080
F88F8880
F88F8880
F88F8880
F88F8880
F88F8880
F88F8880
F88F8880
F80F8880
F80F8880
F80F8880
FFFF8880
FFCF8880
FF8F8880
7FFF0880
08000880
18000880
38001100
78FFA100
F8000200
F8000400
FFFFF800
FFFFE000
FFFFC000
7FFF0000
ENDCHAR
STARTCHAR ij
ENCODING 307
SWIDTH 844 0
DWIDTH 27 0
BBX 25 28 1 -4
BITMAP
07F07F80
08088080
38098080
780B8080
F88F8880
F88F8880
F88F8880
F88F8880
F88F8880
F88F8880
F88F8880
F80F8880
F80F8880
F80F8880
FFFF8880
FFCF8880
FF8F8880
7FFF0880
08000880
18000880
38001100
78FFA100
F8000200
F8000400
FFFFF800
FFFFE000
FFFFC000
7FFF0000
ENDCHAR
STARTCHAR Jcircumflex
ENCODING 308
SWIDTH 788 0
DWIDTH 25 0
BBX 26 36 1 -4
BITMAP
00007800
00038700
000C0080
0010F840
00310640
00700040
00F0F840
00FFFFC0
00FFFF80
00FE0200
00F60200
008E0200
001E2200
001E2200
001E2200
001E2200
001E2200
001E2200
001E2200
0FFE2200
101E2200
301E2200
701E2200
F11E2200
F11E2200
F11E2200
F1002200
F1002200
F0C04200
F82E8400
FC000800
FF001000
FFFFE000
7FFFC000
3FFF0000
07FC0000
ENDCHAR
STARTCHAR jcircumflex
ENCODING 309
SWIDTH 788 0
DWIDTH 25 0
BBX 26 36 1 -4
BITMAP
00007800
00038700
000C0080
0010F840
00310640
00700040
00F0F840
00FFFFC0
00FFFF80
00FE0200
00F60200
008E0200
001E2200
001E2200
001E2200
001E2200
001E2200
001E2200
001E2200
0FFE2200
101E2200
301E2200
701E2200
F11E2200
F11E2200
F11E2200
F1002200
F1002200
F0C04200
F82E8400
FC000800
FF001000
FFFFE000
7FFFC000
3FFF0000
07FC0000
ENDCHAR
STARTCHAR Kcommaaccent
ENCODING 310
SWIDTH 846 0
DWIDTH 27 0
BBX 25 39 1 -15
BITMAP
07F07F80
08088080
38090100
780B0100
788F1200
F88E2200
F88E2200
F88C4400
F88C4400
F8884600
F8808100
F8808080
F8FFF080
F8800880
F8800880
F8800480
F88F8480
F88F8480
F88F8480
F88F8480
F88F8480
F80F8080
F80F8080
F80F8080
FFF7FF00
FFFFFE00
FFA03C00
7F603800
00E7A000
01E0A000
03E0A000
03E0A000
03FEA000
03E12000
03E64000
00E08000
01FF0000
01FC0000
01F80000
ENDCHAR
STARTCHAR kcommaaccent
ENCODING 311
SWIDTH 846 0
DWIDTH 27 0
BBX 25 39 1 -15
BITMAP
07F07F80
08088080
38090100
780B0100
788F1200
F88E2200
F88E2200
F88C4400
F88C4400
F8884600
F8808100
F8808080
F8FFF080
F8800880
F8800880
F8800480
F88F8480
F88F8480
F88F8480
F88F8480
F88F8480
F80F8080
F80F8080
F80F8080
FFF7FF00
FFFFFE00
FFA03C00
7F603800
00E7A000
01E0A000
03E0A000
03E0A000
03FEA000
03E12000
03E64000
00E08000
01FF0000
01FC0000
01F80000
ENDCHAR
STARTCHAR kgreenlandic
ENCODING 312
SWIDTH 846 0
DWIDTH 27 0
BBX 25 28 1 -4
BITMAP
07F07F80
08088080
38090100
780B0100
788F1200
F88E2200
F88E2200
F88C4400
F88C4400
F8884600
F8808100
F8808080
F8FFF080
F8800880
F8800880
F8800480
F88F8480
F88F8480
F88F8480
F88F8480
F88F8480
F80F8080
F80F8080
F80F8080
FFF7FF00
FFE7FE00
FF87FC00
7F07F800
ENDCHAR
STARTCHAR Lacute
ENCODING 313
SWIDTH 795 0
DWIDTH 25 0
BBX 24 35 1 -4
BITMAP
003FE0
07C020
080020
18FE20
380020
780040
F87F80
FFFF00
F80E00
F80800
780800
788800
F88800
F88800
F88800
F88800
F88800
F88800
F8887E
F88881
F88981
F88F81
F88F91
F88F91
F88F91
F88011
F88011
F88011
F8FFF1
F80001
F80001
FFFFFE
FFFFFC
FFFFF8
7FFFE0
ENDCHAR
STARTCHAR lacute
ENCODING 314
SWIDTH 795 0
DWIDTH 25 0
BBX 24 35 1 -4
BITMAP
003FE0
07C020
080020
18FE20
380020
780040
F87F80
FFFF00
F80E00
F80800
780800
788800
F88800
F88800
F88800
F88800
F88800
F88800
F8887E
F88881
F88981
F88F81
F88F91
F88F91
F88F91
F88011
F88011
F88011
F8FFF1
F80001
F80001
FFFFFE
FFFFFC
FFFFF8
7FFFE0
ENDCHAR
STARTCHAR Lcommaaccent
ENCODING 315
SWIDTH 795 0
DWIDTH 25 0
BBX 24 39 1 -15
BITMAP
07F000
080800
380800
788800
788800
F88800
F88800
F88800
F88800
F88800
F88800
F8887E
F88881
F88981
F88F81
F88F91
F88F91
F88F91
F88011
F88011
F88011
F8FFF1
F80001
F80001
FFFFFE
FFE03C
FFE038
7FE020
01EF20
03E0A0
03E0A0
03E0A0
03FF20
03E140
03EE40
01E080
01FF00
01FC00
01F800
ENDCHAR
STARTCHAR lcommaaccent
ENCODING 316
SWIDTH 795 0
DWIDTH 25 0
BBX 24 39 1 -15
BITMAP
07F000
080800
380800
788800
788800
F88800
F88800
F88800
F88800
F88800
F88800
F8887E
F88881
F88981
F88F81
F88F91
F88F91
F88F91
F88011
F88011
F88011
F8FFF1
F80001
F80001
FFFFFE
FFE03C
FFE038
7FE020
01EF20
03E0A0
03E0A0
03E0A0
03FF20
03E140
03EE40
01E080
01FF00
01FC00
01F800
ENDCHAR
STARTCHAR Lcaron
ENCODING 317
SWIDTH 795 0
DWIDTH 25 0
BBX 24 28 1 -4
BITMAP
07F0FF
080981
380B01
788F12
788F12
F88F12
F88F22
F88F02
F88E04
F88FFC
F88FF0
F88FFE
F88F81
F88F81
F88F81
F88F91
F88F91
F88F91
F88011
F88011
F88011
F8FFF1
F80001
F80001
FFFFFE
FFFFFC
FFFFF8
7FFFE0
ENDCHAR
STARTCHAR lcaron
ENCODING 318
SWIDTH 795 0
DWIDTH 25 0
BBX 24 28 1 -4
BITMAP
07F0FF
080981
380B01
788F12
788F12
F88F12
F88F22
F88F02
F88E04
F88FFC
F88FF0
F88FFE
F88F81
F88F81
F88F81
F88F91
F88F91
F88F91
F88011
F88011
F88011
F8FFF1
F80001
F80001
FFFFFE
FFFFFC
FFFFF8
7FFFE0
ENDCHAR
STARTCHAR Ldot
ENCODING 319
SWIDTH 795 0
DWIDTH 25 0
BBX 24 28 1 -4
BITMAP
07F000
080800
380800
780800
788800
F888FE
F88901
F88B01
F88F11
F88F11
F88F01
F88F01
F88FFE
F88FFC
F88FFE
F88F81
F88B81
F88F81
F88011
F88011
F88011
F8FFF1
F80001
F80001
FFFFFE
FFFFFC
FFFFF8
7FFFE0
ENDCHAR
STARTCHAR ldot
ENCODING 320
SWIDTH 795 0
DWIDTH 25 0
BBX 24 28 1 -4
BITMAP
07F000
080800
380800
780800
788800
F888FE
F88901
F88B01
F88F11
F88F11
F88F01
F88F01
F88FFE
F88FFC
F88FFE
F88F81
F88B81
F88F81
F88011
F88011
F88011
F8FFF1
F80001
F80001
FFFFFE
FFFFFC
FFFFF8
7FFFE0
ENDCHAR
STARTCHAR Lslash
ENCODING 321
SWIDTH 805 0
DWIDTH 26 0
BBX 25 28 0 -4
BITMAP
03FC0000
04040000
0C040000
1C440000
3C440000
3C440000
3C440000
3C478000
3C408000
38408000
304C8000
31F0BF00
7040C080
F041C080
F047C080
FC47C480
FC47C480
FC47C480
FC400480
3C400480
3C400480
3C3FF880
3C000080
3C000080
3FFFFF00
3FFFFE00
3FFFFC00
3FFFF800
ENDCHAR
STARTCHAR lslash
ENCODING 322
SWIDTH 805 0
DWIDTH 26 0
BBX 25 28 0 -4
BITMAP
03FC0000
04040000
0C040000
1C440000
3C440000
3C440000
3C440000
3C478000
3C408000
38408000
304C8000
31F0BF00
7040C080
F041C080
F047C080
FC47C480
FC47C480
FC47C480
FC400480
3C400480
3C400480
3C3FF880
3C000080
3C000080
3FFFFF00
3FFFFE00
3FFFFC00
3FFFF800
ENDCHAR
STARTCHAR Nacute
ENCODING 323
SWIDTH 853 0
DWIDTH 27 0
BBX 25 36 1 -4
BITMAP
00001C00
001FE400
00E00400
0103E400
071C0400
0F000400
0F000800
0F07F000
087FCF80
081F8080
180D8080
38058080
78838480
F8C18480
F8A18480
F8908480
F8884480
F8840480
F8820480
F8810480
F8908480
F8884480
F88C4480
F88C2480
F88E1480
F88F0880
F88F8480
F88F8480
F88F8480
F80F8080
F80F8080
F80FC080
FFF7FF00
FFC7FE00
FF87FC00
7F07F000
ENDCHAR
STARTCHAR nacute
ENCODING 324
SWIDTH 853 0
DWIDTH 27 0
BBX 25 36 1 -4
BITMAP
00001C00
001FE400
00E00400
0103E400
071C0400
0F000400
0F000800
0F07F000
087FCF80
081F8080
180D8080
38058080
78838480
F8C18480
F8A18480
F8908480
F8884480
F8840480
F8820480
F8810480
F8908480
F8884480
F88C4480
F88C2480
F88E1480
F88F0880
F88F8480
F88F8480
F88F8480
F80F8080
F80F8080
F80FC080
FFF7FF00
FFC7FE00
FF87FC00
7F07F000
ENDCHAR
STARTCHAR Ncommaaccent
ENCODING 325
SWIDTH 853 0
DWIDTH 27 0
BBX 25 39 1 -15
BITMAP
07E07F80
08108080
38098080
78058080
78838480
F8C18480
F8A18480
F8908480
F8884480
F8840480
F8820480
F8810480
F8908480
F8884480
F88C4480
F88C2480
F88E1480
F88F0880
F88F8480
F88F8480
F88F8480
F80F8080
F80F8080
F80FC080
FFF7FF00
FFDFFE00
FFA03C00
7F603000
00E7A000
01E0A000
01E0A000
01E0A000
01FEA000
01F0A000
01E74000
00E08000
01FF0000
01FE0000
01F80000
ENDCHAR
STARTCHAR ncommaaccent
ENCODING 326
SWIDTH 853 0
DWIDTH 27 0
BBX 25 39 1 -15
BITMAP
07E07F80
08108080
38098080
78058080
78838480
F8C18480
F8A18480
F8908480
F8884480
F8840480
F8820480
F8810480
F8908480
F8884480
F88C4480
F88C2480
F88E1480
F88F0880
F88F8480
F88F8480
F88F8480
F80F8080
F80F8080
F80FC080
FFF7FF00
FFDFFE00
FFA03C00
7F603000
00E7A000
01E0A000
01E0A000
01E0A000
01FEA000
01F0A000
01E74000
00E08000
01FF0000
01FE0000
01F80000
ENDCHAR
STARTCHAR Ncaron
ENCODING 327
SWIDTH 853 0
DWIDTH 27 0
BBX 25 36 1 -4
BITMAP
01C00800
03387400
07078400
0F000400
1F30C400
1F0F0400
1FC01800
1FF0E000
183FDF80
081F8080
180D8080
38058080
78838480
F8C18480
F8A18480
F8908480
F8884480
F8840480
F8820480
F8810480
F8908480
F8884480
F88C4480
F88C2480
F88E1480
F88F0880
F88F8480
F88F8480
F88F8480
F80F8080
F80F8080
F80FC080
FFF7FF00
FFC7FE00
FF87FC00
7F07F000
ENDCHAR
STARTCHAR ncaron
ENCODING 328
SWIDTH 853 0
DWIDTH 27 0
BBX 25 36 1 -4
BITMAP
01C00800
03387400
07078400
0F000400
1F30C400
1F0F0400
1FC01800
1FF0E000
183FDF80
081F8080
180D8080
38058080
78838480
F8C18480
F8A18480
F8908480
F8884480
F8840480
F8820480
F8810480
F8908480
F8884480
F88C4480
F88C2480
F88E1480
F88F0880
F88F8480
F88F8480
F88F8480
F80F8080
F80F8080
F80FC080
FFF7FF00
FFC7FE00
FF87FC00
7F07F000
ENDCHAR
STARTCHAR napostrophe
ENCODING 329
SWIDTH 853 0
DWIDTH 27 0
BBX 25 39 1 -4
BITMAP
07E00000
08080000
30080000
73C80000
F0480000
F0480000
F8480000
FF500000
F8500000
FB900000
78600000
7FE07F80
F810C080
F8098080
78098080
78878480
F8C38480
F8A18480
F8908480
F8884480
F8840480
F8820480
F8810480
F8908480
F8884480
F88C4480
F88C2480
F88E1480
F88F0880
F88F8480
F88F8480
F88F8480
F80F8080
F80F8080
F80FC080
FFF7FF00
FFC7FE00
FF87FC00
7F07F000
ENDCHAR
STARTCHAR Eng
ENCODING 330
SWIDTH 846 0
DWIDTH 27 0
BBX 25 31 1 -7
BITMAP
007FF800
01800600
02000100
04174100
18603080
38800880
78800880
788F8880
F88F8880
F88F8880
F88F8880
F88F8880
F88F8880
F88F8880
F88F8880
F88F8880
F88F8880
F88F8880
F88F8880
F88F8880
F88F8880
F80C0880
F80C0880
F80C5080
FFFC0100
FFFC0200
FFBC0400
7F3FF800
003FF000
003FC000
003F0000
ENDCHAR
STARTCHAR eng
ENCODING 331
SWIDTH 846 0
DWIDTH 27 0
BBX 25 31 1 -7
BITMAP
007FF800
01800600
02000100
04174100
18603080
38800880
78800880
788F8880
F88F8880
F88F8880
F88F8880
F88F8880
F88F8880
F88F8880
F88F8880
F88F8880
F88F8880
F88F8880
F88F8880
F88F8880
F88F8880
F80C0880
F80C0880
F80C5080
FFFC0100
FFFC0200
FFBC0400
7F3FF800
003FF000
003FC000
003F0000
ENDCHAR
STARTCHAR Omacron
ENCODING 332
SWIDTH 837 0
DWIDTH 27 0
BBX 25 35 1 -4
BITMAP
00FFF000
01000400
03000400
071FC400
0F000400
1F000400
1F000400
1FFFF800
1F800C00
1E000200
0C174100
18603080
38800880
78820880
788F8880
F88F8880
F88F8880
F88F8880
F8978880
F8978880
F8978880
F8978880
F8978880
F8978880
F88F8880
F8800880
F8800880
F8603080
FC174100
FE000200
7F800C00
7FFFF800
3FFFE000
1FFFC000
03FE0000
ENDCHAR
STARTCHAR omacron
ENCODING 333
SWIDTH 837 0
DWIDTH 27 0
BBX 25 35 1 -4
BITMAP
00FFF000
01000400
03000400
071FC400
0F000400
1F000400
1F000400
1FFFF800
1F800C00
1E000200
0C174100
18603080
38800880
78820880
788F8880
F88F8880
F88F8880
F88F8880
F8978880
F8978880
F8978880
F8978880
F8978880
F8978880
F88F8880
F8800880
F8800880
F8603080
FC174100
FE000200
7F800C00
7FFFF800
3FFFE000
1FFFC000
03FE0000
ENDCHAR
STARTCHAR Obreve
ENCODING 334
SWIDTH 837 0
DWIDTH 27 0
BBX 25 36 1 -4
BITMAP
00F0F800
01090400
070B0400
0F242400
1F202400
1F174400
1F800800
1FE03000
1FFFF000
0F000C00
04000200
08174100
18603080
38800880
78820880
788F8880
F88F8880
F88F8880
F88F8880
F8978880
F8978880
F8978880
F8978880
F8978880
F8978880
F88F8880
F8800880
F8800880
F8603080
FC174100
FE000200
7F800C00
7FFFF800
3FFFE000
1FFFC000
03FE0000
ENDCHAR
STARTCHAR obreve
ENCODING 335
SWIDTH 837 0
DWIDTH 27 0
BBX 25 36 1 -4
BITMAP
00F0F800
01090400
070B0400
0F242400
1F202400
1F174400
1F800800
1FE03000
1FFFF000
0F000C00
04000200
08174100
18603080
38800880
78820880
788F8880
F88F8880
F88F8880
F88F8880
F8978880
F8978880
F8978880
F8978880
F8978880
F8978880
F88F8880
F8800880
F8800880
F8603080
FC174100
FE000200
7F800C00
7FFFF800
3FFFE000
1FFFC000
03FE0000
ENDCHAR
STARTCHAR Ohungarumlaut
ENCODING 336
SWIDTH 837 0
DWIDTH 27 0
BBX 25 38 1 -4
BITMAP
007C3C00
00824100
01828100
03838200
07139200
07139200
0F231200
0F070400
0F070400
0E070400
1FFFF800
1F800C00
1E000200
0C174100
18603080
38800880
78820880
788F8880
F88F8880
F88F8880
F88F8880
F8978880
F8978880
F8978880
F8978880
F8978880
F8978880
F88F8880
F8800880
F8800880
F8603080
FC174100
FE000200
7F800C00
7FFFF800
3FFFE000
1FFFC000
03FE0000
ENDCHAR
STARTCHAR ohungarumlaut
ENCODING 337
SWIDTH 837 0
DWIDTH 27 0
BBX 25 38 1 -4
BITMAP
007C3C00
00824100
01828100
03838200
07139200
07139200
0F231200
0F070400
0F070400
0E070400
1FFFF800
1F800C00
1E000200
0C174100
18603080
38800880
78820880
788F8880
F88F8880
F88F8880
F88F8880
F8978880
F8978880
F8978880
F8978880
F8978880
F8978880
F88F8880
F8800880
F8800880
F8603080
FC174100
FE000200
7F800C00
7FFFF800
3FFFE000
1FFFC000
03FE0000
ENDCHAR
STARTCHAR OE
ENCODING 338
SWIDTH 1115 0
DWIDTH 36 0
BBX 34 28 1 -4
BITMAP
00FFFFFFC0
0300000040
0400000040
0800000040
182FFFFC40
3840080040
7880080040
788F88FF80
F88F88FF00
F88F880200
F88F880100
F88F880100
F88F8FF100
F88F880100
F88F880100
F88F88FE00
F88F88F800
F88788FF80
F880080040
F880080040
F840080040
FC2FFFFC40
FC00000040
7F00000040
7FFFFFFF80
3FFFFFFF00
1FFFFFFE00
07FFFFFC00
ENDCHAR
STARTCHAR oe
ENCODING 339
SWIDTH 1115 0
DWIDTH 36 0
BBX 34 28 1 -4
BITMAP
00FFFFFFC0
0300000040
0400000040
0800000040
182FFFFC40
3840080040
7880080040
788F88FF80
F88F88FF00
F88F880200
F88F880100
F88F880100
F88F8FF100
F88F880100
F88F880100
F88F88FE00
F88F88F800
F88788FF80
F880080040
F880080040
F840080040
FC2FFFFC40
FC00000040
7F00000040
7FFFFFFF80
3FFFFFFF00
1FFFFFFE00
07FFFFFC00
ENDCHAR
STARTCHAR Racute
ENCODING 340
SWIDTH 843 0
DWIDTH 27 0
BBX 25 35 1 -4
BITMAP
0007F800
00F80400
01000400
071FC400
0F200400
1F000800
1F0FF000
1FFFE000
18001800
18000400
38000200
78FFC200
F8802100
F8802100
F88F1100
F88F1100
F88F1200
F88F1200
F8802600
F8802100
F8FFF080
F8800880
F8800480
F8800480
F88FC480
F88FC480
F88FC480
F88FC480
F88FC480
F80FC080
F80FC080
FFF7FF80
FFE7FE00
FF87FC00
7F03F800
ENDCHAR
STARTCHAR racute
ENCODING 341
SWIDTH 843 0
DWIDTH 27 0
BBX 25 35 1 -4
BITMAP
0007F800
00F80400
01000400
071FC400
0F200400
1F000800
1F0FF000
1FFFE000
18001800
18000400
38000200
78FFC200
F8802100
F8802100
F88F1100
F88F1100
F88F1200
F88F1200
F8802600
F8802100
F8FFF080
F8800880
F8800480
F8800480
F88FC480
F88FC480
F88FC480
F88FC480
F88FC480
F80FC080
F80FC080
FFF7FF80
FFE7FE00
FF87FC00
7F03F800
ENDCHAR
STARTCHAR Rcommaaccent
ENCODING 342
SWIDTH 843 0
DWIDTH 27 0
BBX 25 39 1 -15
BITMAP
07FFF800
08000400
38000200
78000200
78FFC200
F8802100
F8802100
F88F1100
F88F1100
F88F1200
F88F1200
F8802600
F8802100
F8FFF080
F8800880
F8800480
F8800480
F88FC480
F88FC480
F88FC480
F88FC480
F88FC480
F80FC080
F80FC080
FFF7FF80
FFFFFE00
FFA01C00
7F601800
00E7A000
01E0A000
01E0A000
01E0A000
01FEA000
01F0A000
01F74000
00F08000
01FF0000
01FE0000
01F80000
ENDCHAR
STARTCHAR rcommaaccent
ENCODING 343
SWIDTH 843 0
DWIDTH 27 0
BBX 25 39 1 -15
BITMAP
07FFF800
08000400
38000200
78000200
78FFC200
F8802100
F8802100
F88F1100
F88F1100
F88F1200
F88F1200
F8802600
F8802100
F8FFF080
F8800880
F8800480
F8800480
F88FC480
F88FC480
F88FC480
F88FC480
F88FC480
F80FC080
F80FC080
FFF7FF80
FFFFFE00
FFA01C00
7F601800
00E7A000
01E0A000
01E0A000
01E0A000
01FEA000
01F0A000
01F74000
00F08000
01FF0000
01FE0000
01F80000
ENDCHAR
STARTCHAR Rcaron
ENCODING 344
SWIDTH 843 0
DWIDTH 27 0
BBX 25 36 1 -4
BITMAP
00800800
01707400
030F8400
07000400
0F104400
1F0F8400
1FC01800
1FF8E000
1FFFC000
08003800
18000400
38000200
78FFC200
F8802100
F8802100
F88F1100
F88F1100
F88F1200
F88F1200
F8802600
F8802100
F8FFF080
F8800880
F8800480
F8800480
F88FC480
F88FC480
F88FC480
F88FC480
F88FC480
F80FC080
F80FC080
FFF7FF80
FFE7FE00
FF87FC00
7F03F800
ENDCHAR
STARTCHAR rcaron
ENCODING 345
SWIDTH 843 0
DWIDTH 27 0
BBX 25 36 1 -4
BITMAP
00800800
01707400
030F8400
07000400
0F104400
1F0F8400
1FC01800
1FF8E000
1FFFC000
08003800
18000400
38000200
78FFC200
F8802100
F8802100
F88F1100
F88F1100
F88F1200
F88F1200
F8802600
F8802100
F8FFF080
F8800880
F8800480
F8800480
F88FC480
F88FC480
F88FC480
F88FC480
F88FC480
F80FC080
F80FC080
FFF7FF80
FFE7FE00
FF87FC00
7F03F800
ENDCHAR
STARTCHAR Sacute
ENCODING 346
SWIDTH 750 0
DWIDTH 24 0
BBX 23 36 1 -4
BITMAP
000070
007F88
038008
060788
0E7808
1E0008
3E0030
3E3FC0
3FC038
3C0004
380004
380004
087FC4
308004
708004
710FF8
F10FE0
F100E0
F10018
F08004
F87C04
FC03C2
FE0022
FFE022
FFFE22
7FFE22
300022
100022
300042
F1FF84
F00008
F00010
FFFFE0
FFFFC0
FFFF00
FFFE00
ENDCHAR
STARTCHAR sacute
ENCODING 347
SWIDTH 750 0
DWIDTH 24 0
BBX 23 36 1 -4
BITMAP
000070
007F88
038008
060788
0E7808
1E0008
3E0030
3E3FC0
3FC038
3C0004
380004
380004
087FC4
308004
708004
710FF8
F10FE0
F100E0
F10018
F08004
F87C04
FC03C2
FE0022
FFE022
FFFE22
7FFE22
300022
100022
300042
F1FF84
F00008
F00010
FFFFE0
FFFFC0
FFFF00
FFFE00
ENDCHAR
STARTCHAR Scircumflex
ENCODING 348
SWIDTH 750 0
DWIDTH 24 0
BBX 23 36 1 -4
BITMAP
001E00
00E1C0
010030
021E10
0C6190
1C0010
3C1E10
3FFFF0
3FC008
3C0004
380004
380004
107FC4
308004
708004
F10FF8
F10FE0
F100E0
F10018
F08004
F87C04
FC03C2
FE0022
FFE022
FFFE22
7FFE22
100022
100022
300042
F1FF84
F00008
F00010
FFFFE0
FFFFC0
FFFF00
FFFE00
ENDCHAR
STARTCHAR scircumflex
ENCODING 349
SWIDTH 750 0
DWIDTH 24 0
BBX 23 36 1 -4
BITMAP
001E00
00E1C0
010030
021E10
0C6190
1C0010
3C1E10
3FFFF0
3FC008
3C0004
380004
380004
107FC4
308004
708004
F10FF8
F10FE0
F100E0
F10018
F08004
F87C04
FC03C2
FE0022
FFE022
FFFE22
7FFE22
100022
100022
300042
F1FF84
F00008
F00010
FFFFE0
FFFFC0
FFFF00
FFFE00
ENDCHAR
STARTCHAR Scedilla
ENCODING 350
SWIDTH 750 0
DWIDTH 24 0
BBX 23 32 1 -8
BITMAP
01FFF8
020004
040004
080004
107FC4
708004
708004
F10FF8
F10FE0
F101E0
F10018
F08004
F87C04
F803C2
FE0022
FFE022
FFFE22
7FFE22
100022
100022
300042
F1FF84
F00408
F00410
FFC8E0
FF80C0
FF8100
FF0100
07FE00
0FF800
0FF000
0FE000
ENDCHAR
STARTCHAR scedilla
ENCODING 351
SWIDTH 750 0
DWIDTH 24 0
BBX 23 32 1 -8
BITMAP
01FFF8
020004
040004
080004
107FC4
708004
708004
F10FF8
F10FE0
F101E0
F10018
F08004
F87C04
F803C2
FE0022
FFE022
FFFE22
7FFE22
100022
100022
300042
F1FF84
F00408
F00410
FFC8E0
FF80C0
FF8100
FF0100
07FE00
0FF800
0FF000
0FE000
ENDCHAR
STARTCHAR Scaron
ENCODING 352
SWIDTH 750 0
DWIDTH 24 0
BBX 23 36 1 -4
BITMAP
010010
02E0E8
0E1F08
1E0008
3E6188
3E1E08
3F8030
3FF1C0
3FCE78
1C0004
040004
080004
107FC4
308004
708004
F10FF8
F10FE0
F100E0
F10018
F08004
F87C04
FC03C2
FE0022
FFE022
FFFE22
7FFE22
100022
100022
300042
F1FF84
F00008
F00010
FFFFE0
FFFFC0
FFFF00
FFFE00
ENDCHAR
STARTCHAR scaron
ENCODING 353
SWIDTH 750 0
DWIDTH 24 0
BBX 23 36 1 -4
BITMAP
010010
02E0E8
0E1F08
1E0008
3E6188
3E1E08
3F8030
3FF1C0
3FCE78
1C0004
040004
080004
107FC4
308004
708004
F10FF8
F10FE0
F100E0
F10018
F08004
F87C04
FC03C2
FE0022
FFE022
FFFE22
7FFE22
100022
100022
300042
F1FF84
F00008
F00010
FFFFE0
FFFFC0
FFFF00
FFFE00
ENDCHAR
STARTCHAR Tcommaaccent
ENCODING 354
SWIDTH 756 0
DWIDTH 24 0
BBX 24 39 0 -15
BITMAP
0FFFFF
180001
380001
780001
F9FFF9
F80201
F80201
FFC23E
FFC23C
FFC238
FFC230
03C220
03C220
03C220
03C220
03C220
03C220
03C220
03C220
03C220
03C220
03C020
03C020
03E040
03FF80
03E040
03C020
03C020
01CF20
03C120
03C120
03E120
03FD40
03E140
03EE40
01E180
01FE00
03FC00
03F800
ENDCHAR
STARTCHAR tcommaaccent
ENCODING 355
SWIDTH 756 0
DWIDTH 24 0
BBX 24 39 0 -15
BITMAP
0FFFFF
180001
380001
780001
F9FFF9
F80201
F80201
FFC23E
FFC23C
FFC238
FFC230
03C220
03C220
03C220
03C220
03C220
03C220
03C220
03C220
03C220
03C220
03C020
03C020
03E040
03FF80
03E040
03C020
03C020
01CF20
03C120
03C120
03E120
03FD40
03E140
03EE40
01E180
01FE00
03FC00
03F800
ENDCHAR
STARTCHAR Tcaron
ENCODING 356
SWIDTH 756 0
DWIDTH 24 0
BBX 24 36 0 -4
BITMAP
018000
0370F8
060F04
0E0004
1E30C4
1F0F08
1F8030
1FF8C0
18073F
080001
380001
780001
F9FFF9
F80201
F80201
FFC23E
FFC23C
FFC238
FFC230
03C220
03C220
03C220
03C220
03C220
03C220
03C220
03C220
03C220
03C220
03C020
03C020
03C020
03FFC0
03FF00
03FE00
03FC00
ENDCHAR
STARTCHAR tcaron
ENCODING 357
SWIDTH 756 0
DWIDTH 24 0
BBX 24 36 0 -4
BITMAP
018000
0370F8
060F04
0E0004
1E30C4
1F0F08
1F8030
1FF8C0
18073F
080001
380001
780001
F9FFF9
F80201
F80201
FFC23E
FFC23C
FFC238
FFC230
03C220
03C220
03C220
03C220
03C220
03C220
03C220
03C220
03C220
03C220
03C020
03C020
03C020
03FFC0
03FF00
03FE00
03FC00
ENDCHAR
STARTCHAR Tbar
ENCODING 358
SWIDTH 756 0
DWIDTH 24 0
BBX 24 28 0 -4
BITMAP
0FFFFF
180001
380001
780001
F9FFF9
F80201
F80201
F80203
FFC23C
FFC238
FFC230
03C238
020204
060204
1E3FE4
3E0204
3E0204
3FC238
3FC230
3FC220
1FC220
03C020
03C020
03C020
03FFC0
03FF00
03FE00
03FC00
ENDCHAR
STARTCHAR tbar
ENCODING 359
SWIDTH 756 0
DWIDTH 24 0
BBX 24 28 0 -4
BITMAP
0FFFFF
180001
380001
780001
F9FFF9
F80201
F80201
F80203
FFC23C
FFC238
FFC230
03C238
020204
060204
1E3FE4
3E0204
3E0204
3FC238
3FC230
3FC220
1FC220
03C020
03C020
03C020
03FFC0
03FF00
03FE00
03FC00
ENDCHAR
STARTCHAR Utilde
ENCODING 360
SWIDTH 846 0
DWIDTH 27 0
BBX 25 35 1 -4
BITMAP
007F1800
0080E400
03000400
071E0400
0F01C400
1F000400
1F7C0800
189FF780
180F8080
380F8080
788B8880
F88F8880
F88F8880
F88F8880
F88F8880
F88F8880
F88F8880
F88F8880
F88F8880
F88F8880
F88F8880
F88F8880
F88F8880
F88F8880
F88F8880
F8800880
F8400880
F8603080
FC174100
7E000200
7F800C00
7FFFF000
3FFFE000
1FFFC000
03FE0000
ENDCHAR
STARTCHAR utilde
ENCODING 361
SWIDTH 846 0
DWIDTH 27 0
BBX 25 35 1 -4
BITMAP
007F1800
0080E400
03000400
071E0400
0F01C400
1F000400
1F7C0800
189FF780
180F8080
380F8080
788B8880
F88F8880
F88F8880
F88F8880
F88F8880
F88F8880
F88F8880
F88F8880
F88F8880
F88F8880
F88F8880
F88F8880
F88F8880
F88F8880
F88F8880
F8800880
F8400880
F8603080
FC174100
7E000200
7F800C00
7FFFF000
3FFFE000
1FFFC000
03FE0000
ENDCHAR
STARTCHAR Umacron
ENCODING 362
SWIDTH 846 0
DWIDTH 27 0
BBX 25 35 1 -4
BITMAP
00FFF800
01000400
03000400
071FC400
0F000400
1F000400
1F000800
1FFFFF80
180FC080
180F8080
380F8080
788B8880
F88F8880
F88F8880
F88F8880
F88F8880
F88F8880
F88F8880
F88F8880
F88F8880
F88F8880
F88F8880
F88F8880
F88F8880
F88F8880
F8800880
F8800880
F8601080
FC176100
FE000200
7F800C00
7FFFF000
3FFFE000
1FFFC000
03FE0000
ENDCHAR
STARTCHAR umacron
ENCODING 363
SWIDTH 846 0
DWIDTH 27 0
BBX 25 35 1 -4
BITMAP
00FFF800
01000400
03000400
071FC400
0F000400
1F000400
1F000800
1FFFFF80
180FC080
180F8080
380F8080
788B8880
F88F8880
F88F8880
F88F8880
F88F8880
F88F8880
F88F8880
F88F8880
F88F8880
F88F8880
F88F8880
F88F8880
F88F8880
F88F8880
F8800880
F8800880
F8601080
FC176100
FE000200
7F800C00
7FFFF000
3FFFE000
1FFFC000
03FE0000
ENDCHAR
STARTCHAR Ubreve
ENCODING 364
SWIDTH 846 0
DWIDTH 27 0
BBX 25 36 1 -4
BITMAP
00F07800
01098400
07070400
0F201400
1F202400
1F174400
1F800800
1FE03000
081FDF80
080F8080
380F8080
780F8080
F88F8880
F88F8880
F88F8880
F88F8880
F88F8880
F88F8880
F88F8880
F88F8880
F88F8880
F88F8880
F88F8880
F88F8880
F88F8880
F88F8880
F8800880
F8800880
F8601080
FC176100
7E000200
7F800C00
7FFFF000
3FFFE000
1FFFC000
03FE0000
ENDCHAR
STARTCHAR ubreve
ENCODING 365
SWIDTH 846 0
DWIDTH 27 0
BBX 25 36 1 -4
BITMAP
00F07800
01098400
07070400
0F201400
1F202400
1F174400
1F800800
1FE03000
081FDF80
080F8080
380F8080
780F8080
F88F8880
F88F8880
F88F8880
F88F8880
F88F8880
F88F8880
F88F8880
F88F8880
F88F8880
F88F8880
F88F8880
F88F8880
F88F8880
F88F8880
F8800880
F8800880
F8601080
FC176100
7E000200
7F800C00
7FFFF000
3FFFE000
1FFFC000
03FE0000
ENDCHAR
STARTCHAR Uring
ENCODING 366
SWIDTH 846 0
DWIDTH 27 0
BBX 25 42 1 -4
BITMAP
00176000
00601000
00800800
010F4400
03302400
0F272400
0F279400
1F279400
1F271400
1F202400
1F302400
1F0F4400
1F800800
1FE03000
081FDF80
180F8080
380F8080
788B8880
F88F8880
F88F8880
F88F8880
F88F8880
F88F8880
F88F8880
F88F8880
F88F8880
F88F8880
F88F8880
F88F8880
F88F8880
F88F8880
F88F8880
F8800880
F8400880
F8603080
FC174100
7E000200
7F800C00
7FFFF000
3FFFE000
1FFFC000
03FE0000
ENDCHAR
STARTCHAR uring
ENCODING 367
SWIDTH 846 0
DWIDTH 27 0
BBX 25 42 1 -4
BITMAP
00176000
00601000
00800800
010F4400
03302400
0F272400
0F279400
1F279400
1F271400
1F202400
1F302400
1F0F4400
1F800800
1FE03000
081FDF80
180F8080
380F8080
788B8880
F88F8880
F88F8880
F88F8880
F88F8880
F88F8880
F88F8880
F88F8880
F88F8880
F88F8880
F88F8880
F88F8880
F88F8880
F88F8880
F88F8880
F8800880
F8400880
F8603080
FC174100
7E000200
7F800C00
7FFFF000
3FFFE000
1FFFC000
03FE0000
ENDCHAR
STARTCHAR Uhungarumlaut
ENCODING 368
SWIDTH 846 0
DWIDTH 27 0
BBX 25 38 1 -4
BITMAP
003C3E00
00414100
0182C100
03818100
07939200
07939200
07139200
0F030200
0F070400
0F070400
0FFFFF80
180FC080
180F8080
380F8080
788B8880
F88F8880
F88F8880
F88F8880
F88F8880
F88F8880
F88F8880
F88F8880
F88F8880
F88F8880
F88F8880
F88F8880
F88F8880
F88F8880
F8800880
F8800880
F8601080
FC176100
FE000200
7F800C00
7FFFF000
3FFFE000
1FFFC000
03FE0000
ENDCHAR
STARTCHAR uhungarumlaut
ENCODING 369
SWIDTH 846 0
DWIDTH 27 0
BBX 25 38 1 -4
BITMAP
003C3E00
00414100
0182C100
03818100
07939200
07939200
07139200
0F030200
0F070400
0F070400
0FFFFF80
180FC080
180F8080
380F8080
788B8880
F88F8880
F88F8880
F88F8880
F88F8880
F88F8880
F88F8880
F88F8880
F88F8880
F88F8880
F88F8880
F88F8880
F88F8880
F88F8880
F8800880
F8800880
F8601080
FC176100
FE000200
7F800C00
7FFFF000
3FFFE000
1FFFC000
03FE0000
ENDCHAR
STARTCHAR Uogonek
ENCODING 370
SWIDTH 846 0
DWIDTH 27 0
BBX 25 34 1 -10
BITMAP
0FF07F80
18088080
38098080
788B8880
F88F8880
F88F8880
F88F8880
F88F8880
F88F8880
F88F8880
F88F8880
F88F8880
F88F8880
F88F8880
F88F8880
F88F8880
F88F8880
F88F8880
F8800880
F8400880
F8603080
FC174100
7C020200
7F020400
7FF27800
3FF26000
1FE21000
07E31000
01F01000
01F01000
01FFE000
01FFC000
01FF8000
00FE0000
ENDCHAR
STARTCHAR uogonek
ENCODING 371
SWIDTH 846 0
DWIDTH 27 0
BBX 25 34 1 -10
BITMAP
0FF07F80
18088080
38098080
788B8880
F88F8880
F88F8880
F88F8880
F88F8880
F88F8880
F88F8880
F88F8880
F88F8880
F88F8880
F88F8880
F88F8880
F88F8880
F88F8880
F88F8880
F8800880
F8400880
F8603080
FC174100
7C020200
7F020400
7FF27800
3FF26000
1FE21000
07E31000
01F01000
01F01000
01FFE000
01FFC000
01FF8000
00FE0000
ENDCHAR
STARTCHAR Wcircumflex
ENCODING 372
SWIDTH 931 0
DWIDTH 30 0
BBX 28 36 1 -4
BITMAP
0003C000
001C3800
00600600
0083C200
018C3200
07800200
0783C200
07FFFE00
081FF9F0
180FF010
3811F010
78907110
F890F110
F890F110
F890F110
F890F110
F893F110
F8943110
F8881110
F8881110
F8881110
F8918910
F8824110
F8842110
F8842110
F8881110
F8899120
FC918920
FC518A20
7C23C440
7E03C040
7E03C040
3FFFFF80
3FF7FE00
3FE3FC00
1FC3F800
ENDCHAR
STARTCHAR wcircumflex
ENCODING 373
SWIDTH 931 0
DWIDTH 30 0
BBX 28 36 1 -4
BITMAP
0003C000
001C3800
00600600
0083C200
018C3200
07800200
0783C200
07FFFE00
081FF9F0
180FF010
3811F010
78907110
F890F110
F890F110
F890F110
F890F110
F893F110
F8943110
F8881110
F8881110
F8881110
F8918910
F8824110
F8842110
F8842110
F8881110
F8899120
FC918920
FC518A20
7C23C440
7E03C040
7E03C040
3FFFFF80
3FF7FE00
3FE3FC00
1FC3F800
ENDCHAR
STARTCHAR Ycircumflex
ENCODING 374
SWIDTH 805 0
DWIDTH 26 0
BBX 24 36 1 -4
BITMAP
000F00
0070E0
018010
020F08
0630C8
0E0008
1E0008
1E3FC8
19DFB7
101F81
301781
701781
F11F89
F11F89
F11F89
F11F89
F11F89
F08F11
F08711
F84621
FC2042
FC2044
FE1084
7F0F08
7F8410
3F8420
1FC420
0FC440
0FC440
07C040
03C040
03C040
03FF80
03FF00
03FE00
03FC00
ENDCHAR
STARTCHAR ycircumflex
ENCODING 375
SWIDTH 805 0
DWIDTH 26 0
BBX 24 36 1 -4
BITMAP
000F00
0070E0
018010
020F08
0630C8
0E0008
1E0008
1E3FC8
19DFB7
101F81
301781
701781
F11F89
F11F89
F11F89
F11F89
F11F89
F08F11
F08711
F84621
FC2042
FC2044
FE1084
7F0F08
7F8410
3F8420
1FC420
0FC440
0FC440
07C040
03C040
03C040
03FF80
03FF00
03FE00
03FC00
ENDCHAR
STARTCHAR Ydieresis
ENCODING 376
SWIDTH 805 0
DWIDTH 26 0
BBX 24 35 1 -4
BITMAP
01F1F8
040604
0C0604
1C4624
3C4624
3C0604
3E0608
3FFFFF
381F81
301F81
701F81
F11789
F11F89
F11F89
F11F89
F11F89
F10F09
F08611
F84621
F84042
FC2044
FE1084
7F0F08
7F0410
3F8420
1FC420
0FC440
0FC440
07C040
03C040
03C040
03FF80
03FF00
03FE00
03FC00
ENDCHAR
STARTCHAR Zacute
ENCODING 377
SWIDTH 760 0
DWIDTH 24 0
BBX 23 36 1 -4
BITMAP
000070
007F88
038008
060788
0E7808
1E0008
3E0030
3E3FC0
39C03C
380004
380004
780004
F8FFC4
F80024
F80024
FFF844
FFF084
FFE108
7FC210
018220
010440
030840
061080
0C1100
182200
1043FC
308002
708002
F10002
F0FFE2
F00002
F00002
FFFFFC
FFFFF8
FFFFE0
FFFFC0
ENDCHAR
STARTCHAR zacute
ENCODING 378
SWIDTH 760 0
DWIDTH 24 0
BBX 23 36 1 -4
BITMAP
000070
007F88
038008
060788
0E7808
1E0008
3E0030
3E3FC0
39C03C
380004
380004
780004
F8FFC4
F80024
F80024
FFF844
FFF084
FFE108
7FC210
018220
010440
030840
061080
0C1100
182200
1043FC
308002
708002
F10002
F0FFE2
F00002
F00002
FFFFFC
FFFFF8
FFFFE0
FFFFC0
ENDCHAR
STARTCHAR Zdotaccent
ENCODING 379
SWIDTH 760 0
DWIDTH 24 0
BBX 23 35 1 -4
BITMAP
003F00
00C040
01C040
03C440
07C440
07C040
07C080
083F7C
080004
380004
780004
F8FFC4
F80024
F80024
FFF844
FFF084
FFE108
7FC210
018220
010440
030840
061080
0C1100
182200
1043FC
308002
708002
F10002
F0FFE2
F00002
F00002
FFFFFC
FFFFF8
FFFFE0
FFFFC0
ENDCHAR
STARTCHAR zdotaccent
ENCODING 380
SWIDTH 760 0
DWIDTH 24 0
BBX 23 35 1 -4
BITMAP
003F00
00C040
01C040
03C440
07C440
07C040
07C080
083F7C
080004
380004
780004
F8FFC4
F80024
F80024
FFF844
FFF084
FFE108
7FC210
018220
010440
030840
061080
0C1100
182200
1043FC
308002
708002
F10002
F0FFE2
F00002
F00002
FFFFFC
FFFFF8
FFFFE0
FFFFC0
ENDCHAR
STARTCHAR Zcaron
ENCODING 381
SWIDTH 760 0
DWIDTH 24 0
BBX 23 36 1 -4
BITMAP
010000
06E1F0
0E1E08
1E0008
3E6188
3E1E10
3F0020
3FF1C0
380E7C
180004
180004
380004
78FFC4
F80024
F80024
FFF844
FFF084
FFE108
7FC210
018220
010440
030840
061080
0C1100
182200
1043FC
308002
708002
F10002
F0FFE2
F00002
F00002
FFFFFC
FFFFF8
FFFFE0
FFFFC0
ENDCHAR
STARTCHAR zcaron
ENCODING 382
SWIDTH 760 0
DWIDTH 24 0
BBX 23 36 1 -4
BITMAP
010000
06E1F0
0E1E08
1E0008
3E6188
3E1E10
3F0020
3FF1C0
380E7C
180004
180004
380004
78FFC4
F80024
F80024
FFF844
FFF084
FFE108
7FC210
018220
010440
030840
061080
0C1100
182200
1043FC
308002
708002
F10002
F0FFE2
F00002
F00002
FFFFFC
FFFFF8
FFFFE0
FFFFC0
ENDCHAR
STARTCHAR Schwa
ENCODING 399
SWIDTH 815 0
DWIDTH 26 0
BBX 24 28 1 -4
BITMAP
01FFF8
020004
060002
1E3FC1
1E0031
3E0011
3E0009
3FFF89
3FFF89
3FFF89
180009
300009
70FFF9
F10009
F10009
F10F89
F10F89
F10F89
F08009
F8C031
F82F41
F80001
FC0002
FF800C
7FFFF0
7FFFE0
3FFFC0
07FE00
ENDCHAR
STARTCHAR florin
ENCODING 402
SWIDTH 674 0
DWIDTH 22 0
BBX 20 28 1 -4
BITMAP
001FF0
002010
004010
008010
018790
030810
070810
0F10E0
0F10C0
0F10E0
101010
301010
71FF90
F01010
F01010
F81020
FF10C0
FF1080
F01100
701100
703100
F1C200
F00400
F00800
FFF000
FFE000
FF8000
FE0000
ENDCHAR
STARTCHAR Ohorn
ENCODING 416
SWIDTH 847 0
DWIDTH 27 0
BBX 27 31 1 -4
BITMAP
000007C0
00000820
00001820
00FFE120
03000120
04000240
083FF440
18401080
38800880
78820880
788F8880
F88F8880
F88F8880
F88F8880
F8978880
F8978880
F8978880
F8978880
F8978880
F8978880
F88F8880
F8800880
F8800880
F8603080
FC174100
FE000200
FF800C00
7FFFF000
7FFFE000
1FFFC000
07FE0000
ENDCHAR
STARTCHAR ohorn
ENCODING 417
SWIDTH 847 0
DWIDTH 27 0
BBX 27 31 1 -4
BITMAP
000007C0
00000820
00001820
00FFE120
03000120
04000240
083FF440
18401080
38800880
78820880
788F8880
F88F8880
F88F8880
F88F8880
F8978880
F8978880
F8978880
F8978880
F8978880
F8978880
F88F8880
F8800880
F8800880
F8603080
FC174100
FE000200
FF800C00
7FFFF000
7FFFE000
1FFFC000
07FE0000
ENDCHAR
STARTCHAR Uhorn
ENCODING 431
SWIDTH 856 0
DWIDTH 27 0
BBX 27 31 1 -4
BITMAP
000007C0
00000820
00001820
0FF06120
18088120
38098220
788B8440
F88F8880
F88F8880
F88F8880
F88F8880
F88F8880
F88F8880
F88F8880
F88F8880
F88F8880
F88F8880
F88F8880
F88F8880
F88F8880
F88F8880
F8800880
F8400880
F8603080
FC174100
FE000200
7F800C00
7FFFF800
3FFFE000
1FFFC000
03FE0000
ENDCHAR
STARTCHAR uhorn
ENCODING 432
SWIDTH 856 0
DWIDTH 27 0
BBX 27 31 1 -4
BITMAP
000007C0
00000820
00001820
0FF06120
18088120
38098220
788B8440
F88F8880
F88F8880
F88F8880
F88F8880
F88F8880
F88F8880
F88F8880
F88F8880
F88F8880
F88F8880
F88F8880
F88F8880
F88F8880
F88F8880
F8800880
F8400880
F8603080
FC174100
FE000200
7F800C00
7FFFF800
3FFFE000
1FFFC000
03FE0000
ENDCHAR
STARTCHAR Acaron
ENCODING 461
SWIDTH 830 0
DWIDTH 27 0
BBX 25 36 1 -4
BITMAP
00800800
01707400
070F8400
0F000400
1F30C400
1F0F0800
1FC01000
1FF8E000
1F873000
0F000800
03000800
03000400
061F8400
0E204400
0E202200
1C262200
1C472100
18471100
388F1100
388F0880
78808880
79000880
71000880
F0FFF880
F1000880
F1000880
F11F8880
F11F8880
F11F8880
F01F8080
F0178080
F0178080
FFE7FF00
FFC7FE00
FF07F800
FE07F000
ENDCHAR
STARTCHAR acaron
ENCODING 462
SWIDTH 830 0
DWIDTH 27 0
BBX 25 36 1 -4
BITMAP
00800800
01707400
070F8400
0F000400
1F30C400
1F0F0800
1FC01000
1FF8E000
1F873000
0F000800
03000800
03000400
061F8400
0E204400
0E202200
1C262200
1C472100
18471100
388F1100
388F0880
78808880
79000880
71000880
F0FFF880
F1000880
F1000880
F11F8880
F11F8880
F11F8880
F01F8080
F0178080
F0178080
FFE7FF00
FFC7FE00
FF07F800
FE07F000
ENDCHAR
STARTCHAR Icaron
ENCODING 463
SWIDTH 705 0
DWIDTH 23 0
BBX 21 36 1 -4
BITMAP
020020
05C1D0
1C3E10
3C0010
7CC310
7C3C20
7F0040
7FE380
781CF8
300008
300008
700008
F1FF88
F00808
F80808
FF88F0
FF88C0
FF8880
7F8880
0F8880
0F8880
0F8880
0F8880
0F8880
0F8880
0F88F0
100808
300808
700808
F1FF88
F00008
F00008
FFFFF0
FFFFE0
FFFF80
FFFF00
ENDCHAR
STARTCHAR icaron
ENCODING 464
SWIDTH 705 0
DWIDTH 23 0
BBX 21 36 1 -4
BITMAP
020020
05C1D0
1C3E10
3C0010
7CC310
7C3C20
7F0040
7FE380
781CF8
300008
300008
700008
F1FF88
F00808
F80808
FF88F0
FF88C0
FF8880
7F8880
0F8880
0F8880
0F8880
0F8880
0F8880
0F8880
0F88F0
100808
300808
700808
F1FF88
F00008
F00008
FFFFF0
FFFFE0
FFFF80
FFFF00
ENDCHAR
STARTCHAR Ocaron
ENCODING 465
SWIDTH 837 0
DWIDTH 27 0
BBX 25 36 1 -4
BITMAP
01F07C00
030F8400
07000400
0F30C400
1F0F0400
1F000800
1FC01000
1FF8E000
1FFFF000
0F000C00
04000200
08174100
18603080
38800880
78820880
788F8880
F88F8880
F88F8880
F88F8880
F8978880
F8978880
F8978880
F8978880
F8978880
F8978880
F88F8880
F8800880
F8800880
F8603080
FC174100
FE000200
7F800C00
7FFFF800
3FFFE000
1FFFC000
03FE0000
ENDCHAR
STARTCHAR ocaron
ENCODING 466
SWIDTH 837 0
DWIDTH 27 0
BBX 25 36 1 -4
BITMAP
01F07C00
030F8400
07000400
0F30C400
1F0F0400
1F000800
1FC01000
1FF8E000
1FFFF000
0F000C00
04000200
08174100
18603080
38800880
78820880
788F8880
F88F8880
F88F8880
F88F8880
F8978880
F8978880
F8978880
F8978880
F8978880
F8978880
F88F8880
F8800880
F8800880
F8603080
FC174100
FE000200
7F800C00
7FFFF800
3FFFE000
1FFFC000
03FE0000
ENDCHAR
STARTCHAR Ucaron
ENCODING 467
SWIDTH 846 0
DWIDTH 27 0
BBX 25 36 1 -4
BITMAP
01F07C00
030F8400
07000400
0F184400
1F078400
1F000800
1FC01000
1FF8E000
081FDF80
180F8080
38098080
788B8880
F88F8880
F88F8880
F88F8880
F88F8880
F88F8880
F88F8880
F88F8880
F88F8880
F88F8880
F88F8880
F88F8880
F88F8880
F88F8880
F88F8880
F8800880
F8400880
F8603080
FC174100
7E000200
7F800C00
7FFFF000
3FFFE000
1FFFC000
03FE0000
ENDCHAR
STARTCHAR ucaron
ENCODING 468
SWIDTH 846 0
DWIDTH 27 0
BBX 25 36 1 -4
BITMAP
01F07C00
030F8400
07000400
0F184400
1F078400
1F000800
1FC01000
1FF8E000
081FDF80
180F8080
38098080
788B8880
F88F8880
F88F8880
F88F8880
F88F8880
F88F8880
F88F8880
F88F8880
F88F8880
F88F8880
F88F8880
F88F8880
F88F8880
F88F8880
F88F8880
F8800880
F8400880
F8603080
FC174100
7E000200
7F800C00
7FFFF000
3FFFE000
1FFFC000
03FE0000
ENDCHAR
STARTCHAR Udieresismacron
ENCODING 469
SWIDTH 846 0
DWIDTH 27 0
BBX 25 42 1 -4
BITMAP
00FFF800
01000400
03000400
071FC400
0F000400
1F000400
1FFFF800
1E070400
1E020200
0E222200
1E222200
1E020200
1E020200
1E030400
1FFFFF80
180FC080
380F8080
780F8080
F88B8880
F88F8880
F88F8880
F88F8880
F88F8880
F88F8880
F88F8880
F88F8880
F88F8880
F88F8880
F88F8880
F88F8880
F88F8880
F88F8880
F8800880
F8800880
F8601080
FC176100
7E000200
7F800C00
7FFFF000
3FFFE000
1FFFC000
03FE0000
ENDCHAR
STARTCHAR udieresismacron
ENCODING 470
SWIDTH 846 0
DWIDTH 27 0
BBX 25 42 1 -4
BITMAP
00FFF800
01000400
03000400
071FC400
0F000400
1F000400
1FFFF800
1E070400
1E020200
0E222200
1E222200
1E020200
1E020200
1E030400
1FFFFF80
180FC080
380F8080
780F8080
F88B8880
F88F8880
F88F8880
F88F8880
F88F8880
F88F8880
F88F8880
F88F8880
F88F8880
F88F8880
F88F8880
F88F8880
F88F8880
F88F8880
F8800880
F8800880
F8601080
FC176100
7E000200
7F800C00
7FFFF000
3FFFE000
1FFFC000
03FE0000
ENDCHAR
STARTCHAR Udieresisacute
ENCODING 471
SWIDTH 846 0
DWIDTH 27 0
BBX 25 42 1 -4
BITMAP
0007E000
00082000
00102000
0073A000
00F02000
00F02000
00FBC000
01FFF800
02020200
06222200
0E222200
1E020200
1E020200
1E030400
1FFFFF80
180FC080
180F8080
380F8080
788B8880
F88F8880
F88F8880
F88F8880
F88F8880
F88F8880
F88F8880
F88F8880
F88F8880
F88F8880
F88F8880
F88F8880
F88F8880
F88F8880
F8800880
F8800880
F8601080
FC176100
7E000200
7F800C00
7FFFF000
3FFFE000
1FFFC000
03FE0000
ENDCHAR
STARTCHAR udieresisacute
ENCODING 472
SWIDTH 846 0
DWIDTH 27 0
BBX 25 42 1 -4
BITMAP
0007E000
00082000
00102000
0073A000
00F02000
00F02000
00FBC000
01FFF800
02020200
06222200
0E222200
1E020200
1E020200
1E030400
1FFFFF80
180FC080
180F8080
380F8080
788B8880
F88F8880
F88F8880
F88F8880
F88F8880
F88F8880
F88F8880
F88F8880
F88F8880
F88F8880
F88F8880
F88F8880
F88F8880
F88F8880
F8800880
F8800880
F8601080
FC176100
7E000200
7F800C00
7FFFF000
3FFFE000
1FFFC000
03FE0000
ENDCHAR
STARTCHAR Udieresiscaron
ENCODING 473
SWIDTH 846 0
DWIDTH 27 0
BBX 25 43 1 -4
BITMAP
01F07C00
010F8400
07000400
0F184400
1F078400
1F800800
1FE03000
1FF8E000
1FFFF800
06020200
06222200
0E222200
1E020200
1E020200
1E030400
1FFFFF80
180FC080
180F8080
780F8080
F88B8880
F88F8880
F88F8880
F88F8880
F88F8880
F88F8880
F88F8880
F88F8880
F88F8880
F88F8880
F88F8880
F88F8880
F88F8880
F88F8880
F8800880
F8800880
F8601080
FC176100
7E000200
7F800C00
7FFFF000
3FFFE000
1FFFC000
03FE0000
ENDCHAR
STARTCHAR udieresiscaron
ENCODING 474
SWIDTH 846 0
DWIDTH 27 0
BBX 25 43 1 -4
BITMAP
01F07C00
010F8400
07000400
0F184400
1F078400
1F800800
1FE03000
1FF8E000
1FFFF800
06020200
06222200
0E222200
1E020200
1E020200
1E030400
1FFFFF80
180FC080
180F8080
780F8080
F88B8880
F88F8880
F88F8880
F88F8880
F88F8880
F88F8880
F88F8880
F88F8880
F88F8880
F88F8880
F88F8880
F88F8880
F88F8880
F88F8880
F8800880
F8800880
F8601080
FC176100
7E000200
7F800C00
7FFFF000
3FFFE000
1FFFC000
03FE0000
ENDCHAR
STARTCHAR Udieresisgrave
ENCODING 475
SWIDTH 846 0
DWIDTH 27 0
BBX 25 42 1 -4
BITMAP
003F8000
00604000
00E04000
01E74000
03E04000
03F04000
03FF4000
03FFF800
02020200
06222200
0E222200
1E020200
1E020200
1E030400
1FFFFF80
180FC080
180F8080
380F8080
788B8880
F88F8880
F88F8880
F88F8880
F88F8880
F88F8880
F88F8880
F88F8880
F88F8880
F88F8880
F88F8880
F88F8880
F88F8880
F88F8880
F8800880
F8800880
F8601080
FC176100
7E000200
7F800C00
7FFFF000
3FFFE000
1FFFC000
03FE0000
ENDCHAR
STARTCHAR udieresisgrave
ENCODING 476
SWIDTH 846 0
DWIDTH 27 0
BBX 25 42 1 -4
BITMAP
003F8000
00604000
00E04000
01E74000
03E04000
03F04000
03FF4000
03FFF800
02020200
06222200
0E222200
1E020200
1E020200
1E030400
1FFFFF80
180FC080
180F8080
380F8080
788B8880
F88F8880
F88F8880
F88F8880
F88F8880
F88F8880
F88F8880
F88F8880
F88F8880
F88F8880
F88F8880
F88F8880
F88F8880
F88F8880
F8800880
F8800880
F8601080
FC176100
7E000200
7F800C00
7FFFF000
3FFFE000
1FFFC000
03FE0000
ENDCHAR
STARTCHAR Gcaron
ENCODING 486
SWIDTH 808 0
DWIDTH 26 0
BBX 24 36 1 -4
BITMAP
018000
0270F8
060F08
0E0008
1E30C8
1E0F08
1F8030
1FF9C0
1FE63C
1E0004
040004
040004
082FE4
384004
788004
7887F8
F88FF0
F88FE0
F88F80
F8907E
F89181
F89301
F89701
F88F11
F88F11
F88F11
F88011
F88011
F84011
FC2FF1
FC0001
7F0001
7FFFFE
3FFFFC
1FFFF8
07FFF0
ENDCHAR
STARTCHAR gcaron
ENCODING 487
SWIDTH 808 0
DWIDTH 26 0
BBX 24 36 1 -4
BITMAP
018000
0270F8
060F08
0E0008
1E30C8
1E0F08
1F8030
1FF9C0
1FE63C
1E0004
040004
040004
082FE4
384004
788004
7887F8
F88FF0
F88FE0
F88F80
F8907E
F89181
F89301
F89701
F88F11
F88F11
F88F11
F88011
F88011
F84011
FC2FF1
FC0001
7F0001
7FFFFE
3FFFFC
1FFFF8
07FFF0
ENDCHAR
STARTCHAR Scommaaccent
ENCODING 536
SWIDTH 750 0
DWIDTH 24 0
BBX 23 39 1 -15
BITMAP
01FFF8
020004
040004
080004
107FC4
708004
708004
F10FF8
F10FE0
F100E0
F10018
F08004
F87C04
FC03C2
FE0022
FFE022
FFFE22
7FFE22
100022
100022
300044
F1FF84
F00008
F00030
FFFFE0
FFC040
FFC040
FFC040
03CE40
07C140
07C140
07C140
07FD40
07C280
07CC80
03C100
03FE00
03F800
03F000
ENDCHAR
STARTCHAR scommaaccent
ENCODING 537
SWIDTH 750 0
DWIDTH 24 0
BBX 23 39 1 -15
BITMAP
01FFF8
020004
040004
080004
107FC4
708004
708004
F10FF8
F10FE0
F100E0
F10018
F08004
F87C04
FC03C2
FE0022
FFE022
FFFE22
7FFE22
100022
100022
300044
F1FF84
F00008
F00030
FFFFE0
FFC040
FFC040
FFC040
03CE40
07C140
07C140
07C140
07FD40
07C280
07CC80
03C100
03FE00
03F800
03F000
ENDCHAR
STARTCHAR uni021A
ENCODING 538
SWIDTH 756 0
DWIDTH 24 0
BBX 24 39 0 -15
BITMAP
0FFFFF
180001
380001
780001
F9FFF9
F80201
F80201
FFC23E
FFC23C
FFC238
FFC230
03C220
03C220
03C220
03C220
03C220
03C220
03C220
03C220
03C220
03C220
03C020
03C020
03E040
03FF80
03E040
03C020
03C020
01CF20
03C120
03C120
03E120
03FD40
03E140
03EE40
01E180
01FE00
03FC00
03F800
ENDCHAR
STARTCHAR uni021B
ENCODING 539
SWIDTH 756 0
DWIDTH 24 0
BBX 24 39 0 -15
BITMAP
0FFFFF
180001
380001
780001
F9FFF9
F80201
F80201
FFC23E
FFC23C
FFC238
FFC230
03C220
03C220
03C220
03C220
03C220
03C220
03C220
03C220
03C220
03C220
03C020
03C020
03E040
03FF80
03E040
03C020
03C020
01CF20
03C120
03C120
03E120
03FD40
03E140
03EE40
01E180
01FE00
03FC00
03F800
ENDCHAR
STARTCHAR dotlessj
ENCODING 567
SWIDTH 788 0
DWIDTH 25 0
BBX 23 28 1 -4
BITMAP
0001FE
000202
000602
000E22
001E22
001E22
001E22
001E22
001E22
001E22
001E22
0FFE22
101E22
301E22
701E22
F11E22
F11E22
F11E22
F10022
F10022
F0C042
F82F84
FC0008
FF0010
FFFFE0
7FFFC0
3FFF00
07FC00
ENDCHAR
STARTCHAR ascript
ENCODING 593
SWIDTH 846 0
DWIDTH 27 0
BBX 25 28 1 -4
BITMAP
00FFF000
03000C00
04000200
08174100
18603080
38800880
78800880
788F8880
F88F8880
F88F8880
F88F8880
F8978880
F8978880
F8978880
F8978880
F8978880
F8978880
F88F8880
F8800880
F8800880
F8400880
FC2FF880
FC000080
FF000080
7FFFFF00
7FFFFE00
3FFFF800
0FFFF000
ENDCHAR
STARTCHAR schwa
ENCODING 601
SWIDTH 815 0
DWIDTH 26 0
BBX 24 28 1 -4
BITMAP
01FFF8
020004
060002
1E3FC1
1E0031
3E0011
3E0009
3FFF89
3FFF89
3FFF89
180009
300009
70FFF9
F10009
F10009
F10F89
F10F89
F10F89
F08009
F8C031
F82F41
F80001
FC0002
FF800C
7FFFF0
7FFFE0
3FFFC0
07FE00
ENDCHAR
STARTCHAR gscript
ENCODING 609
SWIDTH 815 0
DWIDTH 26 0
BBX 24 30 1 -6
BITMAP
00FFF0
03000C
040002
083FC1
184031
308009
710209
F10F89
F10F89
F10F89
F10F89
F10009
F08009
F88009
F85FF9
FC0009
FE0009
FFFF89
7FFF89
3FFF09
0E0009
060011
0E3FE1
1E0001
3E0002
3E000C
3FFFF0
3FFFE0
3FFFC0
1FFE00
ENDCHAR
STARTCHAR commaturnedmod
ENCODING 699
SWIDTH 600 0
DWIDTH 19 0
BBX 12 15 4 9
BITMAP
07E0
09D0
1210
35E0
7430
F410
F410
F3D0
F010
F010
F010
FFE0
FF80
FF00
FE00
ENDCHAR
STARTCHAR apostrophemod
ENCODING 700
SWIDTH 600 0
DWIDTH 19 0
BBX 12 15 4 9
BITMAP
0FE0
1010
3010
73D0
F050
F050
F050
FF50
F890
F320
F020
FFC0
FF00
FE00
FC00
ENDCHAR
STARTCHAR ringhalfright
ENCODING 702
SWIDTH 412 0
DWIDTH 13 0
BBX 13 15 0 9
BITMAP
0FF0
1808
39C8
7828
FF28
FF28
FF28
F828
1828
39C8
7810
FFE0
FFC0
FF80
FE00
ENDCHAR
STARTCHAR ringhalfleft
ENCODING 703
SWIDTH 412 0
DWIDTH 13 0
BBX 13 15 0 9
BITMAP
03F8
0C08
18C8
3908
7938
F960
F940
F930
F908
F8C8
FC08
FFF8
FFE0
7FC0
3F80
ENDCHAR
STARTCHAR circumflex
ENCODING 710
SWIDTH 600 0
DWIDTH 19 0
BBX 18 12 1 20
BITMAP
007800
038600
0C0180
107840
318640
700040
F07040
F3FE40
FFFF80
FFFF00
F8FC00
800800
ENDCHAR
STARTCHAR caron
ENCODING 711
SWIDTH 600 0
DWIDTH 19 0
BBX 18 12 1 20
BITMAP
080080
178740
307840
700040
F18640
F07840
FC0080
FF8700
FFFC00
FFF800
3FE000
070000
ENDCHAR
STARTCHAR verticallinemod
ENCODING 712
SWIDTH 456 0
DWIDTH 15 0
BBX 12 16 1 8
BITMAP
0FF0
1810
3810
7890
F890
F890
F890
F890
F890
F810
F810
F810
FFF0
FFE0
FF80
FF00
ENDCHAR
STARTCHAR firsttonechinese
ENCODING 713
SWIDTH 600 0
DWIDTH 19 0
BBX 18 10 1 20
BITMAP
0FFF80
100040
300040
71FC40
F00040
F00040
FFFF80
FFFE00
FFFC00
FFF800
ENDCHAR
STARTCHAR secondtonechinese
ENCODING 714
SWIDTH 600 0
DWIDTH 19 0
BBX 18 11 1 20
BITMAP
01FFC0
0E0040
100040
31FC40
F00040
F00180
F1FF00
FFFE00
FFFC00
FFC000
C00000
ENDCHAR
STARTCHAR fourthtonechinese
ENCODING 715
SWIDTH 600 0
DWIDTH 19 0
BBX 18 11 1 20
BITMAP
1FFC00
300380
700040
F1FC40
F00040
FC0040
FFFC40
FFFF80
FFFE00
1FFC00
001800
ENDCHAR
STARTCHAR verticallinelowmod
ENCODING 716
SWIDTH 456 0
DWIDTH 15 0
BBX 12 16 1 -8
BITMAP
0FF0
1810
3810
7890
F890
F890
F890
F890
F890
F810
F810
F810
FFF0
FFE0
FF80
FF00
ENDCHAR
STARTCHAR breve
ENCODING 728
SWIDTH 600 0
DWIDTH 19 0
BBX 19 12 0 20
BITMAP
07C3C0
082420
183C20
3900A0
790120
F8BE20
FC0040
FF0080
FFFF00
7FFE00
3FF800
0FF000
ENDCHAR
STARTCHAR dotaccent
ENCODING 729
SWIDTH 600 0
DWIDTH 19 0
BBX 12 11 4 20
BITMAP
0FE0
1010
3010
7110
F110
F010
F010
FFE0
FFC0
FF00
FE00
ENDCHAR
STARTCHAR ring
ENCODING 730
SWIDTH 600 0
DWIDTH 19 0
BBX 19 17 0 20
BITMAP
00BB00
0300C0
047A20
088120
190120
7938A0
793CA0
F93CA0
F93920
F88120
F87A20
FC0040
FF0080
FFFF00
7FFE00
3FF800
0FE000
ENDCHAR
STARTCHAR ogonek
ENCODING 731
SWIDTH 600 0
DWIDTH 19 0
BBX 12 13 4 -10
BITMAP
07C0
1920
3920
7140
F220
F210
F190
F010
F810
FFF0
FFE0
FF80
7F00
ENDCHAR
STARTCHAR tilde
ENCODING 732
SWIDTH 600 0
DWIDTH 19 0
BBX 18 11 1 20
BITMAP
07F180
080E40
100040
31E040
F01C40
F00040
F3C080
FFFF00
FFFE00
FFFC00
C3F000
ENDCHAR
STARTCHAR hungarumlaut
ENCODING 733
SWIDTH 600 0
DWIDTH 19 0
BBX 21 14 -1 20
BITMAP
01E1F0
060A08
0C1408
1C1C10
3C9C90
389C90
391C90
781820
783820
783820
7FFFC0
FF7F80
FEFE00
7C7C00
ENDCHAR
STARTCHAR gravecmb
ENCODING 768
SWIDTH 100 0
DWIDTH 3 0
BBX 18 11 -7 20
BITMAP
1FFC00
300380
700040
F1FC40
F00040
FC0040
FFFC40
FFFF80
FFFE00
1FFC00
001800
ENDCHAR
STARTCHAR acutecmb
ENCODING 769
SWIDTH 100 0
DWIDTH 3 0
BBX 18 11 -7 20
BITMAP
01FFC0
0E0040
100040
31FC40
F00040
F00180
F1FF00
FFFE00
FFFC00
FFC000
C00000
ENDCHAR
STARTCHAR circumflexcmb
ENCODING 770
SWIDTH 100 0
DWIDTH 3 0
BBX 18 12 -7 20
BITMAP
007800
038600
0C0180
107840
318640
700040
F07040
F3FE40
FFFF80
FFFF00
F8FC00
800800
ENDCHAR
STARTCHAR tildecmb
ENCODING 771
SWIDTH 100 0
DWIDTH 3 0
BBX 18 11 -7 20
BITMAP
07F180
080E40
100040
31E040
701C40
F00040
F3C080
FFFF00
FFFE00
FFFC00
C3F000
ENDCHAR
STARTCHAR uni0304
ENCODING 772
SWIDTH 600 0
DWIDTH 19 0
BBX 18 10 1 20
BITMAP
0FFF80
100040
300040
71FC40
F00040
F00040
FFFF80
FFFE00
FFFC00
FFF800
ENDCHAR
STARTCHAR brevecmb
ENCODING 774
SWIDTH 100 0
DWIDTH 3 0
BBX 19 12 -8 20
BITMAP
07C3C0
082420
183C20
3900A0
790120
F8BE20
FC0040
FF0080
FFFF00
7FFE00
3FF800
0FF000
ENDCHAR
STARTCHAR dotaccentcmb
ENCODING 775
SWIDTH 100 0
DWIDTH 3 0
BBX 12 11 -4 20
BITMAP
0FE0
1010
3010
7110
F110
F010
F010
FFE0
FFC0
FF00
FE00
ENDCHAR
STARTCHAR dieresiscmb
ENCODING 776
SWIDTH 100 0
DWIDTH 3 0
BBX 19 11 -8 20
BITMAP
0FC7E0
102820
301820
711920
F11920
F01820
F01820
FFFFC0
FFFF80
FFFF00
FEFE00
ENDCHAR
STARTCHAR hookcmb
ENCODING 777
SWIDTH 100 0
DWIDTH 3 0
BBX 14 13 -4 21
BITMAP
0FF0
1008
33E4
7014
FF94
FF14
F834
FDC4
3C08
7FF0
7FC0
7F80
7F00
ENDCHAR
STARTCHAR ringcmb
ENCODING 778
SWIDTH 100 0
DWIDTH 3 0
BBX 19 17 -8 20
BITMAP
00BB00
0300C0
047A20
088120
190120
7938A0
793CA0
F93CA0
F93920
F88120
F87A20
FC0040
FF0080
FFFF00
7FFE00
3FF800
0FE000
ENDCHAR
STARTCHAR hungarumlautcmb
ENCODING 779
SWIDTH 100 0
DWIDTH 3 0
BBX 21 14 -8 20
BITMAP
01F1F0
020A08
040E08
0C0E08
3C8C48
3C9C90
389C90
381C10
781810
783820
7FFFC0
7FFF80
FE7F00
7C7E00
ENDCHAR
STARTCHAR caroncmb
ENCODING 780
SWIDTH 100 0
DWIDTH 3 0
BBX 18 12 -7 20
BITMAP
080080
178740
307840
700040
F18640
F07840
FC0080
FF8700
FFFC00
FFF800
3FE000
070000
ENDCHAR
STARTCHAR horncmb
ENCODING 795
SWIDTH 100 0
DWIDTH 3 0
BBX 12 12 -5 15
BITMAP
03E0
0410
0C10
1890
3890
3910
7C20
F840
FF80
FF00
FC00
F800
ENDCHAR
STARTCHAR dotbelowcmb
ENCODING 803
SWIDTH 100 0
DWIDTH 3 0
BBX 12 11 -4 -12
BITMAP
0FE0
1010
3010
7110
F110
F010
F010
FFE0
FFC0
FF00
FE00
ENDCHAR
STARTCHAR dieresisbelowcmb
ENCODING 804
SWIDTH 100 0
DWIDTH 3 0
BBX 19 11 -8 -12
BITMAP
0FC7E0
102820
301820
711920
F11920
F01820
F01820
FFFFC0
FFFF80
FFFF00
FEFE00
ENDCHAR
STARTCHAR commaaccent
ENCODING 806
SWIDTH 600 0
DWIDTH 19 0
BBX 12 15 4 -15
BITMAP
0FE0
1010
3010
73D0
F050
F050
F050
FF50
F890
F320
F020
FFC0
FF00
FE00
FC00
ENDCHAR
STARTCHAR cedillacmb
ENCODING 807
SWIDTH 100 0
DWIDTH 3 0
BBX 13 14 -5 -8
BITMAP
0180
0270
0608
0C48
1C48
3C88
3890
3890
7010
7020
FFC0
FF80
FF00
FE00
ENDCHAR
STARTCHAR ogonekcmb
ENCODING 808
SWIDTH 100 0
DWIDTH 3 0
BBX 13 13 -4 -10
BITMAP
07E0
0920
1920
3920
7930
7908
79C8
F808
FC08
FFF0
FFE0
7FC0
3F80
ENDCHAR
STARTCHAR brevebelowcmb
ENCODING 814
SWIDTH 100 0
DWIDTH 3 0
BBX 19 12 -8 -13
BITMAP
07C3C0
082420
183C20
3900A0
790120
F8BE20
FC0040
FF0080
FFFF00
7FFE00
3FF800
0FF000
ENDCHAR
STARTCHAR macronbelowcmb
ENCODING 817
SWIDTH 100 0
DWIDTH 3 0
BBX 18 10 -7 -11
BITMAP
0FFF80
100040
300040
71FE40
F00040
F00040
FFFF80
FFFF00
FFFC00
FFF800
ENDCHAR
STARTCHAR uni0394
ENCODING 916
SWIDTH 830 0
DWIDTH 27 0
BBX 25 28 1 -4
BITMAP
007FF000
00800800
01000800
03000400
0F1FC400
0E204400
1E202400
1E222200
1E462200
1C472200
3C471200
3C471100
388F1100
388F1100
788F8900
788F8880
789F8880
709F8880
F0800880
F0800880
F0FFF880
F0000080
F0000080
F8000080
FFFFFF00
FFFFFC00
FFFFF800
FFFFF000
ENDCHAR
STARTCHAR uni03A9
ENCODING 937
SWIDTH 877 0
DWIDTH 28 0
BBX 28 28 0 -4
BITMAP
003FFC00
00C00300
01000080
020FF040
06100840
0C200420
1C400220
3C43E220
3C47E220
3C47E220
3C47E220
3C47E220
3C47E220
3C47E220
3C47E220
3C47E220
3E47E240
3E43E260
38218410
38118810
38F99F90
78018010
F8018010
F8018010
FFFFFFE0
FFFFFFC0
FFF7FF00
7FE7FE00
ENDCHAR
STARTCHAR uni03BC
ENCODING 956
SWIDTH 813 0
DWIDTH 26 0
BBX 24 25 1 -6
BITMAP
07E07E
080981
180B81
788F89
F88F89
F88F89
F88F89
F88F89
F88F89
F88F89
F88F89
F88F89
F88F09
F88211
F88011
F8E021
F89FC2
F88004
F80018
F80FF0
F80FE0
F81F80
FFFE00
FFC000
FF0000
ENDCHAR
STARTCHAR pi
ENCODING 960
SWIDTH 821 0
DWIDTH 26 0
BBX 24 23 1 -4
BITMAP
07FFFE
080001
180001
787FF1
F88009
F88009
F88009
F88F89
F88F89
F88F89
F88F89
F88F89
F88F89
F88F89
F88F89
F88F89
F80F81
F80F81
F80F81
FFFFFE
FFCFFC
FF8FF8
7F0FF0
ENDCHAR
STARTCHAR Ddotbelow
ENCODING 7692
SWIDTH 846 0
DWIDTH 27 0
BBX 25 36 1 -12
BITMAP
07FFF800
08000600
38000100
78000080
78FFA080
F8801080
F8800880
F88F0880
F88F8480
F88F8480
F88F8480
F88F8480
F88F8480
F88F8480
F88F8480
F88F8480
F88F8480
F88F0480
F8800880
F8800880
F8801080
F8FFA100
F8000200
F8000C00
FFFFF800
FFE03000
FFE02000
7FE02000
01E22000
01E22000
03E02000
03E02000
03FFC000
03FF0000
03FE0000
01FC0000
ENDCHAR
STARTCHAR ddotbelow
ENCODING 7693
SWIDTH 846 0
DWIDTH 27 0
BBX 25 36 1 -12
BITMAP
07FFF800
08000600
38000100
78000080
78FFA080
F8801080
F8800880
F88F0880
F88F8480
F88F8480
F88F8480
F88F8480
F88F8480
F88F8480
F88F8480
F88F8480
F88F8480
F88F0480
F8800880
F8800880
F8801080
F8FFA100
F8000200
F8000C00
FFFFF800
FFE03000
FFE02000
7FE02000
01E22000
01E22000
03E02000
03E02000
03FFC000
03FF0000
03FE0000
01FC0000
ENDCHAR
STARTCHAR Dlinebelow
ENCODING 7694
SWIDTH 846 0
DWIDTH 27 0
BBX 25 35 1 -11
BITMAP
07FFF800
08000600
38000100
78000080
78FFA080
F8801080
F8800880
F88F0880
F88F8480
F88F8480
F88F8480
F88F8480
F88F8480
F88F8480
F88F8480
F88F8480
F88F8480
F88F0480
F8800880
F8800880
F8801080
F8FFA100
F8000300
F8000400
FFFFF800
FFFFF800
FF000400
7F000400
071FC400
0F000400
1F000400
1FFFF800
1FFFF000
1FFFC000
0FFF8000
ENDCHAR
STARTCHAR dlinebelow
ENCODING 7695
SWIDTH 846 0
DWIDTH 27 0
BBX 25 35 1 -11
BITMAP
07FFF800
08000600
38000100
78000080
78FFA080
F8801080
F8800880
F88F0880
F88F8480
F88F8480
F88F8480
F88F8480
F88F8480
F88F8480
F88F8480
F88F8480
F88F8480
F88F0480
F8800880
F8800880
F8801080
F8FFA100
F8000300
F8000400
FFFFF800
FFFFF800
FF000400
7F000400
071FC400
0F000400
1F000400
1FFFF800
1FFFF000
1FFFC000
0FFF8000
ENDCHAR
STARTCHAR Gmacron
ENCODING 7712
SWIDTH 808 0
DWIDTH 26 0
BBX 24 34 1 -4
BITMAP
00FFF8
010004
030004
071FE4
0F0004
0F0004
0FFFFC
0FC004
0E0004
0C0004
082FE4
184004
388004
7887F8
788FF0
F88FE0
F88F80
F8907E
F89181
F89301
F89701
F88F11
F88F11
F88F11
F88011
F88011
F84011
F82FF1
FC0001
7F0001
7FFFFE
3FFFFC
1FFFF8
07FFF0
ENDCHAR
STARTCHAR gmacron
ENCODING 7713
SWIDTH 808 0
DWIDTH 26 0
BBX 24 34 1 -4
BITMAP
00FFF8
010004
030004
071FE4
0F0004
0F0004
0FFFFC
0FC004
0E0004
0C0004
082FE4
184004
388004
7887F8
788FF0
F88FE0
F88F80
F8907E
F89181
F89301
F89701
F88F11
F88F11
F88F11
F88011
F88011
F84011
F82FF1
FC0001
7F0001
7FFFFE
3FFFFC
1FFFF8
07FFF0
ENDCHAR
STARTCHAR Hdotbelow
ENCODING 7716
SWIDTH 859 0
DWIDTH 27 0
BBX 25 36 1 -12
BITMAP
07F07F80
0808C080
3809C080
780BC080
788FC480
F88FC480
F88FC480
F88FC480
F88FC480
F8800480
F8800480
F8800480
F8FFF880
F8800480
F8800480
F8800480
F88FC480
F88FC480
F88FC480
F88FC480
F88FC480
F80FC080
F80FC080
F80FC080
FFF7FF00
FFFFFE00
FFA03C00
7F601800
00E22000
01E22000
01E02000
01E02000
01FFC000
01FF8000
01FE0000
01FC0000
ENDCHAR
STARTCHAR hdotbelow
ENCODING 7717
SWIDTH 859 0
DWIDTH 27 0
BBX 25 36 1 -12
BITMAP
07F07F80
0808C080
3809C080
780BC080
788FC480
F88FC480
F88FC480
F88FC480
F88FC480
F8800480
F8800480
F8800480
F8FFF880
F8800480
F8800480
F8800480
F88FC480
F88FC480
F88FC480
F88FC480
F88FC480
F80FC080
F80FC080
F80FC080
FFF7FF00
FFFFFE00
FFA03C00
7F601800
00E22000
01E22000
01E02000
01E02000
01FFC000
01FF8000
01FE0000
01FC0000
ENDCHAR
STARTCHAR Hbrevebelow
ENCODING 7722
SWIDTH 859 0
DWIDTH 27 0
BBX 25 36 1 -12
BITMAP
07F07F80
0808C080
3809C080
780BC080
788FC480
F88FC480
F88FC480
F88FC480
F88FC480
F8800480
F8800480
F8800480
F8FFF880
F8800480
F8800480
F8800480
F88FC480
F88FC480
F88FC480
F88FC480
F88FC480
F80FC080
F80FC080
F80FC080
FFF7FF00
FFFFFE00
FF078400
7F078400
0F201400
0F102400
1F0FC400
1F800800
0FF87000
0FFFC000
0FFF8000
07FF0000
ENDCHAR
STARTCHAR hbrevebelow
ENCODING 7723
SWIDTH 859 0
DWIDTH 27 0
BBX 25 36 1 -12
BITMAP
07F07F80
0808C080
3809C080
780BC080
788FC480
F88FC480
F88FC480
F88FC480
F88FC480
F8800480
F8800480
F8800480
F8FFF880
F8800480
F8800480
F8800480
F88FC480
F88FC480
F88FC480
F88FC480
F88FC480
F80FC080
F80FC080
F80FC080
FFF7FF00
FFFFFE00
FF078400
7F078400
0F201400
0F102400
1F0FC400
1F800800
0FF87000
0FFFC000
0FFF8000
07FF0000
ENDCHAR
STARTCHAR Ldotbelow
ENCODING 7734
SWIDTH 795 0
DWIDTH 25 0
BBX 24 36 1 -12
BITMAP
07F000
080800
380800
788800
788800
F88800
F88800
F88800
F88800
F88800
F88800
F8887E
F88881
F88981
F88F81
F88F91
F88F91
F88F91
F88011
F88011
F88011
F8FFF1
F80001
F80001
FFFFFE
FFE03C
FFE038
7FE020
01E220
03E220
03E020
03E040
03FF80
03FF00
03FE00
01FC00
ENDCHAR
STARTCHAR ldotbelow
ENCODING 7735
SWIDTH 795 0
DWIDTH 25 0
BBX 24 36 1 -12
BITMAP
07F000
080800
380800
788800
788800
F88800
F88800
F88800
F88800
F88800
F88800
F8887E
F88881
F88981
F88F81
F88F91
F88F91
F88F91
F88011
F88011
F88011
F8FFF1
F80001
F80001
FFFFFE
FFE03C
FFE038
7FE020
01E220
03E220
03E020
03E040
03FF80
03FF00
03FE00
01FC00
ENDCHAR
STARTCHAR Ldotbelowmacron
ENCODING 7736
SWIDTH 795 0
DWIDTH 25 0
BBX 24 42 1 -12
BITMAP
01FFF0
020008
060008
0E3FC8
1E0008
1E0008
1FFFF0
180FE0
180F80
380F00
788800
F88800
F88800
F88800
F88800
F88800
F88800
F8887E
F88881
F88981
F88F81
F88F91
F88F91
F88F91
F88011
F88011
F88011
F8FFF1
F80001
F80001
FFFFFE
FFE03C
FFE038
7FE020
01E220
03E220
03E020
03E040
03FF80
03FF00
03FE00
01FC00
ENDCHAR
STARTCHAR ldotbelowmacron
ENCODING 7737
SWIDTH 795 0
DWIDTH 25 0
BBX 24 42 1 -12
BITMAP
01FFF0
020008
060008
0E3FC8
1E0008
1E0008
1FFFF0
180FE0
180F80
380F00
788800
F88800
F88800
F88800
F88800
F88800
F88800
F8887E
F88881
F88981
F88F81
F88F91
F88F91
F88F91
F88011
F88011
F88011
F8FFF1
F80001
F80001
FFFFFE
FFE03C
FFE038
7FE020
01E220
03E220
03E020
03E040
03FF80
03FF00
03FE00
01FC00
ENDCHAR
STARTCHAR Llinebelow
ENCODING 7738
SWIDTH 795 0
DWIDTH 25 0
BBX 24 34 1 -10
BITMAP
07F000
080800
380800
788800
788800
F88800
F88800
F88800
F88800
F88800
F88800
F8887E
F88881
F88B81
F88F91
F88F91
F88F91
F88F91
F88011
F88011
F8FFF1
F80001
F80001
F80001
FFFFFE
FE000C
FE0008
7E3FC8
0E0008
1E0008
1FFFF0
1FFFE0
1FFFC0
1FFF00
ENDCHAR
STARTCHAR llinebelow
ENCODING 7739
SWIDTH 795 0
DWIDTH 25 0
BBX 24 34 1 -10
BITMAP
07F000
080800
380800
788800
788800
F88800
F88800
F88800
F88800
F88800
F88800
F8887E
F88881
F88B81
F88F91
F88F91
F88F91
F88F91
F88011
F88011
F8FFF1
F80001
F80001
F80001
FFFFFE
FE000C
FE0008
7E3FC8
0E0008
1E0008
1FFFF0
1FFFE0
1FFFC0
1FFF00
ENDCHAR
STARTCHAR Mdotbelow
ENCODING 7746
SWIDTH 949 0
DWIDTH 30 0
BBX 28 36 1 -12
BITMAP
07F80FF0
08081010
38042010
78046010
7842C310
F8A1C510
F8918910
F8889110
F8841110
F8842110
F8824110
F8888910
F8880910
F8881110
F88C1110
F88C3110
F88FF110
F88FF110
F88EF110
F88CF110
F888F110
F808F010
F808F010
F808F010
FFF0FFE0
FFC7FFC0
FF880F80
7F380F00
00788800
00F88800
00F80800
00F81000
00FFE000
00FFC000
00FF8000
00FF0000
ENDCHAR
STARTCHAR mdotbelow
ENCODING 7747
SWIDTH 949 0
DWIDTH 30 0
BBX 28 36 1 -12
BITMAP
07F80FF0
08081010
38042010
78046010
7842C310
F8A1C510
F8918910
F8889110
F8841110
F8842110
F8824110
F8888910
F8880910
F8881110
F88C1110
F88C3110
F88FF110
F88FF110
F88EF110
F88CF110
F888F110
F808F010
F808F010
F808F010
FFF0FFE0
FFC7FFC0
FF880F80
7F380F00
00788800
00F88800
00F80800
00F81000
00FFE000
00FFC000
00FF8000
00FF0000
ENDCHAR
STARTCHAR Ndotaccent
ENCODING 7748
SWIDTH 853 0
DWIDTH 27 0
BBX 25 35 1 -4
BITMAP
001FC000
00202000
00602000
01E22000
01E22000
01E02000
01E02000
063FDF80
081F8080
380F8080
78058080
78838480
F8C18480
F8A18480
F8908480
F8884480
F8840480
F8820480
F8810480
F8908480
F8884480
F88C4480
F88C2480
F88E1480
F88F0880
F88F8480
F88F8480
F88F8480
F80F8080
F80F8080
F80FC080
FFF7FF00
FFC7FE00
FF87FC00
7F07F000
ENDCHAR
STARTCHAR ndotaccent
ENCODING 7749
SWIDTH 853 0
DWIDTH 27 0
BBX 25 35 1 -4
BITMAP
001FC000
00202000
00602000
01E22000
01E22000
01E02000
01E02000
063FDF80
081F8080
380F8080
78058080
78838480
F8C18480
F8A18480
F8908480
F8884480
F8840480
F8820480
F8810480
F8908480
F8884480
F88C4480
F88C2480
F88E1480
F88F0880
F88F8480
F88F8480
F88F8480
F80F8080
F80F8080
F80FC080
FFF7FF00
FFC7FE00
FF87FC00
7F07F000
ENDCHAR
STARTCHAR Ndotbelow
ENCODING 7750
SWIDTH 853 0
DWIDTH 27 0
BBX 25 36 1 -12
BITMAP
07E07F80
08108080
38098080
78058080
78838480
F8C18480
F8A18480
F8908480
F8884480
F8840480
F8820480
F8810480
F8908480
F8884480
F88C4480
F88C2480
F88E1480
F88F0880
F88F8480
F88F8480
F88F8480
F80F8080
F80F8080
F80FC080
FFF7FF00
FFDFFE00
FFA03C00
7F603000
00E22000
01E22000
01E02000
01E02000
01FFC000
01FF8000
01FE0000
01FC0000
ENDCHAR
STARTCHAR ndotbelow
ENCODING 7751
SWIDTH 853 0
DWIDTH 27 0
BBX 25 36 1 -12
BITMAP
07E07F80
08108080
38098080
78058080
78838480
F8C18480
F8A18480
F8908480
F8884480
F8840480
F8820480
F8810480
F8908480
F8884480
F88C4480
F88C2480
F88E1480
F88F0880
F88F8480
F88F8480
F88F8480
F80F8080
F80F8080
F80FC080
FFF7FF00
FFDFFE00
FFA03C00
7F603000
00E22000
01E22000
01E02000
01E02000
01FFC000
01FF8000
01FE0000
01FC0000
ENDCHAR
STARTCHAR Nlinebelow
ENCODING 7752
SWIDTH 853 0
DWIDTH 27 0
BBX 25 34 1 -10
BITMAP
07E07F80
08108080
38098080
78078080
78C38480
F8A18480
F8908480
F8888480
F8884480
F8840480
F8820480
F8810480
F8888480
F8884480
F88C2480
F88E1480
F88F0880
F88F0880
F88F8480
F88F8480
F88F8480
F80F8080
F80F8080
F80F8080
FFF7FF00
FFFFFE00
FF000400
7F1FE400
0F000400
0F000400
0FFFF800
0FFFF000
0FFFE000
0FFF8000
ENDCHAR
STARTCHAR nlinebelow
ENCODING 7753
SWIDTH 853 0
DWIDTH 27 0
BBX 25 34 1 -10
BITMAP
07E07F80
08108080
38098080
78078080
78C38480
F8A18480
F8908480
F8888480
F8884480
F8840480
F8820480
F8810480
F8888480
F8884480
F88C2480
F88E1480
F88F0880
F88F0880
F88F8480
F88F8480
F88F8480
F80F8080
F80F8080
F80F8080
FFF7FF00
FFFFFE00
FF000400
7F1FE400
0F000400
0F000400
0FFFF800
0FFFF000
0FFFE000
0FFF8000
ENDCHAR
STARTCHAR Rdotbelow
ENCODING 7770
SWIDTH 843 0
DWIDTH 27 0
BBX 25 36 1 -12
BITMAP
07FFF800
08000400
38000200
78000200
78FFC200
F8802100
F8802100
F88F1100
F88F1100
F88F1200
F88F1200
F8802600
F8802100
F8FFF080
F8800880
F8800480
F8800480
F88FC480
F88FC480
F88FC480
F88FC480
F88FC480
F80FC080
F80FC080
FFF7FF80
FFEFFE00
FFB01C00
7F601800
00E12000
01E12000
01E02000
01F02000
01FFC000
01FF8000
01FF0000
01FC0000
ENDCHAR
STARTCHAR rdotbelow
ENCODING 7771
SWIDTH 843 0
DWIDTH 27 0
BBX 25 36 1 -12
BITMAP
07FFF800
08000400
38000200
78000200
78FFC200
F8802100
F8802100
F88F1100
F88F1100
F88F1200
F88F1200
F8802600
F8802100
F8FFF080
F8800880
F8800480
F8800480
F88FC480
F88FC480
F88FC480
F88FC480
F88FC480
F80FC080
F80FC080
FFF7FF80
FFEFFE00
FFB01C00
7F601800
00E12000
01E12000
01E02000
01F02000
01FFC000
01FF8000
01FF0000
01FC0000
ENDCHAR
STARTCHAR Rdotbelowmacron
ENCODING 7772
SWIDTH 843 0
DWIDTH 27 0
BBX 25 42 1 -12
BITMAP
01FFE000
02000800
0E000800
1E7F8800
3E000800
3E001000
3FFFE000
38003800
38000400
38000200
78FFC200
F8802100
F8802100
F88F1100
F88F1100
F88F1200
F88F1200
F8802600
F8802100
F8FFF080
F8800880
F8800480
F8800480
F88FC480
F88FC480
F88FC480
F88FC480
F88FC480
F80FC080
F80FC080
FFF7FF80
FFEFFE00
FFB01C00
7F601800
00E12000
01E12000
01E02000
01F02000
01FFC000
01FF8000
01FF0000
01FC0000
ENDCHAR
STARTCHAR rdotbelowmacron
ENCODING 7773
SWIDTH 843 0
DWIDTH 27 0
BBX 25 42 1 -12
BITMAP
01FFE000
02000800
0E000800
1E7F8800
3E000800
3E001000
3FFFE000
38003800
38000400
38000200
78FFC200
F8802100
F8802100
F88F1100
F88F1100
F88F1200
F88F1200
F8802600
F8802100
F8FFF080
F8800880
F8800480
F8800480
F88FC480
F88FC480
F88FC480
F88FC480
F88FC480
F80FC080
F80FC080
FFF7FF80
FFEFFE00
FFB01C00
7F601800
00E12000
01E12000
01E02000
01F02000
01FFC000
01FF8000
01FF0000
01FC0000
ENDCHAR
STARTCHAR Rlinebelow
ENCODING 7774
SWIDTH 843 0
DWIDTH 27 0
BBX 25 34 1 -10
BITMAP
07FFF800
08000400
38000200
78FFC200
78802200
F8802100
F8801100
F88F1100
F88F1100
F88F1200
F88F1200
F8802600
F8802100
F8FFF080
F8800880
F8800480
F8800480
F88FC480
F88FC480
F88FC480
F88FC480
F80FC080
F80FC080
F80FC080
FFF7FF80
FFFFFE00
FF000400
7F1FC400
0F000400
1F000400
1FFFF800
1FFFF000
1FFFE000
0FFF8000
ENDCHAR
STARTCHAR rlinebelow
ENCODING 7775
SWIDTH 843 0
DWIDTH 27 0
BBX 25 34 1 -10
BITMAP
07FFF800
08000400
38000200
78FFC200
78802200
F8802100
F8801100
F88F1100
F88F1100
F88F1200
F88F1200
F8802600
F8802100
F8FFF080
F8800880
F8800480
F8800480
F88FC480
F88FC480
F88FC480
F88FC480
F80FC080
F80FC080
F80FC080
FFF7FF80
FFFFFE00
FF000400
7F1FC400
0F000400
1F000400
1FFFF800
1FFFF000
1FFFE000
0FFF8000
ENDCHAR
STARTCHAR Sdotaccent
ENCODING 7776
SWIDTH 750 0
DWIDTH 24 0
BBX 23 35 1 -4
BITMAP
003F00
004040
01C040
03C440
07C440
07C040
07C080
07FF78
040004
040004
080004
107FC4
308004
708004
F10FF8
F10FE0
F100E0
F10018
F08004
F87C04
FC03C2
FE0022
FFE022
FFFE22
7FFE22
100022
100022
300042
F1FF84
F00008
F00010
FFFFE0
FFFFC0
FFFF00
FFFE00
ENDCHAR
STARTCHAR sdotaccent
ENCODING 7777
SWIDTH 750 0
DWIDTH 24 0
BBX 23 35 1 -4
BITMAP
003F00
004040
01C040
03C440
07C440
07C040
07C080
07FF78
040004
040004
080004
107FC4
308004
708004
F10FF8
F10FE0
F100E0
F10018
F08004
F87C04
FC03C2
FE0022
FFE022
FFFE22
7FFE22
100022
100022
300042
F1FF84
F00008
F00010
FFFFE0
FFFFC0
FFFF00
FFFE00
ENDCHAR
STARTCHAR Sdotbelow
ENCODING 7778
SWIDTH 750 0
DWIDTH 24 0
BBX 23 36 1 -12
BITMAP
01FFF8
020004
040004
080004
107FC4
708004
708004
F10FF8
F10FE0
F100E0
F10018
F08004
F87C04
FC03C2
FE0022
FFE022
FFFE22
7FFE22
100022
100022
300042
F1FF84
F00008
F00030
FFFFE0
FFC040
FFC040
FFC040
03C440
07C440
07C040
07C040
07FF80
07FE00
07FC00
03F800
ENDCHAR
STARTCHAR sdotbelow
ENCODING 7779
SWIDTH 750 0
DWIDTH 24 0
BBX 23 36 1 -12
BITMAP
01FFF8
020004
040004
080004
107FC4
708004
708004
F10FF8
F10FE0
F100E0
F10018
F08004
F87C04
FC03C2
FE0022
FFE022
FFFE22
7FFE22
100022
100022
300042
F1FF84
F00008
F00030
FFFFE0
FFC040
FFC040
FFC040
03C440
07C440
07C040
07C040
07FF80
07FE00
07FC00
03F800
ENDCHAR
STARTCHAR Tdotbelow
ENCODING 7788
SWIDTH 756 0
DWIDTH 24 0
BBX 24 36 0 -12
BITMAP
0FFFFF
180001
380001
780001
F9FFF9
F80201
F80201
FFC23E
FFC23C
FFC238
FFC230
03C220
03C220
03C220
03C220
03C220
03C220
03C220
03C220
03C220
03C220
03C020
03C020
03E040
03FF80
03E040
03E020
03E020
01E220
03E220
03E020
03E040
03FF80
03FF00
03FE00
01FC00
ENDCHAR
STARTCHAR tdotbelow
ENCODING 7789
SWIDTH 756 0
DWIDTH 24 0
BBX 24 36 0 -12
BITMAP
0FFFFF
180001
380001
780001
F9FFF9
F80201
F80201
FFC23E
FFC23C
FFC238
FFC230
03C220
03C220
03C220
03C220
03C220
03C220
03C220
03C220
03C220
03C220
03C020
03C020
03E040
03FF80
03E040
03E020
03E020
01E220
03E220
03E020
03E040
03FF80
03FF00
03FE00
01FC00
ENDCHAR
STARTCHAR Tlinebelow
ENCODING 7790
SWIDTH 756 0
DWIDTH 24 0
BBX 24 34 0 -10
BITMAP
0FFFFF
180001
380001
79FFF9
F80201
F80201
F80201
FFC23E
FFC23C
FFC238
7FC220
03C220
03C220
03C220
03C220
03C220
03C220
03C220
03C220
03C220
03C220
03C020
03C020
03C020
03FFC0
03FFF0
030004
063FC4
0E0004
1F0004
1FFFF8
1FFFE0
1FFFC0
1FFF80
ENDCHAR
STARTCHAR tlinebelow
ENCODING 7791
SWIDTH 756 0
DWIDTH 24 0
BBX 24 34 0 -10
BITMAP
0FFFFF
180001
380001
79FFF9
F80201
F80201
F80201
FFC23E
FFC23C
FFC238
7FC220
03C220
03C220
03C220
03C220
03C220
03C220
03C220
03C220
03C220
03C220
03C020
03C020
03C020
03FFC0
03FFF0
030004
063FC4
0E0004
1F0004
1FFFF8
1FFFE0
1FFFC0
1FFF80
ENDCHAR
STARTCHAR Wgrave
ENCODING 7808
SWIDTH 931 0
DWIDTH 30 0
BBX 28 36 1 -4
BITMAP
00700000
008FF000
01800E00
038F0200
0780F200
0F800200
0FC00200
0FFFC200
081FFDF0
180FF010
380FF010
78907110
F890F110
F890F110
F890F110
F890F110
F893F110
F8943110
F8881110
F8881110
F8881110
F8918910
F8824110
F8842110
F8842110
F8881110
F8899120
FC918920
FC518A20
7C23C440
7E03C040
7E03C040
3FFFFF80
3FF7FE00
3FE3FC00
1FC3F800
ENDCHAR
STARTCHAR wgrave
ENCODING 7809
SWIDTH 931 0
DWIDTH 30 0
BBX 28 36 1 -4
BITMAP
00700000
008FF000
01800E00
038F0200
0780F200
0F800200
0FC00200
0FFFC200
081FFDF0
180FF010
380FF010
78907110
F890F110
F890F110
F890F110
F890F110
F893F110
F8943110
F8881110
F8881110
F8881110
F8918910
F8824110
F8842110
F8842110
F8881110
F8899120
FC918920
FC518A20
7C23C440
7E03C040
7E03C040
3FFFFF80
3FF7FE00
3FE3FC00
1FC3F800
ENDCHAR
STARTCHAR Wacute
ENCODING 7810
SWIDTH 931 0
DWIDTH 30 0
BBX 28 36 1 -4
BITMAP
00000E00
000FF200
00700100
00C0F100
01CF0100
03C00100
07C00600
07C3F800
083FFFF0
180FF010
38083010
78907110
F890F110
F890F110
F890F110
F890F110
F893F110
F8943110
F8881110
F8881110
F8881110
F8918910
F8824110
F8842110
F8842110
F8881110
F8899120
FC918920
FC518A20
7C23C440
7E03C040
7E03C040
3FFFFF80
3FF7FE00
3FE3FC00
1FC3F800
ENDCHAR
STARTCHAR wacute
ENCODING 7811
SWIDTH 931 0
DWIDTH 30 0
BBX 28 36 1 -4
BITMAP
00000E00
000FF200
00700100
00C0F100
01CF0100
03C00100
07C00600
07C3F800
083FFFF0
180FF010
38083010
78907110
F890F110
F890F110
F890F110
F890F110
F893F110
F8943110
F8881110
F8881110
F8881110
F8918910
F8824110
F8842110
F8842110
F8881110
F8899120
FC918920
FC518A20
7C23C440
7E03C040
7E03C040
3FFFFF80
3FF7FE00
3FE3FC00
1FC3F800
ENDCHAR
STARTCHAR Wdieresis
ENCODING 7812
SWIDTH 931 0
DWIDTH 30 0
BBX 28 35 1 -4
BITMAP
007C7E00
00818100
03018100
07118900
0F118900
0F018100
0F818200
0FFFFFE0
081FF810
180FF010
3817F010
7890F110
F890F110
F890F110
F890F110
F893F110
F8943110
F8881110
F8881110
F8881110
F8918910
F8824110
F8842110
F8842110
F8881110
F8899120
F8918920
FC518A20
FC23C440
7E03C040
7E03C040
3FFFFF80
3FF7FE00
3FE3FC00
1FC3F800
ENDCHAR
STARTCHAR wdieresis
ENCODING 7813
SWIDTH 931 0
DWIDTH 30 0
BBX 28 35 1 -4
BITMAP
007C7E00
00818100
03018100
07118900
0F118900
0F018100
0F818200
0FFFFFE0
081FF810
180FF010
3817F010
7890F110
F890F110
F890F110
F890F110
F893F110
F8943110
F8881110
F8881110
F8881110
F8918910
F8824110
F8842110
F8842110
F8881110
F8899120
F8918920
FC518A20
FC23C440
7E03C040
7E03C040
3FFFFF80
3FF7FE00
3FE3FC00
1FC3F800
ENDCHAR
STARTCHAR Ydotaccent
ENCODING 7822
SWIDTH 805 0
DWIDTH 26 0
BBX 24 35 1 -4
BITMAP
003F80
004040
00C040
03C440
03C440
03C040
03E040
0C1FBF
101F81
301F81
701F81
F11F89
F11F89
F11F89
F11F89
F10F89
F10F09
F08611
F84621
FC4042
FC2044
FE1084
7F0F08
7F8410
3F8420
1FC420
0FC440
0FC440
07C040
03C040
03C040
03FF80
03FF00
03FE00
03FC00
ENDCHAR
STARTCHAR ydotaccent
ENCODING 7823
SWIDTH 805 0
DWIDTH 26 0
BBX 24 35 1 -4
BITMAP
003F80
004040
00C040
03C440
03C440
03C040
03E040
0C1FBF
101F81
301F81
701F81
F11F89
F11F89
F11F89
F11F89
F10F89
F10F09
F08611
F84621
FC4042
FC2044
FE1084
7F0F08
7F8410
3F8420
1FC420
0FC440
0FC440
07C040
03C040
03C040
03FF80
03FF00
03FE00
03FC00
ENDCHAR
STARTCHAR Zdotbelow
ENCODING 7826
SWIDTH 760 0
DWIDTH 24 0
BBX 23 36 1 -12
BITMAP
0FFFFC
080004
380004
780004
F8FFC4
F80024
F80024
FFF844
FFF084
FFE108
7FC210
018220
010440
030840
061080
0C1100
182200
1043FC
308002
708002
F10002
F0FFE2
F00002
F00002
FFFFFC
FFC078
FFC060
FFC040
03C440
03C440
07C040
07C040
07FF80
07FE00
07FC00
03F800
ENDCHAR
STARTCHAR zdotbelow
ENCODING 7827
SWIDTH 760 0
DWIDTH 24 0
BBX 23 36 1 -12
BITMAP
0FFFFC
080004
380004
780004
F8FFC4
F80024
F80024
FFF844
FFF084
FFE108
7FC210
018220
010440
030840
061080
0C1100
182200
1043FC
308002
708002
F10002
F0FFE2
F00002
F00002
FFFFFC
FFC078
FFC060
FFC040
03C440
03C440
07C040
07C040
07FF80
07FE00
07FC00
03F800
ENDCHAR
STARTCHAR tdieresis
ENCODING 7831
SWIDTH 756 0
DWIDTH 24 0
BBX 24 35 0 -4
BITMAP
01F9F8
020604
060604
1E2624
3E2624
3E0604
3E0604
39F9FB
380001
380001
380001
79FFF9
F80201
F80201
FFC23E
FFC23C
FFC238
FFC230
03C220
03C220
03C220
03C220
03C220
03C220
03C220
03C220
03C220
03C220
03C020
03C020
03C020
03FFC0
03FF00
03FE00
03FC00
ENDCHAR
STARTCHAR Germandbls
ENCODING 7838
SWIDTH 859 0
DWIDTH 27 0
BBX 26 28 1 -4
BITMAP
07FFF800
08000400
38000200
78000200
787F8200
F8802200
F8802200
F88E2200
F88E2200
F88E2200
F88E4100
F88E4080
F88C7840
F88C0440
F88C0240
F88FE240
F88FE240
F88FE240
F88C0240
F88C0240
F88C0440
F88C7840
F80C0080
F80C0100
FFFFFE00
FFFFF800
FFBFF000
7F3FC000
ENDCHAR
STARTCHAR Adotbelow
ENCODING 7840
SWIDTH 830 0
DWIDTH 27 0
BBX 25 36 1 -12
BITMAP
007FF000
00800800
01000800
03000400
061F8400
0E204400
0E202200
1C262200
1C472100
18471100
388F1100
388F0880
78808880
79000880
71000880
F0FFF880
F1000880
F1000880
F11F8880
F11F8880
F11F8880
F01F8080
F0178080
F0178080
FFE7FF00
FFDFFE00
FF203800
FE603000
01E22000
03E22000
03E02000
03E02000
03FFC000
03FF0000
03FE0000
01FC0000
ENDCHAR
STARTCHAR adotbelow
ENCODING 7841
SWIDTH 830 0
DWIDTH 27 0
BBX 25 36 1 -12
BITMAP
007FF000
00800800
01000800
03000400
061F8400
0E204400
0E202200
1C262200
1C472100
18471100
388F1100
388F0880
78808880
79000880
71000880
F0FFF880
F1000880
F1000880
F11F8880
F11F8880
F11F8880
F01F8080
F0178080
F0178080
FFE7FF00
FFDFFE00
FF203800
FE603000
01E22000
03E22000
03E02000
03E02000
03FFC000
03FF0000
03FE0000
01FC0000
ENDCHAR
STARTCHAR Ahookabove
ENCODING 7842
SWIDTH 830 0
DWIDTH 27 0
BBX 25 37 1 -4
BITMAP
003FC000
00402000
01DF9000
03C05000
07FE5000
07F05000
07E79000
00E02000
01F0C000
018F3000
01000800
01000800
03000400
061F8400
0E204400
0E202200
1C262200
1C472100
18471100
388F1100
388F0880
78808880
79000880
71000880
F0FFF880
F1000880
F1000880
F11F8880
F11F8880
F11F8880
F01F8080
F0178080
F0178080
FFE7FF00
FFC7FE00
FF07F800
FE07F000
ENDCHAR
STARTCHAR ahookabove
ENCODING 7843
SWIDTH 830 0
DWIDTH 27 0
BBX 25 37 1 -4
BITMAP
003FC000
00402000
01DF9000
03C05000
07FE5000
07F05000
07E79000
00E02000
01F0C000
018F3000
01000800
01000800
03000400
061F8400
0E204400
0E202200
1C262200
1C472100
18471100
388F1100
388F0880
78808880
79000880
71000880
F0FFF880
F1000880
F1000880
F11F8880
F11F8880
F11F8880
F01F8080
F0178080
F0178080
FFE7FF00
FFC7FE00
FF07F800
FE07F000
ENDCHAR
STARTCHAR Acircumflexacute
ENCODING 7844
SWIDTH 830 0
DWIDTH 27 0
BBX 25 43 1 -4
BITMAP
00003C00
0000C200
00010200
00073200
000F0200
001F0200
001F0C00
001FF000
00606000
00801800
010F0400
0330C400
07000400
1F020400
1F3FE400
1FFFF800
1F800800
1F000800
1F000800
071F8400
0E204400
0E202200
1C262200
1C472200
1C471100
388F1100
388F0900
78808880
71000880
71000880
F0FFF880
F1000880
F1000880
F11F8880
F11F8880
F11F8880
F01F8080
F0178080
F0178080
FFE7FF00
FFC7FE00
FF07F800
FE07F000
ENDCHAR
STARTCHAR acircumflexacute
ENCODING 7845
SWIDTH 830 0
DWIDTH 27 0
BBX 25 43 1 -4
BITMAP
00003C00
0000C200
00010200
00073200
000F0200
001F0200
001F0C00
001FF000
00606000
00801800
010F0400
0330C400
07000400
1F020400
1F3FE400
1FFFF800
1F800800
1F000800
1F000800
071F8400
0E204400
0E202200
1C262200
1C472200
1C471100
388F1100
388F0900
78808880
71000880
71000880
F0FFF880
F1000880
F1000880
F11F8880
F11F8880
F11F8880
F01F8080
F0178080
F0178080
FFE7FF00
FFC7FE00
FF07F800
FE07F000
ENDCHAR
STARTCHAR Acircumflexgrave
ENCODING 7846
SWIDTH 830 0
DWIDTH 27 0
BBX 25 42 1 -4
BITMAP
0001F000
00060C00
000E0400
001E7400
001E0400
001E0400
001FE400
00607800
00800800
010F0400
0330C400
07000400
1F020400
1F3FE400
1FFFF800
1F800800
1F000800
1F000800
071F8400
0E204400
0E202200
1C262200
1C472200
1C471100
388F1100
388F0900
78808880
71000880
71000880
F0FFF880
F1000880
F1000880
F11F8880
F11F8880
F11F8880
F01F8080
F0178080
F0178080
FFE7FF00
FFC7FE00
FF07F800
FE07F000
ENDCHAR
STARTCHAR acircumflexgrave
ENCODING 7847
SWIDTH 830 0
DWIDTH 27 0
BBX 25 42 1 -4
BITMAP
0001F000
00060C00
000E0400
001E7400
001E0400
001E0400
001FE400
00607800
00800800
010F0400
0330C400
07000400
1F020400
1F3FE400
1FFFF800
1F800800
1F000800
1F000800
071F8400
0E204400
0E202200
1C262200
1C472200
1C471100
388F1100
388F0900
78808880
71000880
71000880
F0FFF880
F1000880
F1000880
F11F8880
F11F8880
F11F8880
F01F8080
F0178080
F0178080
FFE7FF00
FFC7FE00
FF07F800
FE07F000
ENDCHAR
STARTCHAR Acircumflexhookabove
ENCODING 7848
SWIDTH 830 0
DWIDTH 27 0
BBX 25 45 1 -4
BITMAP
0000FF00
00030080
00077C80
000F0280
001FFA80
001FE280
001F8280
001F9C80
00038080
000FFF00
00307C00
00C00800
010F0400
0330C400
07000400
0F020400
1F3FE400
1FFFF800
1F800800
1F000800
1F000800
071F8400
0E204400
0E202200
1C262200
1C472200
1C471100
388F1100
388F0900
78808880
71000880
71000880
F0FFF880
F1000880
F1000880
F11F8880
F11F8880
F11F8880
F01F8080
F0178080
F0178080
FFE7FF00
FFC7FE00
FF07F800
FE07F000
ENDCHAR
STARTCHAR acircumflexhookabove
ENCODING 7849
SWIDTH 830 0
DWIDTH 27 0
BBX 25 45 1 -4
BITMAP
0000FF00
00030080
00077C80
000F0280
001FFA80
001FE280
001F8280
001F9C80
00038080
000FFF00
00307C00
00C00800
010F0400
0330C400
07000400
0F020400
1F3FE400
1FFFF800
1F800800
1F000800
1F000800
071F8400
0E204400
0E202200
1C262200
1C472200
1C471100
388F1100
388F0900
78808880
71000880
71000880
F0FFF880
F1000880
F1000880
F11F8880
F11F8880
F11F8880
F01F8080
F0178080
F0178080
FFE7FF00
FFC7FE00
FF07F800
FE07F000
ENDCHAR
STARTCHAR Acircumflextilde
ENCODING 7850
SWIDTH 830 0
DWIDTH 27 0
BBX 25 43 1 -4
BITMAP
007E1800
0181E400
03000400
071F0400
0F00C400
1F000400
1F7E1800
1FFFE000
1FE06000
1F801800
090F0400
0330C400
07000400
1F020400
1F3FE400
1FFFF800
1F800800
1F000800
1F000800
071F8400
0E204400
0E202200
1C262200
1C472200
1C471100
388F1100
388F0900
78808880
71000880
71000880
F0FFF880
F1000880
F1000880
F11F8880
F11F8880
F11F8880
F01F8080
F0178080
F0178080
FFE7FF00
FFC7FE00
FF07F800
FE07F000
ENDCHAR
STARTCHAR acircumflextilde
ENCODING 7851
SWIDTH 830 0
DWIDTH 27 0
BBX 25 43 1 -4
BITMAP
007E1800
0181E400
03000400
071F0400
0F00C400
1F000400
1F7E1800
1FFFE000
1FE06000
1F801800
090F0400
0330C400
07000400
1F020400
1F3FE400
1FFFF800
1F800800
1F000800
1F000800
071F8400
0E204400
0E202200
1C262200
1C472200
1C471100
388F1100
388F0900
78808880
71000880
71000880
F0FFF880
F1000880
F1000880
F11F8880
F11F8880
F11F8880
F01F8080
F0178080
F0178080
FFE7FF00
FFC7FE00
FF07F800
FE07F000
ENDCHAR
STARTCHAR Acircumflexdotbelow
ENCODING 7852
SWIDTH 830 0
DWIDTH 27 0
BBX 25 44 1 -12
BITMAP
000F0000
0030E000
00C01800
010F0400
0330C400
07000400
0F020400
1F3FE400
1FFFF800
1F800800
1F000800
1F000800
071F8400
0E204400
0E202200
1C262200
1C472200
1C471100
388F1100
388F0900
78808880
71000880
71000880
F0FFF880
F1000880
F1000880
F11F8880
F11F8880
F11F8880
F01F8080
F0178080
F0178080
FFE7FF00
FFDFFE00
FF203800
FE603000
01E22000
03E22000
03E02000
03E02000
03FFC000
03FF0000
03FE0000
01FC0000
ENDCHAR
STARTCHAR acircumflexdotbelow
ENCODING 7853
SWIDTH 830 0
DWIDTH 27 0
BBX 25 44 1 -12
BITMAP
000F0000
0030E000
00C01800
010F0400
0330C400
07000400
0F020400
1F3FE400
1FFFF800
1F800800
1F000800
1F000800
071F8400
0E204400
0E202200
1C262200
1C472200
1C471100
388F1100
388F0900
78808880
71000880
71000880
F0FFF880
F1000880
F1000880
F11F8880
F11F8880
F11F8880
F01F8080
F0178080
F0178080
FFE7FF00
FFDFFE00
FF203800
FE603000
01E22000
03E22000
03E02000
03E02000
03FFC000
03FF0000
03FE0000
01FC0000
ENDCHAR
STARTCHAR Abreveacute
ENCODING 7854
SWIDTH 830 0
DWIDTH 27 0
BBX 25 43 1 -4
BITMAP
0001E000
00061000
00081000
00199000
00781000
00F81000
00F86000
00FFF800
01070400
06070400
0E202400
1F202400
1F1FC800
1F801800
1FC02000
1FFFF000
1F800800
0F000800
03000400
071F8400
0E204400
0E202200
1C262200
1C472200
1C471100
388F1100
388F0900
78808880
71000880
71000880
F0FFF880
F1000880
F1000880
F11F8880
F11F8880
F11F8880
F01F8080
F0178080
F0178080
FFE7FF00
FFC7FE00
FF07F800
FE07F000
ENDCHAR
STARTCHAR abreveacute
ENCODING 7855
SWIDTH 830 0
DWIDTH 27 0
BBX 25 43 1 -4
BITMAP
0001E000
00061000
00081000
00199000
00781000
00F81000
00F86000
00FFF800
01070400
06070400
0E202400
1F202400
1F1FC800
1F801800
1FC02000
1FFFF000
1F800800
0F000800
03000400
071F8400
0E204400
0E202200
1C262200
1C472200
1C471100
388F1100
388F0900
78808880
71000880
71000880
F0FFF880
F1000880
F1000880
F11F8880
F11F8880
F11F8880
F01F8080
F0178080
F0178080
FFE7FF00
FFC7FE00
FF07F800
FE07F000
ENDCHAR
STARTCHAR Abrevegrave
ENCODING 7856
SWIDTH 830 0
DWIDTH 27 0
BBX 25 43 1 -4
BITMAP
00780000
00C70000
01C08000
03DC8000
07C08000
07C08000
07F08000
07FFF800
06050400
060B0400
0E242400
1F202400
1F1FC800
1F801800
1FC02000
1FFFF000
1F800800
0F000800
03000400
071F8400
0E204400
0E202200
1C262200
1C472200
1C471100
388F1100
388F0900
78808880
71000880
71000880
F0FFF880
F1000880
F1000880
F11F8880
F11F8880
F11F8880
F01F8080
F0178080
F0178080
FFE7FF00
FFC7FE00
FF07F800
FE07F000
ENDCHAR
STARTCHAR abrevegrave
ENCODING 7857
SWIDTH 830 0
DWIDTH 27 0
BBX 25 43 1 -4
BITMAP
00780000
00C70000
01C08000
03DC8000
07C08000
07C08000
07F08000
07FFF800
06050400
060B0400
0E242400
1F202400
1F1FC800
1F801800
1FC02000
1FFFF000
1F800800
0F000800
03000400
071F8400
0E204400
0E202200
1C262200
1C472200
1C471100
388F1100
388F0900
78808880
71000880
71000880
F0FFF880
F1000880
F1000880
F11F8880
F11F8880
F11F8880
F01F8080
F0178080
F0178080
FFE7FF00
FFC7FE00
FF07F800
FE07F000
ENDCHAR
STARTCHAR Abrevehookabove
ENCODING 7858
SWIDTH 830 0
DWIDTH 27 0
BBX 25 45 1 -4
BITMAP
001FE000
00201000
00EF8800
01E02800
03FF2800
03F02800
03F3C800
01F01000
00F86000
00FFF800
01070400
06070400
0E202400
1F202400
1F1FC800
1F801800
1FC02000
1FFFF000
1F800800
0F000800
03000400
071F8400
0E204400
0E202200
1C262200
1C472200
1C471100
388F1100
388F0900
78808880
71000880
71000880
F0FFF880
F1000880
F1000880
F11F8880
F11F8880
F11F8880
F01F8080
F0178080
F0178080
FFE7FF00
FFC7FE00
FF07F800
FE07F000
ENDCHAR
STARTCHAR abrevehookabove
ENCODING 7859
SWIDTH 830 0
DWIDTH 27 0
BBX 25 45 1 -4
BITMAP
001FE000
00201000
00EF8800
01E02800
03FF2800
03F02800
03F3C800
01F01000
00F86000
00FFF800
01070400
06070400
0E202400
1F202400
1F1FC800
1F801800
1FC02000
1FFFF000
1F800800
0F000800
03000400
071F8400
0E204400
0E202200
1C262200
1C472200
1C471100
388F1100
388F0900
78808880
71000880
71000880
F0FFF880
F1000880
F1000880
F11F8880
F11F8880
F11F8880
F01F8080
F0178080
F0178080
FFE7FF00
FFC7FE00
FF07F800
FE07F000
ENDCHAR
STARTCHAR Abrevetilde
ENCODING 7860
SWIDTH 830 0
DWIDTH 27 0
BBX 25 43 1 -4
BITMAP
00FF1800
0100E400
03000400
071FC400
0F000400
1F000800
1FFFF000
1FFFF800
1E070400
1E070400
0E202400
1F202400
1F1FC800
1F801800
1FC02000
1FFFF000
1F800800
0F000800
03000400
071F8400
0E204400
0E202200
1C262200
1C472200
1C471100
388F1100
388F0900
78808880
71000880
71000880
F0FFF880
F1000880
F1000880
F11F8880
F11F8880
F11F8880
F01F8080
F0178080
F0178080
FFE7FF00
FFC7FE00
FF07F800
FE07F000
ENDCHAR
STARTCHAR abrevetilde
ENCODING 7861
SWIDTH 830 0
DWIDTH 27 0
BBX 25 43 1 -4
BITMAP
00FF1800
0100E400
03000400
071FC400
0F000400
1F000800
1FFFF000
1FFFF800
1E070400
1E070400
0E202400
1F202400
1F1FC800
1F801800
1FC02000
1FFFF000
1F800800
0F000800
03000400
071F8400
0E204400
0E202200
1C262200
1C472200
1C471100
388F1100
388F0900
78808880
71000880
71000880
F0FFF880
F1000880
F1000880
F11F8880
F11F8880
F11F8880
F01F8080
F0178080
F0178080
FFE7FF00
FFC7FE00
FF07F800
FE07F000
ENDCHAR
STARTCHAR Abrevedotbelow
ENCODING 7862
SWIDTH 830 0
DWIDTH 27 0
BBX 25 44 1 -12
BITMAP
00F0F800
01090400
060B0400
0E242400
1F202400
1F1FC800
1F801800
1FC02000
1FFFF000
1F800800
0F000800
03000400
071F8400
0E204400
0E202200
1C262200
1C472200
1C471100
388F1100
388F0900
78808880
71000880
71000880
F0FFF880
F1000880
F1000880
F11F8880
F11F8880
F11F8880
F01F8080
F0178080
F0178080
FFE7FF00
FFDFFE00
FF203800
FE603000
01E22000
03E22000
03E02000
03E02000
03FFC000
03FF0000
03FE0000
01FC0000
ENDCHAR
STARTCHAR abrevedotbelow
ENCODING 7863
SWIDTH 830 0
DWIDTH 27 0
BBX 25 44 1 -12
BITMAP
00F0F800
01090400
060B0400
0E242400
1F202400
1F1FC800
1F801800
1FC02000
1FFFF000
1F800800
0F000800
03000400
071F8400
0E204400
0E202200
1C262200
1C472200
1C471100
388F1100
388F0900
78808880
71000880
71000880
F0FFF880
F1000880
F1000880
F11F8880
F11F8880
F11F8880
F01F8080
F0178080
F0178080
FFE7FF00
FFDFFE00
FF203800
FE603000
01E22000
03E22000
03E02000
03E02000
03FFC000
03FF0000
03FE0000
01FC0000
ENDCHAR
STARTCHAR Edotbelow
ENCODING 7864
SWIDTH 754 0
DWIDTH 24 0
BBX 22 36 1 -12
BITMAP
07FFFC
080004
380004
780004
78FFE4
F88004
F88004
F88FF8
F88FF0
F88020
F88010
F88010
F8FF90
F88010
F88010
F88FE0
F88FC0
F88FF8
F88004
F88004
F88004
F8FFE4
F80004
F80004
FFFFFC
FFC070
FFC060
7FC040
03C440
03C440
07C040
07C040
07FF80
07FE00
07FC00
03F800
ENDCHAR
STARTCHAR edotbelow
ENCODING 7865
SWIDTH 754 0
DWIDTH 24 0
BBX 22 36 1 -12
BITMAP
07FFFC
080004
380004
780004
78FFE4
F88004
F88004
F88FF8
F88FF0
F88020
F88010
F88010
F8FF90
F88010
F88010
F88FE0
F88FC0
F88FF8
F88004
F88004
F88004
F8FFE4
F80004
F80004
FFFFFC
FFC070
FFC060
7FC040
03C440
03C440
07C040
07C040
07FF80
07FE00
07FC00
03F800
ENDCHAR
STARTCHAR Ehookabove
ENCODING 7866
SWIDTH 754 0
DWIDTH 24 0
BBX 22 37 1 -4
BITMAP
007F80
008040
039F20
0780A0
0FFCA0
0FE0A0
0FCF20
01C040
03E180
041E7C
080004
380004
780004
78FFE4
F88004
F88004
F88FF8
F88FF0
F88020
F88010
F88010
F8FF90
F88010
F88010
F88FE0
F88FC0
F88FF8
F88004
F88004
F88004
F8FFE4
F80004
F80004
FFFFF8
FFFFF0
FFFFE0
7FFFC0
ENDCHAR
STARTCHAR ehookabove
ENCODING 7867
SWIDTH 754 0
DWIDTH 24 0
BBX 22 37 1 -4
BITMAP
007F80
008040
039F20
0780A0
0FFCA0
0FE0A0
0FCF20
01C040
03E180
041E7C
080004
380004
780004
78FFE4
F88004
F88004
F88FF8
F88FF0
F88020
F88010
F88010
F8FF90
F88010
F88010
F88FE0
F88FC0
F88FF8
F88004
F88004
F88004
F8FFE4
F80004
F80004
FFFFF8
FFFFF0
FFFFE0
7FFFC0
ENDCHAR
STARTCHAR Etilde
ENCODING 7868
SWIDTH 754 0
DWIDTH 24 0
BBX 22 35 1 -4
BITMAP
00FE30
0301C8
060008
0E3C08
1E0388
3E0008
3EFC30
3903DC
380004
380004
380004
78FFE4
F88004
F88004
F88FF8
F88FF0
F88020
F88010
F88010
F8FF90
F88010
F88010
F88FE0
F88FC0
F88FF8
F88004
F88004
F88004
F8FFE4
F80004
F80004
FFFFF8
FFFFF0
FFFFE0
7FFFC0
ENDCHAR
STARTCHAR etilde
ENCODING 7869
SWIDTH 754 0
DWIDTH 24 0
BBX 22 35 1 -4
BITMAP
00FE30
0301C8
060008
0E3C08
1E0388
3E0008
3EFC30
3903DC
380004
380004
380004
78FFE4
F88004
F88004
F88FF8
F88FF0
F88020
F88010
F88010
F8FF90
F88010
F88010
F88FE0
F88FC0
F88FF8
F88004
F88004
F88004
F8FFE4
F80004
F80004
FFFFF8
FFFFF0
FFFFE0
7FFFC0
ENDCHAR
STARTCHAR Ecircumflexacute
ENCODING 7870
SWIDTH 754 0
DWIDTH 24 0
BBX 22 43 1 -4
BITMAP
000078
000184
000204
000664
001E04
003E04
003E18
003FE0
00C040
010030
021F08
0660C8
1E0008
3E1F08
3FFFF0
38000C
380004
380004
380004
78FFE4
F88004
F88004
F88FF8
F88FF0
F88020
F88010
F88010
F8FF90
F88010
F88010
F88FE0
F88FC0
F88FF8
F88004
F88004
F88004
F8FFE4
F80004
F80004
FFFFF8
FFFFF0
FFFFE0
7FFFC0
ENDCHAR
STARTCHAR ecircumflexacute
ENCODING 7871
SWIDTH 754 0
DWIDTH 24 0
BBX 22 43 1 -4
BITMAP
000078
000184
000204
000664
001E04
003E04
003E18
003FE0
00C040
010030
021F08
0660C8
1E0008
3E1F08
3FFFF0
38000C
380004
380004
380004
78FFE4
F88004
F88004
F88FF8
F88FF0
F88020
F88010
F88010
F8FF90
F88010
F88010
F88FE0
F88FC0
F88FF8
F88004
F88004
F88004
F8FFE4
F80004
F80004
FFFFF8
FFFFF0
FFFFE0
7FFFC0
ENDCHAR
STARTCHAR Ecircumflexgrave
ENCODING 7872
SWIDTH 754 0
DWIDTH 24 0
BBX 22 42 1 -4
BITMAP
0003E0
000418
001C08
003CE8
003C08
003C08
003FC8
00C070
010010
021F08
0660C8
1E0008
3E1F08
3FFFF0
38000C
380004
380004
380004
78FFE4
F88004
F88004
F88FF8
F88FF0
F88020
F88010
F88010
F8FF90
F88010
F88010
F88FE0
F88FC0
F88FF8
F88004
F88004
F88004
F8FFE4
F80004
F80004
FFFFF8
FFFFF0
FFFFE0
7FFFC0
ENDCHAR
STARTCHAR ecircumflexgrave
ENCODING 7873
SWIDTH 754 0
DWIDTH 24 0
BBX 22 42 1 -4
BITMAP
0003E0
000418
001C08
003CE8
003C08
003C08
003FC8
00C070
010010
021F08
0660C8
1E0008
3E1F08
3FFFF0
38000C
380004
380004
380004
78FFE4
F88004
F88004
F88FF8
F88FF0
F88020
F88010
F88010
F8FF90
F88010
F88010
F88FE0
F88FC0
F88FF8
F88004
F88004
F88004
F8FFE4
F80004
F80004
FFFFF8
FFFFF0
FFFFE0
7FFFC0
ENDCHAR
STARTCHAR Ecircumflexhookabove
ENCODING 7874
SWIDTH 754 0
DWIDTH 24 0
BBX 24 45 1 -4
BITMAP
0001FE
000201
000EFD
001E03
003FF3
003FE3
003F05
003F39
000701
001FFE
00E078
010010
021F08
0660C8
1E0008
3E1F08
3FFFF0
38000C
380002
380002
380002
78FFE2
F88002
F88002
F88FFC
F88FF0
F88020
F88010
F88010
F8FF90
F88010
F88010
F88FE0
F88FC0
F88FF8
F88002
F88002
F88002
F8FFE2
F80002
F80002
FFFFFC
FFFFF0
FFFFE0
7FFFC0
ENDCHAR
STARTCHAR ecircumflexhookabove
ENCODING 7875
SWIDTH 754 0
DWIDTH 24 0
BBX 24 45 1 -4
BITMAP
0001FE
000201
000EFD
001E03
003FF3
003FE3
003F05
003F39
000701
001FFE
00E078
010010
021F08
0660C8
1E0008
3E1F08
3FFFF0
38000C
380002
380002
380002
78FFE2
F88002
F88002
F88FFC
F88FF0
F88020
F88010
F88010
F8FF90
F88010
F88010
F88FE0
F88FC0
F88FF8
F88002
F88002
F88002
F8FFE2
F80002
F80002
FFFFFC
FFFFF0
FFFFE0
7FFFC0
ENDCHAR
STARTCHAR Ecircumflextilde
ENCODING 7876
SWIDTH 754 0
DWIDTH 24 0
BBX 22 43 1 -4
BITMAP
00FC30
0303C8
060008
0E3E08
1E0188
3E0008
3EFC30
3FFFC0
3FC0C0
3F0030
121F08
0660C8
0E0008
3E1F08
3FFFF0
38000C
380004
380004
380004
78FFE4
F88004
F88004
F88FF8
F88FF0
F88020
F88010
F88010
F8FF90
F88010
F88010
F88FE0
F88FC0
F88FF8
F88004
F88004
F88004
F8FFE4
F80004
F80004
FFFFF8
FFFFF0
FFFFE0
7FFFC0
ENDCHAR
STARTCHAR ecircumflextilde
ENCODING 7877
SWIDTH 754 0
DWIDTH 24 0
BBX 22 43 1 -4
BITMAP
00FC30
0303C8
060008
0E3E08
1E0188
3E0008
3EFC30
3FFFC0
3FC0C0
3F0030
121F08
0660C8
0E0008
3E1F08
3FFFF0
38000C
380004
380004
380004
78FFE4
F88004
F88004
F88FF8
F88FF0
F88020
F88010
F88010
F8FF90
F88010
F88010
F88FE0
F88FC0
F88FF8
F88004
F88004
F88004
F8FFE4
F80004
F80004
FFFFF8
FFFFF0
FFFFE0
7FFFC0
ENDCHAR
STARTCHAR Ecircumflexdotbelow
ENCODING 7878
SWIDTH 754 0
DWIDTH 24 0
BBX 22 44 1 -12
BITMAP
000E00
0071C0
018030
021F08
0660C8
0E0008
1E1F08
3FFFF0
38000C
380004
380004
380004
78FFE4
F88004
F88004
F88FF8
F88FF0
F88020
F88010
F88010
F8FF90
F88010
F88010
F88FE0
F88FC0
F88FF8
F88004
F88004
F88004
F8FFE4
F80004
F80004
FFFFF8
FFC0F0
FF8060
7F8040
038480
078480
078080
07C080
07FF00
07FE00
07FC00
03F800
ENDCHAR
STARTCHAR ecircumflexdotbelow
ENCODING 7879
SWIDTH 754 0
DWIDTH 24 0
BBX 22 44 1 -12
BITMAP
000E00
0071C0
018030
021F08
0660C8
0E0008
1E1F08
3FFFF0
38000C
380004
380004
380004
78FFE4
F88004
F88004
F88FF8
F88FF0
F88020
F88010
F88010
F8FF90
F88010
F88010
F88FE0
F88FC0
F88FF8
F88004
F88004
F88004
F8FFE4
F80004
F80004
FFFFF8
FFC0F0
FF8060
7F8040
038480
078480
078080
07C080
07FF00
07FE00
07FC00
03F800
ENDCHAR
STARTCHAR Ihookabove
ENCODING 7880
SWIDTH 705 0
DWIDTH 23 0
BBX 21 37 1 -4
BITMAP
00FF00
030080
077E40
0F0140
1FF940
1FC240
1F9C40
038080
078300
087CF8
100008
300008
700008
F1FF88
F00808
F80808
FF88F0
FF88C0
FF8880
7F8880
0F8880
0F8880
0F8880
0F8880
0F8880
0F8880
0F88F0
100808
300808
700808
F1FF88
F00008
F00008
FFFFF0
FFFFE0
FFFF80
FFFF00
ENDCHAR
STARTCHAR ihookabove
ENCODING 7881
SWIDTH 705 0
DWIDTH 23 0
BBX 21 37 1 -4
BITMAP
00FF00
030080
077E40
0F0140
1FF940
1FC240
1F9C40
038080
078300
087CF8
100008
300008
700008
F1FF88
F00808
F80808
FF88F0
FF88C0
FF8880
7F8880
0F8880
0F8880
0F8880
0F8880
0F8880
0F8880
0F88F0
100808
300808
700808
F1FF88
F00008
F00008
FFFFF0
FFFFE0
FFFF80
FFFF00
ENDCHAR
STARTCHAR Idotbelow
ENCODING 7882
SWIDTH 705 0
DWIDTH 23 0
BBX 21 36 1 -12
BITMAP
0FFFF8
100008
300008
700008
F1FF88
F00808
F80808
FF88F0
FF88C0
FF8880
7F8880
0F8880
0F8880
0F8880
0F8880
0F8880
0F8880
0F88F0
100808
300808
700808
F1FF88
F00008
F80008
FFFFF0
FF80E0
FF80C0
FF8080
078880
0F8880
0F8080
0F8080
0FFF00
0FFC00
0FF800
07F000
ENDCHAR
STARTCHAR idotbelow
ENCODING 7883
SWIDTH 705 0
DWIDTH 23 0
BBX 21 36 1 -12
BITMAP
0FFFF8
100008
300008
700008
F1FF88
F00808
F80808
FF88F0
FF88C0
FF8880
7F8880
0F8880
0F8880
0F8880
0F8880
0F8880
0F8880
0F88F0
100808
300808
700808
F1FF88
F00008
F80008
FFFFF0
FF80E0
FF80C0
FF8080
078880
0F8880
0F8080
0F8080
0FFF00
0FFC00
0FF800
07F000
ENDCHAR
STARTCHAR Odotbelow
ENCODING 7884
SWIDTH 837 0
DWIDTH 27 0
BBX 25 36 1 -12
BITMAP
00FFF800
03000600
04000100
08174100
18603080
38800880
78820880
788F8880
F88F8880
F88F8880
F88F8880
F8978880
F8978880
F8978880
F8978880
F8978880
F8978880
F88F8880
F8800880
F8800880
F8603080
FC174100
FE000200
FF800C00
7FFFF000
3FE02000
1FE02000
03E22000
01E22000
03E02000
03E02000
03E02000
03FFC000
03FF0000
03FE0000
01FC0000
ENDCHAR
STARTCHAR odotbelow
ENCODING 7885
SWIDTH 837 0
DWIDTH 27 0
BBX 25 36 1 -12
BITMAP
00FFF800
03000600
04000100
08174100
18603080
38800880
78820880
788F8880
F88F8880
F88F8880
F88F8880
F8978880
F8978880
F8978880
F8978880
F8978880
F8978880
F88F8880
F8800880
F8800880
F8603080
FC174100
FE000200
FF800C00
7FFFF000
3FE02000
1FE02000
03E22000
01E22000
03E02000
03E02000
03E02000
03FFC000
03FF0000
03FE0000
01FC0000
ENDCHAR
STARTCHAR Ohookabove
ENCODING 7886
SWIDTH 837 0
DWIDTH 27 0
BBX 25 38 1 -4
BITMAP
003FC000
00402000
00DF1000
03C05000
07FE5000
07FC5000
07E0D000
07E71000
00F02000
01FFC000
01C03800
02000600
04000100
08174100
18603080
38800880
78820880
F88F8880
F88F8880
F88F8880
F88F8880
F8978880
F8978880
F8978880
F8978880
F8978880
F8978880
F88F8880
F8800880
F8800880
F8603080
FC174100
FE000200
7F800C00
7FFFF000
3FFFE000
1FFFC000
03FE0000
ENDCHAR
STARTCHAR ohookabove
ENCODING 7887
SWIDTH 837 0
DWIDTH 27 0
BBX 25 38 1 -4
BITMAP
003FC000
00402000
00DF1000
03C05000
07FE5000
07FC5000
07E0D000
07E71000
00F02000
01FFC000
01C03800
02000600
04000100
08174100
18603080
38800880
78820880
F88F8880
F88F8880
F88F8880
F88F8880
F8978880
F8978880
F8978880
F8978880
F8978880
F8978880
F88F8880
F8800880
F8800880
F8603080
FC174100
FE000200
7F800C00
7FFFF000
3FFFE000
1FFFC000
03FE0000
ENDCHAR
STARTCHAR Ocircumflexacute
ENCODING 7888
SWIDTH 837 0
DWIDTH 27 0
BBX 25 43 1 -4
BITMAP
00003E00
0001C200
00030200
00077200
000F0200
001F0200
001F0C00
0018F000
00603000
01800C00
030F8400
07306400
0F000400
1F0F8400
1F7FF400
1FE03800
1E000600
1C000100
08174100
18603080
38800880
78820880
788F8880
F88F8880
F88F8880
F88F8880
F8978880
F8978880
F8978880
F8978880
F8978880
F8978880
F88F8880
F8800880
F8800880
F8603080
FC174100
FE000200
7F800C00
7FFFF000
3FFFE000
1FFFC000
03FE0000
ENDCHAR
STARTCHAR ocircumflexacute
ENCODING 7889
SWIDTH 837 0
DWIDTH 27 0
BBX 25 43 1 -4
BITMAP
00003E00
0001C200
00030200
00077200
000F0200
001F0200
001F0C00
0018F000
00603000
01800C00
030F8400
07306400
0F000400
1F0F8400
1F7FF400
1FE03800
1E000600
1C000100
08174100
18603080
38800880
78820880
788F8880
F88F8880
F88F8880
F88F8880
F8978880
F8978880
F8978880
F8978880
F8978880
F8978880
F88F8880
F8800880
F8800880
F8603080
FC174100
FE000200
7F800C00
7FFFF000
3FFFE000
1FFFC000
03FE0000
ENDCHAR
STARTCHAR Ocircumflexgrave
ENCODING 7890
SWIDTH 837 0
DWIDTH 27 0
BBX 25 43 1 -4
BITMAP
00018000
00037800
00060400
000E6400
001E1400
001E0400
001F0400
0018E400
00601800
01800800
030F8400
07306400
0F000400
1F0F8400
1F7FF400
1FE03800
1E000600
1C000100
08174100
18603080
38800880
78820880
788F8880
F88F8880
F88F8880
F88F8880
F8978880
F8978880
F8978880
F8978880
F8978880
F8978880
F88F8880
F8800880
F8800880
F8603080
FC174100
FE000200
7F800C00
7FFFF000
3FFFE000
1FFFC000
03FE0000
ENDCHAR
STARTCHAR ocircumflexgrave
ENCODING 7891
SWIDTH 837 0
DWIDTH 27 0
BBX 25 43 1 -4
BITMAP
00018000
00037800
00060400
000E6400
001E1400
001E0400
001F0400
0018E400
00601800
01800800
030F8400
07306400
0F000400
1F0F8400
1F7FF400
1FE03800
1E000600
1C000100
08174100
18603080
38800880
78820880
788F8880
F88F8880
F88F8880
F88F8880
F8978880
F8978880
F8978880
F8978880
F8978880
F8978880
F88F8880
F8800880
F8800880
F8603080
FC174100
FE000200
7F800C00
7FFFF000
3FFFE000
1FFFC000
03FE0000
ENDCHAR
STARTCHAR Ocircumflexhookabove
ENCODING 7892
SWIDTH 837 0
DWIDTH 27 0
BBX 25 45 1 -4
BITMAP
0000FF00
00010080
00077E80
000F0180
001FF980
001FF180
001F8280
001F9C80
00038080
000FFF00
00703C00
00800800
010F8400
03306400
0F000400
1F0F8400
1F7FF400
1FE03800
1E000600
1C000100
08174100
18603080
38800880
78820880
788F8880
F88F8880
F88F8880
F88F8880
F8978880
F8978880
F8978880
F8978880
F8978880
F8978880
F88F8880
F8800880
F8800880
F8603080
FC174100
FE000200
7F800C00
7FFFF000
3FFFE000
1FFFC000
03FE0000
ENDCHAR
STARTCHAR ocircumflexhookabove
ENCODING 7893
SWIDTH 837 0
DWIDTH 27 0
BBX 25 45 1 -4
BITMAP
0000FF00
00010080
00077E80
000F0180
001FF980
001FF180
001F8280
001F9C80
00038080
000FFF00
00703C00
00800800
010F8400
03306400
0F000400
1F0F8400
1F7FF400
1FE03800
1E000600
1C000100
08174100
18603080
38800880
78820880
788F8880
F88F8880
F88F8880
F88F8880
F8978880
F8978880
F8978880
F8978880
F8978880
F8978880
F88F8880
F8800880
F8800880
F8603080
FC174100
FE000200
7F800C00
7FFFF000
3FFFE000
1FFFC000
03FE0000
ENDCHAR
STARTCHAR Ocircumflextilde
ENCODING 7894
SWIDTH 837 0
DWIDTH 27 0
BBX 25 43 1 -4
BITMAP
007E1800
0181E400
03000400
071F0400
0F00C400
1F000400
1F7E1800
1FFFE000
1FE06000
1F801800
090F8400
03306400
0F000400
1F0F8400
1F7FF400
1FE03800
1E000600
1C000100
08174100
18603080
38800880
78820880
788F8880
F88F8880
F88F8880
F88F8880
F8978880
F8978880
F8978880
F8978880
F8978880
F8978880
F88F8880
F8800880
F8800880
F8603080
FC174100
FE000200
7F800C00
7FFFF000
3FFFE000
1FFFC000
03FE0000
ENDCHAR
STARTCHAR ocircumflextilde
ENCODING 7895
SWIDTH 837 0
DWIDTH 27 0
BBX 25 43 1 -4
BITMAP
007E1800
0181E400
03000400
071F0400
0F00C400
1F000400
1F7E1800
1FFFE000
1FE06000
1F801800
090F8400
03306400
0F000400
1F0F8400
1F7FF400
1FE03800
1E000600
1C000100
08174100
18603080
38800880
78820880
788F8880
F88F8880
F88F8880
F88F8880
F8978880
F8978880
F8978880
F8978880
F8978880
F8978880
F88F8880
F8800880
F8800880
F8603080
FC174100
FE000200
7F800C00
7FFFF000
3FFFE000
1FFFC000
03FE0000
ENDCHAR
STARTCHAR Ocircumflexdotbelow
ENCODING 7896
SWIDTH 837 0
DWIDTH 27 0
BBX 25 44 1 -12
BITMAP
00070000
0038E000
00C01800
01070400
0318C400
0F000400
1F000400
1F0F8400
1FFFF800
1FC01800
1E000600
0C174100
18603100
38800880
78800880
788F8880
F88F8880
F88F8880
F88F8880
F8978880
F8978880
F8978880
F8978880
F8978880
F8978880
F8978880
F88A0880
F8800880
F8603080
F8174080
FC000100
FE000200
FF800C00
7FFFF000
3FE02000
1FE02000
01E22000
01E22000
03E02000
03E02000
03FFC000
03FF8000
03FE0000
01FC0000
ENDCHAR
STARTCHAR ocircumflexdotbelow
ENCODING 7897
SWIDTH 837 0
DWIDTH 27 0
BBX 25 44 1 -12
BITMAP
00070000
0038E000
00C01800
01070400
0318C400
0F000400
1F000400
1F0F8400
1FFFF800
1FC01800
1E000600
0C174100
18603100
38800880
78800880
788F8880
F88F8880
F88F8880
F88F8880
F8978880
F8978880
F8978880
F8978880
F8978880
F8978880
F8978880
F88A0880
F8800880
F8603080
F8174080
FC000100
FE000200
FF800C00
7FFFF000
3FE02000
1FE02000
01E22000
01E22000
03E02000
03E02000
03FFC000
03FF8000
03FE0000
01FC0000
ENDCHAR
STARTCHAR Ohornacute
ENCODING 7898
SWIDTH 847 0
DWIDTH 27 0
BBX 27 36 1 -4
BITMAP
00002000
003FD000
03C00800
060F8800
0E700800
1E000FC0
3E001820
3E3FF820
3FC00120
3E000120
3C000240
183FF440
18401080
38800880
78820880
F88F8880
F88F8880
F88F8880
F88F8880
F8978880
F8978880
F8978880
F8978880
F8978880
F8978880
F88F8880
F8800880
F8800880
F8603080
FC174100
FE000200
FF800C00
7FFFF000
7FFFE000
1FFFC000
07FE0000
ENDCHAR
STARTCHAR ohornacute
ENCODING 7899
SWIDTH 847 0
DWIDTH 27 0
BBX 27 36 1 -4
BITMAP
00002000
003FD000
03C00800
060F8800
0E700800
1E000FC0
3E001820
3E3FF820
3FC00120
3E000120
3C000240
183FF440
18401080
38800880
78820880
F88F8880
F88F8880
F88F8880
F88F8880
F8978880
F8978880
F8978880
F8978880
F8978880
F8978880
F88F8880
F8800880
F8800880
F8603080
FC174100
FE000200
FF800C00
7FFFF000
7FFFE000
1FFFC000
07FE0000
ENDCHAR
STARTCHAR Ohorngrave
ENCODING 7900
SWIDTH 847 0
DWIDTH 27 0
BBX 27 36 1 -4
BITMAP
03F00000
040FE000
0C001000
3C7F9000
3C001000
3C0017C0
3FC00820
3FFFF820
3F800120
1E000120
04000240
083FF440
18401080
38800880
78820880
F88F8880
F88F8880
F88F8880
F88F8880
F8978880
F8978880
F8978880
F8978880
F8978880
F8978880
F88F8880
F8800880
F8800880
F8603080
FC174100
FE000200
FF800C00
7FFFF000
7FFFE000
1FFFC000
07FE0000
ENDCHAR
STARTCHAR ohorngrave
ENCODING 7901
SWIDTH 847 0
DWIDTH 27 0
BBX 27 36 1 -4
BITMAP
03F00000
040FE000
0C001000
3C7F9000
3C001000
3C0017C0
3FC00820
3FFFF820
3F800120
1E000120
04000240
083FF440
18401080
38800880
78820880
F88F8880
F88F8880
F88F8880
F88F8880
F8978880
F8978880
F8978880
F8978880
F8978880
F8978880
F88F8880
F8800880
F8800880
F8603080
FC174100
FE000200
FF800C00
7FFFF000
7FFFE000
1FFFC000
07FE0000
ENDCHAR
STARTCHAR Ohornhookabove
ENCODING 7902
SWIDTH 847 0
DWIDTH 27 0
BBX 27 38 1 -4
BITMAP
003FC000
00402000
00DF1000
03C05000
07FE5000
07FC5000
07E19000
07E617C0
00F02820
01FFF820
01C00120
02000120
04000240
083FF440
18401080
38800880
78820880
F88F8880
F88F8880
F88F8880
F88F8880
F8978880
F8978880
F8978880
F8978880
F8978880
F8978880
F88F8880
F8800880
F8800880
F8603080
FC174100
FE000200
FF800C00
7FFFF000
7FFFE000
1FFFC000
07FE0000
ENDCHAR
STARTCHAR ohornhookabove
ENCODING 7903
SWIDTH 847 0
DWIDTH 27 0
BBX 27 38 1 -4
BITMAP
003FC000
00402000
00DF1000
03C05000
07FE5000
07FC5000
07E19000
07E617C0
00F02820
01FFF820
01C00120
02000120
04000240
083FF440
18401080
38800880
78820880
F88F8880
F88F8880
F88F8880
F88F8880
F8978880
F8978880
F8978880
F8978880
F8978880
F8978880
F88F8880
F8800880
F8800880
F8603080
FC174100
FE000200
FF800C00
7FFFF000
7FFFE000
1FFFC000
07FE0000
ENDCHAR
STARTCHAR Ohorntilde
ENCODING 7904
SWIDTH 847 0
DWIDTH 27 0
BBX 27 36 1 -4
BITMAP
00FC3000
0303C800
02000800
0E3C0800
1E038800
3E000FC0
3E781820
3FFFF820
3F800120
3E000120
3C000240
083FF440
18401080
38800880
78820880
788F8880
F88F8880
F88F8880
F88F8880
F8978880
F8978880
F8978880
F8978880
F8978880
F8978880
F88F8880
F8800880
F8800880
F8603080
FC174100
FE000200
FF800C00
7FFFF000
7FFFE000
1FFFC000
07FE0000
ENDCHAR
STARTCHAR ohorntilde
ENCODING 7905
SWIDTH 847 0
DWIDTH 27 0
BBX 27 36 1 -4
BITMAP
00FC3000
0303C800
02000800
0E3C0800
1E038800
3E000FC0
3E781820
3FFFF820
3F800120
3E000120
3C000240
083FF440
18401080
38800880
78820880
788F8880
F88F8880
F88F8880
F88F8880
F8978880
F8978880
F8978880
F8978880
F8978880
F8978880
F88F8880
F8800880
F8800880
F8603080
FC174100
FE000200
FF800C00
7FFFF000
7FFFE000
1FFFC000
07FE0000
ENDCHAR
STARTCHAR Ohorndotbelow
ENCODING 7906
SWIDTH 847 0
DWIDTH 27 0
BBX 27 38 1 -11
BITMAP
000007C0
00000820
00001820
00FFE120
03000120
04000240
083FF440
18401080
38800880
78820880
788F8880
F88F8880
F88F8880
F88F8880
F8978880
F8978880
F8978880
F8978880
F8978880
F8978880
F88F8880
F8800880
F8603080
F8174080
FC000100
FE000200
FF800C00
7FFFF000
3FE02000
1FE02000
03E22000
01E22000
03E02000
03E02000
03FFC000
03FF8000
03FE0000
01FC0000
ENDCHAR
STARTCHAR ohorndotbelow
ENCODING 7907
SWIDTH 847 0
DWIDTH 27 0
BBX 27 38 1 -11
BITMAP
000007C0
00000820
00001820
00FFE120
03000120
04000240
083FF440
18401080
38800880
78820880
788F8880
F88F8880
F88F8880
F88F8880
F8978880
F8978880
F8978880
F8978880
F8978880
F8978880
F88F8880
F8800880
F8603080
F8174080
FC000100
FE000200
FF800C00
7FFFF000
3FE02000
1FE02000
03E22000
01E22000
03E02000
03E02000
03FFC000
03FF8000
03FE0000
01FC0000
ENDCHAR
STARTCHAR Udotbelow
ENCODING 7908
SWIDTH 846 0
DWIDTH 27 0
BBX 25 35 1 -11
BITMAP
0FF07F80
18088080
38098080
788B8880
F88F8880
F88F8880
F88F8880
F88F8880
F88F8880
F88F8880
F88F8880
F88F8880
F88F8880
F88F8880
F88F8880
F88F8880
F88F8880
F8800880
F8800880
F8601080
F8176080
FC000100
FE000200
7F800C00
7FFFF000
3FE02000
1FE02000
01E22000
01E22000
03E02000
03E02000
03FFC000
03FF8000
03FE0000
01FC0000
ENDCHAR
STARTCHAR udotbelow
ENCODING 7909
SWIDTH 846 0
DWIDTH 27 0
BBX 25 35 1 -11
BITMAP
0FF07F80
18088080
38098080
788B8880
F88F8880
F88F8880
F88F8880
F88F8880
F88F8880
F88F8880
F88F8880
F88F8880
F88F8880
F88F8880
F88F8880
F88F8880
F88F8880
F8800880
F8800880
F8601080
F8176080
FC000100
FE000200
7F800C00
7FFFF000
3FE02000
1FE02000
01E22000
01E22000
03E02000
03E02000
03FFC000
03FF8000
03FE0000
01FC0000
ENDCHAR
STARTCHAR Uhookabove
ENCODING 7910
SWIDTH 846 0
DWIDTH 27 0
BBX 25 38 1 -4
BITMAP
001FE000
00201000
00EF8800
01E02800
03FF2800
03FC2800
03F04800
03F38800
00701000
00FFE000
0F1FFF80
180F8080
380F8080
788B8880
F88F8880
F88F8880
F88F8880
F88F8880
F88F8880
F88F8880
F88F8880
F88F8880
F88F8880
F88F8880
F88F8880
F88F8880
F88F8880
F88F8880
F8800880
F8400880
F8603080
FC174100
7E000200
7F800C00
7FFFF000
3FFFE000
1FFFC000
03FE0000
ENDCHAR
STARTCHAR uhookabove
ENCODING 7911
SWIDTH 846 0
DWIDTH 27 0
BBX 25 38 1 -4
BITMAP
001FE000
00201000
00EF8800
01E02800
03FF2800
03FC2800
03F04800
03F38800
00701000
00FFE000
0F1FFF80
180F8080
380F8080
788B8880
F88F8880
F88F8880
F88F8880
F88F8880
F88F8880
F88F8880
F88F8880
F88F8880
F88F8880
F88F8880
F88F8880
F88F8880
F88F8880
F88F8880
F8800880
F8400880
F8603080
FC174100
7E000200
7F800C00
7FFFF000
3FFFE000
1FFFC000
03FE0000
ENDCHAR
STARTCHAR Uhornacute
ENCODING 7912
SWIDTH 856 0
DWIDTH 27 0
BBX 27 36 1 -4
BITMAP
00002000
003FD000
03C00800
060F8800
0E700800
1E000FC0
3E003820
3E3FD820
3DDFE120
380F8120
38098220
788B8440
F88F8880
F88F8880
F88F8880
F88F8880
F88F8880
F88F8880
F88F8880
F88F8880
F88F8880
F88F8880
F88F8880
F88F8880
F88F8880
F88F8880
F8800880
F8400880
F8603080
FC174100
FE000200
7F800C00
7FFFF800
3FFFE000
1FFFC000
03FF0000
ENDCHAR
STARTCHAR uhornacute
ENCODING 7913
SWIDTH 856 0
DWIDTH 27 0
BBX 27 36 1 -4
BITMAP
00002000
003FD000
03C00800
060F8800
0E700800
1E000FC0
3E003820
3E3FD820
3DDFE120
380F8120
38098220
788B8440
F88F8880
F88F8880
F88F8880
F88F8880
F88F8880
F88F8880
F88F8880
F88F8880
F88F8880
F88F8880
F88F8880
F88F8880
F88F8880
F88F8880
F8800880
F8400880
F8603080
FC174100
FE000200
7F800C00
7FFFF800
3FFFE000
1FFFC000
03FF0000
ENDCHAR
STARTCHAR Uhorngrave
ENCODING 7914
SWIDTH 856 0
DWIDTH 27 0
BBX 27 36 1 -4
BITMAP
03800000
047FC000
0C007000
1C6C1000
3C039000
3C0017C0
3E000820
3FFE1820
3C1FE120
380F8120
380F8220
788B8440
F88F8880
F88F8880
F88F8880
F88F8880
F88F8880
F88F8880
F88F8880
F88F8880
F88F8880
F88F8880
F88F8880
F88F8880
F88F8880
F88F8880
F8800880
F8400880
F8603080
FC174100
FE000200
7F800C00
7FFFF800
3FFFE000
1FFFC000
03FF0000
ENDCHAR
STARTCHAR uhorngrave
ENCODING 7915
SWIDTH 856 0
DWIDTH 27 0
BBX 27 36 1 -4
BITMAP
03800000
047FC000
0C007000
1C6C1000
3C039000
3C0017C0
3E000820
3FFE1820
3C1FE120
380F8120
380F8220
788B8440
F88F8880
F88F8880
F88F8880
F88F8880
F88F8880
F88F8880
F88F8880
F88F8880
F88F8880
F88F8880
F88F8880
F88F8880
F88F8880
F88F8880
F8800880
F8400880
F8603080
FC174100
FE000200
7F800C00
7FFFF800
3FFFE000
1FFFC000
03FF0000
ENDCHAR
STARTCHAR Uhornhookabove
ENCODING 7916
SWIDTH 856 0
DWIDTH 27 0
BBX 27 38 1 -4
BITMAP
001FE000
00601000
00EF9000
01E04800
03FF4800
03FC4800
03F0C800
03F717C0
00F02820
01FFD820
0E1FE120
180F8120
380D8220
788B8440
F88F8880
F88F8880
F88F8880
F88F8880
F88F8880
F88F8880
F88F8880
F88F8880
F88F8880
F88F8880
F88F8880
F88F8880
F88F8880
F88F8880
F8800880
F8400880
F8603080
FC174100
FE000200
7F800C00
7FFFF800
3FFFE000
1FFFC000
03FE0000
ENDCHAR
STARTCHAR uhornhookabove
ENCODING 7917
SWIDTH 856 0
DWIDTH 27 0
BBX 27 38 1 -4
BITMAP
001FE000
00601000
00EF9000
01E04800
03FF4800
03FC4800
03F0C800
03F717C0
00F02820
01FFD820
0E1FE120
180F8120
380D8220
788B8440
F88F8880
F88F8880
F88F8880
F88F8880
F88F8880
F88F8880
F88F8880
F88F8880
F88F8880
F88F8880
F88F8880
F88F8880
F88F8880
F88F8880
F8800880
F8400880
F8603080
FC174100
FE000200
7F800C00
7FFFF800
3FFFE000
1FFFC000
03FE0000
ENDCHAR
STARTCHAR Uhorntilde
ENCODING 7918
SWIDTH 856 0
DWIDTH 27 0
BBX 27 35 1 -4
BITMAP
00FE3000
0301C800
06000800
0E7F8800
1E000FC0
3E000820
3E701820
3D9FE120
380F8120
380F8220
788B8440
F88F8880
F88F8880
F88F8880
F88F8880
F88F8880
F88F8880
F88F8880
F88F8880
F88F8880
F88F8880
F88F8880
F88F8880
F88F8880
F88F8880
F8800880
F8400880
F8603080
FC174100
FE000200
7F800C00
7FFFF800
3FFFE000
1FFFC000
03FF0000
ENDCHAR
STARTCHAR uhorntilde
ENCODING 7919
SWIDTH 856 0
DWIDTH 27 0
BBX 27 35 1 -4
BITMAP
00FE3000
0301C800
06000800
0E7F8800
1E000FC0
3E000820
3E701820
3D9FE120
380F8120
380F8220
788B8440
F88F8880
F88F8880
F88F8880
F88F8880
F88F8880
F88F8880
F88F8880
F88F8880
F88F8880
F88F8880
F88F8880
F88F8880
F88F8880
F88F8880
F8800880
F8400880
F8603080
FC174100
FE000200
7F800C00
7FFFF800
3FFFE000
1FFFC000
03FF0000
ENDCHAR
STARTCHAR Uhorndotbelow
ENCODING 7920
SWIDTH 856 0
DWIDTH 27 0
BBX 27 38 1 -11
BITMAP
000007C0
00000820
00003820
0FF04120
18088120
38098220
788B8C40
F88F8880
F88F8880
F88F8880
F88F8880
F88F8880
F88F8880
F88F8880
F88F8880
F88F8880
F88F8880
F88F8880
F88F8880
F88F8880
F8800880
F8800880
F8601080
F8176080
FC000100
FE000200
7F800C00
7FFFF000
3FE02000
1FE02000
01E22000
01E22000
03E02000
03E02000
03FFC000
03FF8000
03FE0000
01FC0000
ENDCHAR
STARTCHAR uhorndotbelow
ENCODING 7921
SWIDTH 856 0
DWIDTH 27 0
BBX 27 38 1 -11
BITMAP
000007C0
00000820
00003820
0FF04120
18088120
38098220
788B8C40
F88F8880
F88F8880
F88F8880
F88F8880
F88F8880
F88F8880
F88F8880
F88F8880
F88F8880
F88F8880
F88F8880
F88F8880
F88F8880
F8800880
F8800880
F8601080
F8176080
FC000100
FE000200
7F800C00
7FFFF000
3FE02000
1FE02000
01E22000
01E22000
03E02000
03E02000
03FFC000
03FF8000
03FE0000
01FC0000
ENDCHAR
STARTCHAR Ygrave
ENCODING 7922
SWIDTH 805 0
DWIDTH 26 0
BBX 24 36 1 -4
BITMAP
01C000
023FC0
060038
1E3C08
1E03C8
3E0008
3F0008
3FFF08
381FF7
101F81
301781
711789
F11F89
F11F89
F11F89
F11F89
F10F09
F08F11
F08611
F84021
FC2042
FC2044
FE1084
7F0F08
7F8410
3F8420
1FC420
0FC440
0FC440
07C040
03C040
03C040
03FF80
03FF00
03FE00
03FC00
ENDCHAR
STARTCHAR ygrave
ENCODING 7923
SWIDTH 805 0
DWIDTH 26 0
BBX 24 36 1 -4
BITMAP
01C000
023FC0
060038
1E3C08
1E03C8
3E0008
3F0008
3FFF08
381FF7
101F81
301781
711789
F11F89
F11F89
F11F89
F11F89
F10F09
F08F11
F08611
F84021
FC2042
FC2044
FE1084
7F0F08
7F8410
3F8420
1FC420
0FC440
0FC440
07C040
03C040
03C040
03FF80
03FF00
03FE00
03FC00
ENDCHAR
STARTCHAR Ydotbelow
ENCODING 7924
SWIDTH 805 0
DWIDTH 26 0
BBX 24 36 1 -12
BITMAP
0FF0FF
101181
301381
711789
F11F89
F11F89
F11F89
F11F89
F10F09
F08F11
F88611
F84021
FC2042
FC2044
FE1088
7F0F08
3F8410
3F8420
1FC420
0FC440
0FC440
07C040
03C040
03C040
03FF80
03E040
03C040
03C040
01C440
03C440
03C040
03C040
03FF80
03FF00
03FC00
03F800
ENDCHAR
STARTCHAR ydotbelow
ENCODING 7925
SWIDTH 805 0
DWIDTH 26 0
BBX 24 36 1 -12
BITMAP
0FF0FF
101181
301381
711789
F11F89
F11F89
F11F89
F11F89
F10F09
F08F11
F88611
F84021
FC2042
FC2044
FE1088
7F0F08
3F8410
3F8420
1FC420
0FC440
0FC440
07C040
03C040
03C040
03FF80
03E040
03C040
03C040
01C440
03C440
03C040
03C040
03FF80
03FF00
03FC00
03F800
ENDCHAR
STARTCHAR Yhookabove
ENCODING 7926
SWIDTH 805 0
DWIDTH 26 0
BBX 24 37 1 -4
BITMAP
003FC0
00C020
01DF20
03C090
07FE90
07E090
07E710
00E020
03E040
0C1FBF
101F81
301B81
711789
F11F89
F11F89
F11F89
F11F89
F10F09
F08F11
F08611
F84021
FC2042
FC2044
FE1084
7F0F08
7F8410
3F8420
1FC420
0FC440
0FC440
07C040
03C040
03C040
03FF80
03FF00
03FE00
03FC00
ENDCHAR
STARTCHAR yhookabove
ENCODING 7927
SWIDTH 805 0
DWIDTH 26 0
BBX 24 37 1 -4
BITMAP
003FC0
00C020
01DF20
03C090
07FE90
07E090
07E710
00E020
03E040
0C1FBF
101F81
301B81
711789
F11F89
F11F89
F11F89
F11F89
F10F09
F08F11
F08611
F84021
FC2042
FC2044
FE1084
7F0F08
7F8410
3F8420
1FC420
0FC440
0FC440
07C040
03C040
03C040
03FF80
03FF00
03FE00
03FC00
ENDCHAR
STARTCHAR Ytilde
ENCODING 7928
SWIDTH 805 0
DWIDTH 26 0
BBX 24 35 1 -4
BITMAP
00FE10
0101E8
020008
063E08
1E01C8
1E0008
1E7810
199FEF
101F81
301F81
711789
F11F89
F11F89
F11F89
F11F89
F10F09
F08F11
F08611
F84021
FC2042
FC2044
FE1084
7F0F08
7F8410
3F8420
1FC420
0FC440
0FC440
07C040
03C040
03C040
03FF80
03FF00
03FE00
03FC00
ENDCHAR
STARTCHAR ytilde
ENCODING 7929
SWIDTH 805 0
DWIDTH 26 0
BBX 24 35 1 -4
BITMAP
00FE10
0101E8
020008
063E08
1E01C8
1E0008
1E7810
199FEF
101F81
301F81
711789
F11F89
F11F89
F11F89
F11F89
F10F09
F08F11
F08611
F84021
FC2042
FC2044
FE1084
7F0F08
7F8410
3F8420
1FC420
0FC440
0FC440
07C040
03C040
03C040
03FF80
03FF00
03FE00
03FC00
ENDCHAR
STARTCHAR enspace
ENCODING 8192
SWIDTH 500 0
DWIDTH 16 0
BBX 1 1 0 0
BITMAP
00
ENDCHAR
STARTCHAR emspace
ENCODING 8193
SWIDTH 1000 0
DWIDTH 32 0
BBX 1 1 0 0
BITMAP
00
ENDCHAR
STARTCHAR uni2002
ENCODING 8194
SWIDTH 500 0
DWIDTH 16 0
BBX 1 1 0 0
BITMAP
00
ENDCHAR
STARTCHAR uni2003
ENCODING 8195
SWIDTH 1000 0
DWIDTH 32 0
BBX 1 1 0 0
BITMAP
00
ENDCHAR
STARTCHAR space.tab_en
ENCODING 8199
SWIDTH 1100 0
DWIDTH 35 0
BBX 1 1 0 0
BITMAP
00
ENDCHAR
STARTCHAR uni2010
ENCODING 8208
SWIDTH 520 0
DWIDTH 17 0
BBX 15 11 1 4
BITMAP
0FFE
1002
3002
71F2
F002
F002
F002
FFFC
FFF8
FFF0
FFE0
ENDCHAR
STARTCHAR figuredash
ENCODING 8210
SWIDTH 834 0
DWIDTH 27 0
BBX 24 11 1 4
BITMAP
07FFFE
080001
180001
38FFF9
780001
F80001
F80001
FFFFFE
FFFFFC
FFFFF8
7FFFF0
ENDCHAR
STARTCHAR endash
ENCODING 8211
SWIDTH 834 0
DWIDTH 27 0
BBX 24 11 1 4
BITMAP
07FFFE
080001
180001
38FFF9
780001
F80001
F80001
FFFFFE
FFFFFC
FFFFF8
7FFFF0
ENDCHAR
STARTCHAR emdash
ENCODING 8212
SWIDTH 1234 0
DWIDTH 39 0
BBX 37 11 1 4
BITMAP
07FFFFFFF0
0800000008
1800000008
38FFFFFFC8
7800000008
F800000008
F800000008
FFFFFFFFF0
FFFFFFFFE0
FFFFFFFFC0
7FFFFFFF80
ENDCHAR
STARTCHAR horizontalbar
ENCODING 8213
SWIDTH 1234 0
DWIDTH 39 0
BBX 37 11 1 4
BITMAP
07FFFFFFF0
0800000008
1800000008
38FFFFFFC8
7800000008
F800000008
F800000008
FFFFFFFFF0
FFFFFFFFE0
FFFFFFFFC0
7FFFFFFF80
ENDCHAR
STARTCHAR quoteleft
ENCODING 8216
SWIDTH 484 0
DWIDTH 15 0
BBX 14 16 1 8
BITMAP
03F8
0408
08E8
1908
3270
720C
F204
F204
F1E4
F004
F004
F004
FFF8
FFF0
FFC0
FF80
ENDCHAR
STARTCHAR quoteright
ENCODING 8217
SWIDTH 484 0
DWIDTH 15 0
BBX 14 16 1 8
BITMAP
0FF8
1004
3004
71E4
F024
F024
F824
FFA4
F824
F824
F9C8
3810
7C60
FFC0
FF80
FE00
ENDCHAR
STARTCHAR quotesinglbase
ENCODING 8218
SWIDTH 484 0
DWIDTH 15 0
BBX 14 17 1 -8
BITMAP
07F8
1004
3004
7004
F1E4
F024
F024
F824
FFA4
F824
F9C8
3808
7830
FFC0
FF80
FF00
7800
ENDCHAR
STARTCHAR quotedblleft
ENCODING 8220
SWIDTH 784 0
DWIDTH 25 0
BBX 23 16 1 8
BITMAP
03F8FE
040902
09EA3A
320E42
72FC9C
F20CA2
F20482
F20482
F3E47A
F00402
F00402
F00402
FFFFFE
FFFFFC
FFFFF0
FFBFE0
ENDCHAR
STARTCHAR quotedblright
ENCODING 8221
SWIDTH 784 0
DWIDTH 25 0
BBX 23 16 1 8
BITMAP
0FFBFE
100402
300402
73E47A
F0240A
F0240A
F0260A
FFA7EA
F8260A
F8460A
FB8E72
381E04
FCFF18
FFFFF0
FF3FE0
FE3F80
ENDCHAR
STARTCHAR quotedblbase
ENCODING 8222
SWIDTH 784 0
DWIDTH 25 0
BBX 23 17 1 -8
BITMAP
0FF9FE
100602
300402
700402
F3E47A
F0240A
F0240A
F0260A
FFA7EA
F8260A
FBCE72
380E02
787E1C
FFFFF0
FFBFE0
FE3FC0
781E00
ENDCHAR
STARTCHAR dagger
ENCODING 8224
SWIDTH 818 0
DWIDTH 26 0
BBX 24 28 1 -4
BITMAP
003FC0
006040
00E040
01E040
03E240
07E240
08627F
100201
700201
F1FFF9
F00201
F00201
F00201
FFE27F
FFE27C
FFE278
FDE270
01E240
01E240
01E240
03E240
03E040
03E040
03E040
03FF80
03FF00
03FE00
03FC00
ENDCHAR
STARTCHAR daggerdbl
ENCODING 8225
SWIDTH 818 0
DWIDTH 26 0
BBX 24 28 1 -4
BITMAP
003FC0
006040
00E040
0FE07F
100201
300201
71FFF9
F00201
F00201
F02241
FFE27F
FFE23C
FFE238
FDE272
0A626D
100201
700201
F1FFF9
F00201
F00201
F02261
FFE03E
FFE03C
FFE038
43FFC0
03FF00
03FE00
03FC00
ENDCHAR
STARTCHAR bullet
ENCODING 8226
SWIDTH 543 0
DWIDTH 17 0
BBX 16 16 1 2
BITMAP
0FFE
1001
3001
71F9
F109
F109
F109
F109
F109
F1F9
F001
F001
FFFE
FFFC
FFF8
FFE0
ENDCHAR
STARTCHAR ellipsis
ENCODING 8230
SWIDTH 1210 0
DWIDTH 39 0
BBX 37 13 1 -4
BITMAP
07F8FF0FF0
100500B008
3007007008
7087087088
F087087088
F087087088
F007007008
F007007008
F007007008
FFFFFFFFF0
FFFFFFFFE0
FFCFFDFFC0
FF8FF9FF00
ENDCHAR
STARTCHAR perthousand
ENCODING 8240
SWIDTH 1517 0
DWIDTH 49 0
BBX 48 28 1 -4
BITMAP
07FC1F800000
080220800000
11F160800000
3209E0800000
7205C4800000
F265C9000000
F265C9000000
F265C9000000
F26589000000
F2658A000000
F205927F82E8
F20992804C06
F9F1133E31F1
FC0312413209
FFFF22409209
FFFF264C92E9
7FEE264C92E9
3F8E264C92E9
001E464C92E9
001E4E4C9269
001E4E409209
001C0E413209
003C0F3E31F2
003C1F807C04
003FFFFFFFF8
003FDFFEFFF0
007F8FFCFFE0
003E07F03F80
ENDCHAR
STARTCHAR minute
ENCODING 8242
SWIDTH 456 0
DWIDTH 15 0
BBX 13 16 1 8
BITMAP
0FF8
1808
3808
7888
F888
F888
F888
F888
F888
F808
F010
F010
FFE0
FFC0
FF80
FF00
ENDCHAR
STARTCHAR second
ENCODING 8243
SWIDTH 766 0
DWIDTH 25 0
BBX 23 16 1 8
BITMAP
0FFBFE
180602
380602
788E22
F88E22
F88E22
F88E22
F88E22
F88C22
F80C04
F00C04
F00C04
FFFFF8
FFFFF0
FFBFE0
FF3FC0
ENDCHAR
STARTCHAR guilsinglleft
ENCODING 8249
SWIDTH 663 0
DWIDTH 21 0
BBX 18 21 1 -1
BITMAP
000080
001F40
01E040
060040
080640
187840
388040
7900C0
791F00
F90F80
F90040
F8C040
F83E40
FC0040
FE0040
FFE040
7FFF40
3FFF80
1FFF00
00FE00
000400
ENDCHAR
STARTCHAR guilsinglright
ENCODING 8250
SWIDTH 663 0
DWIDTH 21 0
BBX 18 21 2 -1
BITMAP
0E0000
11F000
300F00
700080
F1C040
F03C40
F00240
FE0240
FFE240
FFC240
F80240
100640
30F840
710080
F00100
F01E00
F3FC00
FFF800
FFE000
FC0000
800000
ENDCHAR
STARTCHAR fraction
ENCODING 8260
SWIDTH 417 0
DWIDTH 13 0
BBX 15 28 -1 -4
BITMAP
007E
0082
0182
0712
0712
0F12
0F22
0F24
0F24
0E24
1E24
1E44
1E48
1E48
1C48
3C48
3C48
3C88
3C90
3C90
3890
7810
7810
7820
7FC0
7F80
FF00
7E00
ENDCHAR
STARTCHAR zero.sups
ENCODING 8304
SWIDTH 656 0
DWIDTH 21 0
BBX 18 20 1 4
BITMAP
03FF00
0C0080
10F840
330640
720240
727240
F27240
F27240
F27240
F27240
F27240
F27240
F27240
F20240
F30240
F0FC80
7C0100
7FFE00
3FFC00
0FF000
ENDCHAR
STARTCHAR foursuperior
ENCODING 8308
SWIDTH 608 0
DWIDTH 19 0
BBX 18 21 1 3
BITMAP
0FCFC0
105040
727240
F27240
F27240
F27240
F27240
F27240
F20240
F20240
F1FE40
F00240
F80240
FFF240
FFF240
FFF040
7FF040
00FF80
00FF00
00FC00
00F800
ENDCHAR
STARTCHAR five.sups
ENCODING 8309
SWIDTH 593 0
DWIDTH 19 0
BBX 17 21 1 3
BITMAP
0FFF80
180080
39FC80
790080
F93F00
F93E00
F90100
F90080
F9FC80
F80280
F80280
FFF280
FFF280
F00280
33FC80
700080
F00100
FFFE00
FFF800
FFF000
FFC000
ENDCHAR
STARTCHAR six.sups
ENCODING 8310
SWIDTH 628 0
DWIDTH 20 0
BBX 18 21 1 3
BITMAP
03FF80
040080
08FC80
190080
391F00
793E00
F90180
F90040
F9BE40
F90140
F93940
F93940
F93940
F90140
F90240
F8D440
FC0080
FFEF00
7FFC00
7FF800
1FF000
ENDCHAR
STARTCHAR seven.sups
ENCODING 8311
SWIDTH 577 0
DWIDTH 18 0
BBX 18 21 0 3
BITMAP
0FFFC0
180040
39FE40
780240
F80240
FFF240
FFF240
FFC240
7F0640
023840
064080
0E4300
1E4C00
3E4800
3E4800
3E0800
3E0800
3FF000
3FC000
3F8000
3F0000
ENDCHAR
STARTCHAR eight.sups
ENCODING 8312
SWIDTH 638 0
DWIDTH 20 0
BBX 19 21 1 3
BITMAP
01FF00
020080
04FC40
090240
393240
793A40
793A40
7F0280
78FC40
710320
720120
327920
F27920
F27920
F10120
F8BE20
FC00C0
FFFF00
FFFE00
7FFC00
3FF000
ENDCHAR
STARTCHAR nine.sups
ENCODING 8313
SWIDTH 628 0
DWIDTH 20 0
BBX 18 21 1 3
BITMAP
03FF00
040080
08B440
110240
320140
727140
F27940
F27140
F10240
F8BD40
FC0140
FFF940
FFF140
FC0140
7C0240
1CFC40
3C0180
7FFE00
7FFC00
7FF800
3FE000
ENDCHAR
STARTCHAR parenleft.sups
ENCODING 8317
SWIDTH 434 0
DWIDTH 14 0
BBX 11 24 1 2
BITMAP
02C0
0C20
1020
21A0
6220
E420
E4C0
E480
E480
E480
E480
E480
E480
E480
E480
E480
E440
E420
F220
F1A0
F820
FFC0
7F80
3F00
ENDCHAR
STARTCHAR parenright.sups
ENCODING 8318
SWIDTH 435 0
DWIDTH 14 0
BBX 11 24 1 2
BITMAP
1D00
20C0
6020
E620
E120
F8A0
FCA0
FCA0
3CA0
3CA0
3CA0
3CA0
3CA0
3CA0
3CA0
3CA0
3CA0
20A0
2120
E620
E040
FF80
FE00
FC00
ENDCHAR
STARTCHAR n.sups
ENCODING 8319
SWIDTH 673 0
DWIDTH 22 0
BBX 18 20 1 4
BITMAP
03FF00
0C0080
10BC40
310240
720140
727940
727940
F27940
F27940
F27940
F27940
F27940
F27940
F27940
F27940
F07840
F07840
FFFFC0
FE7F00
7C3E00
ENDCHAR
STARTCHAR zero.sinf
ENCODING 8320
SWIDTH 656 0
DWIDTH 21 0
BBX 18 20 1 -2
BITMAP
03FF00
0C0080
10F840
330640
720240
727240
F27240
F27240
F27240
F27240
F27240
F27240
F27240
F20240
F30240
F0FC80
7C0100
7FFE00
3FFC00
0FF000
ENDCHAR
STARTCHAR one.sinf
ENCODING 8321
SWIDTH 557 0
DWIDTH 18 0
BBX 16 21 1 -3
BITMAP
0FF8
1804
39C4
7824
F824
FF24
FF24
FF24
7F24
1F24
1F24
1F24
1F27
1021
33FD
7001
F001
FFFF
FFFC
FFF8
FFF0
ENDCHAR
STARTCHAR two.sinf
ENCODING 8322
SWIDTH 585 0
DWIDTH 19 0
BBX 17 21 1 -3
BITMAP
0FFE00
180100
39F080
780480
F80480
FFE480
FFC480
FE0C80
787080
118100
320600
723800
F27F00
F20080
F3FC80
F00080
F00080
FFFF00
FFFE00
FFFC00
FFF000
ENDCHAR
STARTCHAR three.sinf
ENCODING 8323
SWIDTH 584 0
DWIDTH 19 0
BBX 17 21 1 -3
BITMAP
0FFC00
100200
33F100
F00900
F00900
FFC900
FFC900
FC0B00
0CF080
3C0480
3C0280
3FF280
3FF280
300280
33FC80
700080
F00100
FFFE00
FFF800
FFF000
FFC000
ENDCHAR
STARTCHAR four.sinf
ENCODING 8324
SWIDTH 620 0
DWIDTH 20 0
BBX 18 21 0 -3
BITMAP
0FEFC0
182840
393940
793940
F93940
F93940
F93940
F93940
F90140
F90140
F8FF40
F80140
FC0140
FFF940
7FF940
7FF840
3FF840
00FFC0
00FF00
00FE00
007C00
ENDCHAR
STARTCHAR five.sinf
ENCODING 8325
SWIDTH 593 0
DWIDTH 19 0
BBX 17 21 1 -3
BITMAP
0FFF80
180080
39FC80
790080
F93F00
F93E00
F90100
F90080
F9FC80
F80280
F80280
FFF280
FFF280
F00280
33FC80
700080
F00100
FFFE00
FFF800
FFF000
FFC000
ENDCHAR
STARTCHAR six.sinf
ENCODING 8326
SWIDTH 628 0
DWIDTH 20 0
BBX 18 21 1 -3
BITMAP
03FF80
040080
08FC80
190080
391F00
793E00
F90180
F90040
F9BE40
F90140
F93940
F93940
F93940
F90140
F90240
F8D440
FC0080
FFEF00
7FFC00
7FF800
1FF000
ENDCHAR
STARTCHAR seven.sinf
ENCODING 8327
SWIDTH 577 0
DWIDTH 18 0
BBX 18 21 0 -3
BITMAP
0FFFC0
180040
39FE40
780240
F80240
FFF240
FFF240
FFC240
7F0640
023840
064080
0E4300
1E4C00
3E4800
3E4800
3E0800
3E0800
3FF000
3FC000
3F8000
3F0000
ENDCHAR
STARTCHAR eight.sinf
ENCODING 8328
SWIDTH 638 0
DWIDTH 20 0
BBX 19 21 1 -3
BITMAP
01FF00
020080
04FC40
090240
393240
793A40
793A40
7F0280
78FC40
710320
720120
327920
F27920
F27920
F10120
F8BE20
FC00C0
FFFF00
FFFE00
7FFC00
3FF000
ENDCHAR
STARTCHAR nine.sinf
ENCODING 8329
SWIDTH 628 0
DWIDTH 20 0
BBX 18 21 1 -3
BITMAP
03FF00
040080
08B440
110240
320140
727140
F27940
F27140
F10240
F8BD40
FC0140
FFF940
FFF140
FC0140
7C0240
1CFC40
3C0180
7FFE00
7FFC00
7FF800
3FE000
ENDCHAR
STARTCHAR parenleft.sinf
ENCODING 8333
SWIDTH 434 0
DWIDTH 14 0
BBX 11 24 1 -4
BITMAP
02C0
0C20
1020
21A0
6220
E420
E4C0
E480
E480
E480
E480
E480
E480
E480
E480
E480
E440
E420
F220
F1A0
F820
FFC0
7F80
3F00
ENDCHAR
STARTCHAR parenright.sinf
ENCODING 8334
SWIDTH 435 0
DWIDTH 14 0
BBX 11 24 1 -4
BITMAP
1D00
20C0
6020
E620
E120
F8A0
FCA0
FCA0
3CA0
3CA0
3CA0
3CA0
3CA0
3CA0
3CA0
3CA0
3CA0
20A0
2120
E620
E040
FF80
FE00
FC00
ENDCHAR
STARTCHAR colonsign
ENCODING 8353
SWIDTH 728 0
DWIDTH 23 0
BBX 22 31 1 -5
BITMAP
0018C0
002320
006320
00E318
030844
040844
082FC4
184004
388004
788004
788FF8
F88FE0
F88FC0
F88F80
F89000
F89000
F88800
F887F8
F88004
F88004
F84004
F82FC4
FC0844
7E0844
7FE318
3FE310
1FE320
0FFFC0
03FF80
03FF00
01DE00
ENDCHAR
STARTCHAR lira
ENCODING 8356
SWIDTH 795 0
DWIDTH 25 0
BBX 25 28 0 -4
BITMAP
007FF800
00800400
01000400
02000400
0C1FC400
1C200400
1C400400
3C43F800
3C47E000
3040C000
71F88000
70410000
FC460000
F8413F00
F0414080
F1F8C080
7840C080
FC47C880
FC400880
FC400880
FC400880
7C7FF880
7C000080
7C000080
7FFFFF00
7FFFFE00
7FFFFC00
3FFFF000
ENDCHAR
STARTCHAR naira
ENCODING 8358
SWIDTH 853 0
DWIDTH 27 0
BBX 27 28 0 -4
BITMAP
03F03FC0
04084040
0C04C040
3C02C040
3C41C240
7C60C240
7C504240
7C484240
7C442220
70420220
71C10320
78408220
FC444240
F8444220
F0462220
F1C71320
70470A20
FC478440
FC47C240
FC47C240
7C47C240
7C07C040
7C07C040
7C07E040
7FFBFF80
7FE3FF00
7FC3FE00
3F83FC00
ENDCHAR
STARTCHAR peseta
ENCODING 8359
SWIDTH 812 0
DWIDTH 26 0
BBX 26 28 0 -4
BITMAP
03FFF800
04000600
0C000100
1C000100
3C7FE080
7C401080
7C400880
7C478880
70478440
70C78640
70478440
F8478840
FC4008C0
FC401880
FC7FE080
7C400100
7C400200
7C400400
7C47F800
7C47F000
7C47C000
7C460000
7C040000
7C040000
7FF80000
7FF00000
7FC00000
3F800000
ENDCHAR
STARTCHAR dong
ENCODING 8363
SWIDTH 782 0
DWIDTH 25 0
BBX 24 34 1 -10
BITMAP
0001F8
000204
000604
001E06
002021
0067F9
01E021
01FE26
01FE24
020024
040024
087FC4
108024
310024
713E24
F13E24
F13E24
F13E24
F13E24
F10044
F08084
F85D08
FC0010
FE0020
FFFFC0
FFFFE0
7C0010
1CFF90
3C0010
7C0010
7FFFE0
7FFFC0
7FFF80
7FFE00
ENDCHAR
STARTCHAR Euro
ENCODING 8364
SWIDTH 748 0
DWIDTH 24 0
BBX 22 28 1 -4
BITMAP
00FFFC
010004
020004
040004
0C3FE4
184004
388004
788FF8
708010
708020
73FF20
F08020
F88FC0
F08020
F08020
F3FF20
F08020
F88FE0
F887F8
F88004
FC4004
7C2FE4
7E0004
7F8004
7FFFFC
3FFFF0
1FFFE0
07FFC0
ENDCHAR
STARTCHAR peso
ENCODING 8369
SWIDTH 812 0
DWIDTH 26 0
BBX 26 28 0 -4
BITMAP
03FFF800
04000600
0C000100
3C000100
3C7FE080
7C401880
70400840
70C78640
78478440
FC478480
F8478440
F0478840
F0C00640
78401840
FC7FE080
FC400100
FC400200
FC400C00
7C47F000
7C47E000
7C47C000
7C460000
7C040000
7C040000
7FF80000
7FF00000
7FC00000
3F800000
ENDCHAR
STARTCHAR guarani
ENCODING 8370
SWIDTH 788 0
DWIDTH 25 0
BBX 23 31 1 -6
BITMAP
001F80
002040
006040
01823C
020204
040204
083FE4
18C004
388004
788004
788FF8
F89FF0
F89FC0
F8913E
F89302
F89702
F89F12
F88F12
F88012
F88012
F84012
F83FF2
FC0202
7F0202
7FE03E
3FE038
1FE030
07FFE0
03FF00
03FE00
01FC00
ENDCHAR
STARTCHAR cedi
ENCODING 8373
SWIDTH 728 0
DWIDTH 23 0
BBX 22 31 1 -5
BITMAP
001F80
002040
006040
00E038
030204
040204
082FC4
184004
388004
788004
788FF8
F88FE0
F88FC0
F88F80
F89000
F89000
F88800
F887F8
F88004
F88004
F84004
F83FC4
FC0204
7E0204
7FE038
3FE030
1FE020
0FFFC0
03FF00
03FE00
01FC00
ENDCHAR
STARTCHAR indianrupee
ENCODING 8377
SWIDTH 713 0
DWIDTH 23 0
BBX 21 28 1 -4
BITMAP
0FFFF8
100008
300008
71FFC8
F00408
FFE230
FFE230
F00208
F00208
71FFC8
700208
FFE238
FFE220
F002C0
F00430
31FF08
F00088
F00048
FFF848
FFFC48
FFFC48
FFFC08
007C08
007C08
007FF8
007FE0
007FC0
007F80
ENDCHAR
STARTCHAR turkishlira
ENCODING 8378
SWIDTH 795 0
DWIDTH 25 0
BBX 25 28 0 -4
BITMAP
07F80000
0C080000
1C080000
3C480000
7C480000
7C470000
7C410000
70790000
73C10000
70460000
FC410000
FC413F00
F1F94080
F246C080
7047C080
FC4BC480
FC47C480
FC478480
FC400880
7C400880
7C401100
7C7FA100
7C000600
7C000800
7FFFF000
7FFFE000
7FFFC000
7FFE0000
ENDCHAR
STARTCHAR ruble
ENCODING 8381
SWIDTH 782 0
DWIDTH 25 0
BBX 25 28 0 -4
BITMAP
03FFF800
04000600
0C000100
3C000100
3C7FA080
7C401080
7C400880
7C478880
7C478880
7C478880
7C478880
7C400880
7C401080
7C7FA100
7C400200
7C400400
7C47F800
7840F000
7040C000
71F88000
70410000
F8010000
FC060000
FC040000
FFF80000
7FF00000
7FC00000
3F800000
ENDCHAR
STARTCHAR liter
ENCODING 8467
SWIDTH 749 0
DWIDTH 24 0
BBX 22 28 1 -4
BITMAP
00FFC0
030030
040008
087F04
1880C4
388044
788C44
F88C44
F88C44
F88C44
F88C44
F88044
F88084
F8FF08
F88010
F88020
F88FC0
F88FE0
F88010
F88010
F87F10
FC0010
FE0010
FF8010
7FFFE0
7FFF80
1FFF00
07FE00
ENDCHAR
STARTCHAR uni2117
ENCODING 8471
SWIDTH 967 0
DWIDTH 31 0
BBX 29 33 1 -7
BITMAP
007FFF80
019FF440
02E003A0
050FFC50
0A7FFF28
3AFFFFA8
7AC007A8
7AC001A8
7ACFF1A8
FAC809A8
FAC9C9A8
FAC9C5A8
FAC9C5A8
FAC9C9A8
FAC809A8
FACFF1A8
FAC803A8
FAC807A8
FAC9FFA8
FAC9E7A8
FAC1C7A8
FAC107A8
FAFE07A8
FAFC07A8
F9780748
FD8FF890
FE700720
7F0EB840
7FF00380
3FFFFE00
1FFFFC00
07FFF000
00FF0000
ENDCHAR
STARTCHAR uni2120
ENCODING 8480
SWIDTH 1003 0
DWIDTH 32 0
BBX 31 19 0 5
BITMAP
01FE7C3C
06018242
08F98AC2
1901959A
390194AA
797F924A
7903914A
F8E1908A
FC18922A
FF04924A
7FE493CA
780493CA
79F993CA
380183C2
7807C7C2
FFFFFBFC
FFF7F3F8
FFE7E3F0
7F0381E0
ENDCHAR
STARTCHAR trademark
ENCODING 8482
SWIDTH 1003 0
DWIDTH 32 0
BBX 31 19 0 5
BITMAP
0FFF7C3C
10008242
33DE8AC2
7020959A
F02094AA
FF2F924A
FF2F914A
FF2F908A
7F2F922A
1F2F924A
1F2F93CA
1F2F93CA
1F2F93CA
1F0F83C2
1F0FC7C2
1FF7FBFC
1FC7F3F8
1F87E3F0
0F0381E0
ENDCHAR
STARTCHAR Omega
ENCODING 8486
SWIDTH 877 0
DWIDTH 28 0
BBX 28 28 0 -4
BITMAP
003FFC00
00C00300
01000080
020FF040
06100840
0C200420
1C400220
3C43E220
3C47E220
3C47E220
3C47E220
3C47E220
3C47E220
3C47E220
3C47E220
3C47E220
3E47E240
3E43E260
38218410
38118810
38F99F90
78018010
F8018010
F8018010
FFFFFFE0
FFFFFFC0
FFF7FF00
7FE7FE00
ENDCHAR
STARTCHAR estimated
ENCODING 8494
SWIDTH 815 0
DWIDTH 26 0
BBX 24 28 1 -4
BITMAP
00FFF0
03000C
040002
081FC1
186021
308011
710009
F11F89
F11F89
F10009
F10009
F10009
F1FFF1
F10001
F10001
F11FFE
F11FFC
F10FF8
F08004
F88004
F87FE4
FC0004
FC0004
FF0004
7FFFF8
3FFFF0
1FFFC0
07FF80
ENDCHAR
STARTCHAR onethird
ENCODING 8531
SWIDTH 1269 0
DWIDTH 41 0
BBX 39 28 1 -4
BITMAP
0FF80FC000
1804102000
3804302000
79C4704000
F824F24000
F824E24000
FF24E24000
FF25E27FF0
FF25E44008
1F25E44FC4
1F25E4C024
1F25C4C024
1F25C4FF24
1F27C4FF24
1020C8F02C
73FCC8F3C2
F00089F012
F00089F00A
FFFF89FFCA
FFFF91FFCA
FFFF92C012
000782CFE2
000703C002
000F03C004
000FFFFFF8
000FFBFFE0
000FE3FFC0
000FC3FF80
ENDCHAR
STARTCHAR twothirds
ENCODING 8532
SWIDTH 1269 0
DWIDTH 41 0
BBX 39 28 1 -4
BITMAP
0FFE0FC000
1801102000
3800B02000
79F0F04000
F804F24000
F804E24000
FFE4E24000
FF84E27FF0
FC0CE44008
0870E44FC4
1183E4C024
320DC4C024
F27BC4FF24
F27FC4FF24
F20048F028
F1FC4973C6
F00049F012
F00089F00A
FFFF89FFCA
FFFF91FFCA
FFFF92C012
000782CFE2
000703C002
000F03C004
000FFFFFF8
000FFBFFE0
000FE3FFC0
000FC3FF80
ENDCHAR
STARTCHAR oneeighth
ENCODING 8539
SWIDTH 1283 0
DWIDTH 41 0
BBX 39 28 1 -4
BITMAP
0FF80FC000
1804102000
39C4302000
7824724000
F824F24000
FF24E24000
FF25E24BF0
FF25E25008
1F25E465E4
1F25E44814
1F25E4C812
1F27C4C992
1F27C4CB92
1020C8C994
3020C8E814
73FCC8C7E2
F000899812
FFFF8993CA
FFFF8993CA
FFFF9193CA
FFF791900A
0007819812
00070387A2
000F03C004
000FFFFFF8
000FFFFFE0
000FE7FFC0
000FC1FF00
ENDCHAR
ENDFONT
